<svg xmlns="http://www.w3.org/2000/svg" xmlns:xlink="http://www.w3.org/1999/xlink" width="380px" height="322px"  viewBox="0 0 380 322"><defs><style>.a{fill:#eef8fd;}.b{fill:#82bee7;}.c{fill:#9ad4f3;}.d{fill:#c9eafb;}.e{fill:url(#a);}.f{fill:url(#b);}.g{fill:url(#c);}.h{fill:url(#d);}.i{fill:url(#e);}.j{fill:url(#f);}.k{fill:url(#g);}.l{fill:url(#h);}.m{fill:url(#i);}.n{fill:#fff;}.o{fill:url(#j);}.p{fill:url(#k);}.q{fill:url(#l);}.r{fill:url(#m);}.s{fill:url(#n);}.t{fill:url(#o);}.u{fill:url(#p);}.v{fill:url(#q);}.w{fill:#f17f9c;}.x{fill:url(#r);}.y{fill:#f8af97;}.z{fill:url(#s);}.aa{fill:url(#t);}.ab{fill:url(#u);}.ac{fill:url(#v);}.ad{fill:url(#w);}.ae{fill:url(#x);}.af{fill:url(#y);}.ag{fill:url(#z);}.ah{fill:url(#aa);}.ai{fill:url(#ab);}.aj{fill:url(#ac);}.ak{fill:url(#ad);}.al{fill:url(#ae);}.am{fill:url(#af);}.an{fill:url(#ag);}.ao{fill:url(#ah);}.ap{fill:url(#ai);}.aq{fill:url(#aj);}</style><linearGradient id="a" x1="2610.08" y1="-1068.28" x2="2610.24" y2="-1072.25" gradientTransform="matrix(2.83, 0, 0, -2.83, -7283.6, -2739.5)" gradientUnits="userSpaceOnUse"><stop offset="0" stop-color="#f59999"/><stop offset="1" stop-color="#f8c8aa"/></linearGradient><linearGradient id="b" x1="1963.8" y1="1216.52" x2="1980.64" y2="1216.52" gradientTransform="matrix(2.83, 0, 0, -2.83, -5487.52, 3764.62)" gradientUnits="userSpaceOnUse"><stop offset="0" stop-color="#181341"/><stop offset="1" stop-color="#4a449a"/></linearGradient><linearGradient id="c" x1="67.82" y1="-4432.62" x2="68.07" y2="-4450.31" gradientTransform="matrix(0.75, 0, 0, -0.75, 63.89, -3030.06)" gradientUnits="userSpaceOnUse"><stop offset="0" stop-color="#eebb86"/><stop offset="1" stop-color="#f37d2a"/></linearGradient><linearGradient id="d" x1="2596.87" y1="-1077.54" x2="2614.76" y2="-1077.54" gradientTransform="matrix(2.83, 0, 0, -2.83, -7283.6, -2746.75)" gradientUnits="userSpaceOnUse"><stop offset="0" stop-color="#4f459b"/><stop offset="1" stop-color="#655da8"/></linearGradient><linearGradient id="e" x1="2627.72" y1="-1067.71" x2="2628.13" y2="-1072.27" xlink:href="#a"/><linearGradient id="f" x1="2634.55" y1="-1024.76" x2="2608.18" y2="-1072.48" gradientTransform="matrix(2.83, 0, 0, -2.83, -7283.6, -2739.5)" gradientUnits="userSpaceOnUse"><stop offset="0" stop-color="#4f459b"/><stop offset="1" stop-color="#7269ae"/></linearGradient><linearGradient id="g" x1="2616.49" y1="-1041.92" x2="2619.39" y2="-1036.24" gradientTransform="matrix(2.83, 0, 0, -2.83, -7283.6, -2739.5)" gradientUnits="userSpaceOnUse"><stop offset="0" stop-color="#4f459b"/><stop offset="1" stop-color="#5951a1"/></linearGradient><linearGradient id="h" x1="2611.43" y1="-1067.4" x2="2616.48" y2="-1058.12" gradientTransform="matrix(2.83, 0, 0, -2.83, -7283.6, -2739.5)" xlink:href="#d"/><linearGradient id="i" x1="2630.18" y1="-1064.8" x2="2630.24" y2="-1057.09" gradientTransform="matrix(2.83, 0, 0, -2.83, -7283.6, -2739.5)" gradientUnits="userSpaceOnUse"><stop offset="0" stop-color="#4f459b"/><stop offset="1" stop-color="#6057a4"/></linearGradient><linearGradient id="j" x1="281.49" y1="-4286.55" x2="352.43" y2="-4294.74" gradientTransform="matrix(0.75, 0, -0.11, -0.75, -541.96, -3095.26)" xlink:href="#c"/><linearGradient id="k" x1="385.15" y1="-4345.95" x2="396.85" y2="-4242.25" gradientTransform="matrix(0.75, 0, -0.11, -0.75, -541.96, -3095.26)" xlink:href="#c"/><linearGradient id="l" x1="398.34" y1="-4362.52" x2="452.38" y2="-4289.41" gradientTransform="matrix(0.75, 0, -0.11, -0.75, -541.96, -3095.26)" xlink:href="#c"/><linearGradient id="m" x1="312.11" y1="-4296.97" x2="253.28" y2="-4220.05" gradientTransform="matrix(0.75, 0, -0.11, -0.75, -541.96, -3095.26)" xlink:href="#a"/><linearGradient id="n" x1="2623.17" y1="-987.12" x2="2622.57" y2="-988.91" gradientTransform="matrix(2.83, -0.05, -0.05, -2.83, -7271.64, -2610.47)" gradientUnits="userSpaceOnUse"><stop offset="0"/><stop offset="1" stop-color="#735386"/></linearGradient><linearGradient id="o" x1="2618.36" y1="-991.28" x2="2618.02" y2="-1004.13" gradientTransform="matrix(2.83, 0, 0, -2.83, -7217.89, -2742.44)" xlink:href="#a"/><linearGradient id="p" x1="2631.36" y1="-1031.09" x2="2627.36" y2="-1033.72" gradientTransform="matrix(3.01, 0, 0, -3.58, -7708.11, -3626.95)" gradientUnits="userSpaceOnUse"><stop offset="0" stop-color="#f17d9d"/><stop offset="1" stop-color="#f8af97"/></linearGradient><linearGradient id="q" x1="2619.54" y1="-979.19" x2="2619.19" y2="-994.27" gradientTransform="matrix(2.83, -0.05, -0.05, -2.83, -7271.64, -2610.47)" xlink:href="#a"/><linearGradient id="r" x1="1979.57" y1="1257.63" x2="1971.29" y2="1264.7" gradientTransform="matrix(2.78, 0.58, 0.58, -2.78, -6007.62, 2406.03)" xlink:href="#n"/><linearGradient id="s" x1="2622.87" y1="-985.82" x2="2623.81" y2="-986.08" gradientTransform="matrix(2.83, -0.05, -0.05, -2.83, -7271.64, -2610.47)" xlink:href="#p"/><linearGradient id="t" x1="2007.51" y1="1293.27" x2="2007.84" y2="1277.97" gradientTransform="matrix(2.83, 0, 0, -2.83, -5487.52, 3764.62)" xlink:href="#f"/><linearGradient id="u" x1="2357.01" y1="641.51" x2="2359.02" y2="641.51" gradientTransform="matrix(-2.79, -0.48, 0.69, -4.06, 6342.32, 3789.49)" xlink:href="#n"/><linearGradient id="v" x1="1942.61" y1="690.57" x2="1944.62" y2="690.57" gradientTransform="matrix(2.79, -0.49, -0.7, -4.06, -4750.36, 3806.83)" xlink:href="#n"/><linearGradient id="w" x1="2610.11" y1="184.31" x2="2611.15" y2="175.61" gradientTransform="matrix(2.83, 0, -0.4, -2.83, -7216.73, 595.86)" gradientUnits="userSpaceOnUse"><stop offset="0" stop-color="#f17d9d"/><stop offset="1" stop-color="#f8b1a1"/></linearGradient><linearGradient id="x" x1="824.82" y1="-6183.72" x2="933.37" y2="-6141.94" gradientTransform="matrix(-0.64, 0.31, -0.41, -0.68, -1728.98, -4325.91)" xlink:href="#a"/><linearGradient id="y" x1="2206.61" y1="773.45" x2="2205.15" y2="774.92" gradientTransform="matrix(-2.41, 1.18, -1.54, -2.58, 6692.65, -459.22)" gradientUnits="userSpaceOnUse"><stop offset="0" stop-color="#f17d9d"/><stop offset="1" stop-color="#f8c8aa"/></linearGradient><linearGradient id="z" x1="2008.96" y1="1298.73" x2="2004.82" y2="1276.83" gradientTransform="matrix(2.83, 0, 0, -2.83, -5487.52, 3764.62)" gradientUnits="userSpaceOnUse"><stop offset="0" stop-color="#e8eb8e"/><stop offset="1" stop-color="#f37d2a"/></linearGradient><linearGradient id="aa" x1="16.76" y1="-4458.15" x2="85.66" y2="-4458.15" gradientTransform="matrix(0.75, 0, 0, -0.75, 63.89, -3030.06)" gradientUnits="userSpaceOnUse"><stop offset="0" stop-color="#30307f"/><stop offset="1" stop-color="#655ca7"/></linearGradient><linearGradient id="ab" x1="388.88" y1="-4432.59" x2="389.12" y2="-4450.29" gradientTransform="matrix(1.81, 0, 0, -0.75, -539.78, -3030.06)" xlink:href="#c"/><linearGradient id="ac" x1="1986.23" y1="1219.1" x2="1997.87" y2="1219.1" gradientTransform="matrix(2.83, 0, 0, -2.83, -5487.52, 3764.62)" xlink:href="#f"/><linearGradient id="ad" x1="107.94" y1="-4461.01" x2="149.02" y2="-4461.01" xlink:href="#aa"/><linearGradient id="ae" x1="105.76" y1="-5223.45" x2="149.01" y2="-5223.45" gradientTransform="matrix(0.75, 0, 0, -2.14, 63.89, -10879.59)" xlink:href="#b"/><linearGradient id="af" x1="2005.5" y1="1302.19" x2="2007.29" y2="1313.72" gradientTransform="matrix(2.83, 0, 0, -2.83, -5404.65, 3764.62)" xlink:href="#f"/><linearGradient id="ag" x1="2010.37" y1="1308.45" x2="2012.15" y2="1302.2" gradientTransform="matrix(2.83, 0, 0, -2.83, -5404.65, 3764.62)" xlink:href="#c"/><linearGradient id="ah" x1="2016.13" y1="1302.19" x2="2016.13" y2="1311.23" gradientTransform="matrix(2.83, 0, 0, -2.83, -5404.65, 3764.62)" xlink:href="#f"/><linearGradient id="ai" x1="2001.52" y1="1308.46" x2="2001.52" y2="1302.19" gradientTransform="matrix(2.83, 0, 0, -2.83, -5404.65, 3764.62)" xlink:href="#c"/><linearGradient id="aj" x1="2021" y1="1315.91" x2="2021" y2="1302.19" gradientTransform="matrix(2.83, 0, 0, -2.83, -5404.65, 3764.62)" xlink:href="#c"/></defs><path class="a" d="M80.79,19H82c2.39,14.83.15,34.35-16.79,56-18.79,24-25.06,60.54-25.52,97.56s4.94,74.57,9.81,100.67C51,281,52.56,288.89,54.11,296.6c-20.2-25-33.59-56-42-87.24C21.87,165.49,38.2,122.17,39.18,95c.87-24.1-6.87-42.09-15.81-54.69C34.78,28.92,52.72,19.19,80.79,19Zm1.74,0,1.84,0Zm1.86,0a145.3,145.3,0,0,1,15,1.13,69.66,69.66,0,0,1,22.31,6.4,66.81,66.81,0,0,1-4.18,19.67c-11,30.84-26.27,66.49-33.06,103.27s-5,74.78,18.32,110c17.44,26.34,32.94,46.16,51.29,60.34H77.28a150.78,150.78,0,0,1-20-19.42c-1.81-9-3.79-18.48-5.51-27.68C47,246.75,41.59,209.33,42,172.58S48.82,99.8,67,76.53C84.19,54.63,86.74,34.42,84.39,19Zm38.49,8.15c.35.18.69.37,1,.56C123.57,27.56,123.23,27.37,122.88,27.19Zm1.07.58c31,17,36.12,56.44,48.38,87.54-.39,2.56-.7,5.35-.9,8.37-1.44,21.91,2.82,56.2,25.41,106,39,86.11,112.55,60.48,152.84,54.11-12,13.34-27.58,25.69-46.83,36H158.05c-19.19-14.05-35.15-34.21-53.37-61.73C81.77,223.53,80,186.36,86.73,150s22-71.92,33-102.88A70.42,70.42,0,0,0,124,27.77ZM21.73,42c8.57,12.2,15.94,29.59,15.1,52.91-.92,25.41-16.14,67-26,109.54C-2.54,151.44-1.8,98.94,4.18,75.72A70.43,70.43,0,0,1,21.73,42Zm151.44,75.46c.22.54.44,1.07.67,1.61C173.61,118.48,173.39,118,173.17,117.41Zm1,2.31c7.75,18,18.61,32.53,39.52,37-3,21.21-3.83,62.66,28.52,88.9,22.68,18.4,61.32,17.1,94.93,6.34,15-4.8,29-11.51,40.21-19.32-3.65,16.25-12,32.83-25.05,48.22-40.68,5.27-113.84,34.86-153.3-52.19-22.46-49.55-26.6-83.42-25.19-104.82C173.88,122.42,174,121.05,174.14,119.72ZM325,148.61c1.77,0,3.51.08,5.22.22a34.41,34.41,0,0,1-3.62,4.88c-6.12,6.93-15.31,12.21-24.59,17s-18.62,9.08-25.12,14.36a23,23,0,0,0-7.21,9,16.31,16.31,0,0,0-.13,11.57c2.81,8.5,9.22,12.84,17.25,13.66s17.74-1.63,27.89-6.23c18.52-8.4,38.55-24,52-41.11a95,95,0,0,1,5.74,10.36c6.78,14.09,8.66,30.27,5.6,46.89-11.24,8.25-25.87,15.43-41.61,20.46-33.18,10.62-71.19,11.6-92.8-5.93-31.08-25.21-30.5-65.47-27.61-86.52,1.65.29,3.37.51,5.14.67,43.64,4,77.35-9.35,103.83-9.23Zm6.53.34,1.22.14Zm1.25.14c12.45,1.56,23.19,7.21,32.53,20.72-13.19,16.91-33.26,32.66-51.56,41-9.93,4.5-19.33,6.79-26.72,6s-12.71-4.33-15.26-12a13.53,13.53,0,0,1,.08-9.82,20.83,20.83,0,0,1,6.49-8c6.12-5,15.39-9.28,24.72-14.1s18.77-10.17,25.27-17.53a35.2,35.2,0,0,0,4.45-6.28Zm-118,7.85,1,.2ZM11.5,207c.2.77.4,1.55.61,2.33C11.9,208.56,11.7,207.78,11.5,207Z"/><path class="b" d="M130.67,288.84H253.31v4.81H130.67Z"/><path class="c" d="M235.27,229.36l31,90.5H259.7l-35.22-90.5Z"/><path class="b" d="M197.54,229.36l-31,90.5h6.54l35.22-90.5Z"/><path class="b" d="M151.34,229.36l-31,90.5h6.54l35.22-90.5Z"/><path class="c" d="M189.08,229.36l31,90.5H213.5l-35.21-90.5Z"/><path class="d" d="M230.69,96.72s56.08,4.15,55.31,39.07S250.92,225.7,231,233.38s-82.81,6.07-100.81-6.55-8.14-34.49,7.8-32.39,69.93-29.92,74.11-55.41,7.37-41,18.64-42.31Z"/><path class="c" d="M80.86,184.35l-31,135.51h6.54L91.65,184.35Z"/><path class="e" d="M123.78,290.2l-2.55,14.9c-4.68,2.19-10.79-1.25-14.54-3.15l.57-11.75,8-1.56Z"/><path class="d" d="M75.9,268.86a3.18,3.18,0,0,1,1.12.19c4.88,1.73,5,14.87.24,29.34h0c-.21.62-.42,1.25-.64,1.87,5-7.66,10.19-11.54,13.37-10.07,3.7,1.71,4,10.28.63,21.24,5.52,2.45,8.53,5.4,8.62,8.43h-90c.06-2.23,1.72-4.43,4.83-6.43-.94-5.28-.28-9,1.83-10.23,1.57-1,3.87-.53,6.62,1.23.11-10.73,2.7-18.13,6.52-18.63,3.65-.48,7.73,5.45,10.42,15.13,0-.05,0-.1,0-.14,1.18-15.25,6.3-27.25,11.44-26.83,4.35.37,7.43,9.6,7.42,22.24.37-1.36.78-2.73,1.23-4.09,4.35-13.25,11.36-23.24,16.32-23.25Z"/><path class="c" d="M76.62,300.26a67.67,67.67,0,0,0-4.54,10.35l-1.64,5.1s0-9.87,2.57-15a21.28,21.28,0,0,1,5.72-7.36,48,48,0,0,1-2.11,6.88Z"/><path class="c" d="M39.48,300.93a74.28,74.28,0,0,0-.64,10.25l.23,3.32a68.61,68.61,0,0,1-2.57-12.3,25.76,25.76,0,0,1,.51-8.34,42.63,42.63,0,0,1,2.47,7.07Z"/><path class="f" d="M123.28,317v.82a1.94,1.94,0,0,1-2,2H81.85s-5-2.55-5-5.95,5.73,1.44,11.76,1.44H121Z"/><path class="g" d="M107,295.12l-.33,6.83c3.75,1.9,9.86,5.34,14.54,3.15l1.71-10Z"/><path class="h" d="M123.28,317c-.58-6.08.34-5.59-1.92-12.7-14.35,0-13.19-3.47-13.19-3.47.63-1.31-1.74-6.09-4.41-1.23-2.14,3.91-7.66,6-13.63,8.48-2.29,1-4.92,2.67-9.4,1.42-6.56-1.83-4.69,8.27-.26,8.27Z"/><path class="i" d="M156.05,290.2l2.82,15.68L173.36,307l1-16.76a32.68,32.68,0,0,0-18.34,0Z"/><path class="j" d="M167,169.42s-40.6,11.55-54,21.7c-7.34,5.55-9.42,11.6-9.42,22,.24,13.52,2,48.28,1.63,66.09-5.6,7,1.64,11.05,2.06,11h16.51c2.56-2.67,7.79-2.64,4.95-13.64,3.11-9.55,7.24-42,3.4-58.86,2.25-2.26,5.18-3.57,5.85-4.46,1.25,17.8,12.47,48.92,15.51,66-3.35,4.19-1.56,7.87,2.56,11h18.34c4.29-4,2.24-10.74,1.84-11.38,2.69-18.13-3.57-55.21-7.89-62.7,4.69-1,49.34-11.66,53.89-20.14,4.86-9.08,1.88-19.56-.12-27-1.25-4.63-55.1.42-55.1.42Z"/><path class="k" d="M138,213.24s-.42-6.6,2.28-10.45a31,31,0,0,1,3-4s-9.42,5.1-11.89,9.69.77,9.21.77,9.21,4.92-2.7,5.85-4.46Z"/><path class="l" d="M132.05,259.28c-3.1,5.91-7.06,12.91-9,14.08-3.42,2.1-3.82,3.2-3.82,3.2h9.49A108.09,108.09,0,0,0,132.05,259.28Z"/><path class="m" d="M176.4,257c-.09.74-.17,1.37-.27,2.2-1.71,14.5-11.24,18.5-8.68,17.91s8.78,1.74,8.78,1.74c.87-5.86.8-13.68.17-21.85Z"/><path class="d" d="M259.16,177.12s2.8,16.51-34.56,16.51-48.73,15.37-51.53,21.2,39.07,18.93,64,1.45,22.11-39.16,22.11-39.16Z"/><path class="c" d="M291.5,184.35l31,135.51h-6.54L280.71,184.35Z"/><path class="n" d="M179.28,161.2c-.21,0-5.43,8.45-2,9,19.05,2.8,38.17,4.33,57.77.73,3.35-.61-2.65-9.69-2.86-9.69Z"/><path class="c" d="M120.56,1.7a10.14,10.14,0,0,1,10,10.38V36.64a10.24,10.24,0,0,1-10,10.37l-26.24.59c-.28.18-14.58,13.64-14.58,13.64-2.07,1.61-4.65.47-4.61-1.77,0,0,0-11.69.07-11.87H59.37a10.16,10.16,0,0,1-10-10.38V12.66a10.2,10.2,0,0,1,10-10.38Z"/><path class="o" d="M176.36,133.55,174.6,96.31h0c-8.7,4.87-9.15,8.05-11.87,12-7.44,11.93-14.19,21.4-14.19,21.4l-17.65-28.07-.6.34c-1.25.75-2.85,1.73-4.43,2.71s-1.9,1.18-3.06,1.9c1.87,7,6.89,25.19,10.8,35.34,1.19,3.11,4.23,11,12.31,8.71,5.49-1.53,30.49-17.12,30.49-17.12Z"/><path class="d" d="M244.82,3.48H334.5A7.6,7.6,0,0,1,342,11.25V75.34a7.61,7.61,0,0,1-7.47,7.77H244.82a7.61,7.61,0,0,1-7.47-7.77V11.25A7.6,7.6,0,0,1,244.82,3.48Z"/><path class="p" d="M238.57,98l-30-14.55-10.84,2.13L174.6,96.31v37.24l.87,17.22c-3.14,7.08-2.12,14.09,2.71,14.54,19.45,3.89,38,2.34,56.51,0,3.5-2.15,2.78-10.15-2-14.14-.29-4.38.69-12,2.09-20.15Z"/><path class="q" d="M238.57,98l-4,32.21L237.49,148l-32,5.27L205,163.72c11.2.59,42.39,2.08,47.83.42,6.59-2,4-44,.35-52.23s-11.78-12.52-11.78-12.52Z"/><path class="r" d="M92.79,71.57a1.21,1.21,0,0,0-.55.16c-.83.49.16,1.7,2.61,4.5.88,1,2.11,2.31,3.32,3.61-3.3-1.51-2.51,3.79-.12,5.42C95.63,85,97.31,91,99.69,91.7c-1.74,2,4.15,5.1,7.56,5.71,2.42,2,10.76,4.63,14.59,5.78.12.39.56,2.09.72,2.71,0,.14.16.56.2.72,1.16-.72,1.51-1,3.06-1.9s3.18-2,4.43-2.71l.6-.34-.53-.84L126.94,95s-5-8.26-6.65-10.43-4.42-9.28-5.36-11-2.75,1.18-2.27,3.66,1,4.83,1,4.83-8.57-3.84-9.56-4.57-8.83-4.64-10.32-5.62a1.69,1.69,0,0,0-1-.29Z"/><path class="s" d="M212.42,59.55s-.89,6.14-3.13,7.15S207.23,58.21,212.42,59.55Z"/><path class="t" d="M209,64l2.88,21.24C204.2,99.2,195.39,101.07,195.39,88l.68-14.87Z"/><path class="u" d="M205.54,66.43l-9.47,6.69-.25,5.49a11.19,11.19,0,0,0,7.87-3C206.66,72.7,206.35,69,205.54,66.43Z"/><path class="v" d="M190.13,44.13l.35,21.23s-.23,7.55,8.14,8.18,10.79-8.44,10.79-12.74-.18-11.19-.29-17.9-19.16-9.5-19,1.23Z"/><path class="w" d="M192.69,53.68s-2.13,2.87-3.1,2.89-.26,2.64,1.67,2.48,3-7,1.43-5.37Z"/><path class="x" d="M205.7,32.72c-.5-.11-1-.2-1.57-.27-5.77-.7-8.06-.38-10.72,1.56-.67.47-1.71.78-1.76-.16-.16-2.93-1.83-2.7-3.24,2.46-1.27,4.62,1.21,13.55,1.93,13.1,0,0-.1-9.81,3.06-6.88,2.63,2.43,1.8.27,6-.35s9.4,2.15,6.54,6.09,2.65,10.1,2.65,10.1a15.92,15.92,0,0,0,2.55-.39,8.2,8.2,0,0,0,1.95-6.22c-.18-3.27,2.41-2.21,3-6.69.36-2.65-3.06-3.44-3.18-5.66-.19-3.51-2.87-5.75-7.19-6.69Z"/><path class="y" d="M214.61,59c-1,2.48-3.33,3.84-5.15,3s-2.49-3.48-1.47-6,3.33-3.83,5.16-3S215.63,56.56,214.61,59Z"/><path class="z" d="M209.9,59.35c0-.13-.25-2.31.75-3.4s2.4-.22,2.23.2-1.21.43-.95,1.09.44,3.54-2,2.11Z"/><path class="aa" d="M191.73,99.53,200,97l14.32,4-14.71,38.6-1.56.23Z"/><path class="n" d="M201,102.45l.28,29.37-3.28,8-4.35-16.42,5.17-20.63Z"/><path class="n" d="M200,97s10.11,6.6,12.09,5.79,5.13-15,5.13-15a40.22,40.22,0,0,0-3-6.64,2.54,2.54,0,0,0-3.24-1.14Z"/><path class="n" d="M200,97s-3.62,2.72-4.74,3.41S191.53,89.54,192.15,86s3.47-3,3.47-3Z"/><path class="ab" d="M194.36,62c2,0,4.83,1.15,5.23,2.59s-1.41-.61-3.24-.75A2.1,2.1,0,0,1,194.36,62Z"/><path class="ac" d="M193.79,62a2.09,2.09,0,0,1-2,1.85,4.11,4.11,0,0,0-1.35.4l0-1.41a8,8,0,0,1,3.35-.84Z"/><path class="c" d="M73.9,170.14H297.16a4.76,4.76,0,0,1,4.67,4.86v9.5a4.75,4.75,0,0,1-4.67,4.85H73.9a4.75,4.75,0,0,1-4.67-4.85V175A4.76,4.76,0,0,1,73.9,170.14Z"/><path class="c" d="M144.27,152.4l.11.4.09,0,.08-.34Zm.2.42-2.89,12.07h56.07a13.44,13.44,0,0,0-2.63-3.51C191.93,158.31,158.46,155.56,144.47,152.82Z"/><path class="d" d="M66.55,164.89h238a5.63,5.63,0,0,1,0,11.26h-238a5.63,5.63,0,0,1,0-11.26Z"/><path class="ad" d="M116.64,97.83c2.19.68-.2-3.94-1.73-6.83s-1.21-9-1.21-9c-7.62.91-6.19,13,3,15.78Z"/><path class="d" d="M93.42,119.78h57.79c3.37,0,6.88,2.82,7.88,6.33l9.5,33.31c1,3.51-.91,6.33-4.28,6.33H106.52c-3.37,0-6.88-2.82-7.88-6.33l-9.5-33.31c-1-3.51.91-6.33,4.28-6.33Z"/><path class="ae" d="M205.45,153.31l-6.63,1.1s-11.69-9.3-13.29-9.56a1.55,1.55,0,0,0-1,.19,26.28,26.28,0,0,0-4.49-2.34h0a.66.66,0,0,0-.76.26c-.51.9-2.53,4.6-1.5,6.2a5.2,5.2,0,0,0,1.54,1.44c.25,2.79,1,6.55,2.3,7.52,2.93,2.14,18.23,5.33,18.23,5.33l5.13.27Z"/><path class="af" d="M179.35,150.6l1.48-4.81S179.18,146.9,179,148a6.43,6.43,0,0,0,.34,2.57Z"/><path class="n" d="M125.72,136.55a5.59,5.59,0,0,0-2.86.8,6.08,6.08,0,0,1,0,10.31,5.58,5.58,0,0,0,2.86.79,6,6,0,0,0,0-11.9Z"/><path class="d" d="M94.79,17a10.27,10.27,0,0,0-10,10.49V52.09a10.1,10.1,0,0,0,10,10.26l26.24.27c.29.18,14.59,13.47,14.59,13.47,2.07,1.59,4.65.41,4.61-1.83,0,0,0-11.69-.07-11.87L156,62.21a10.32,10.32,0,0,0,10-10.5V27.15a10.06,10.06,0,0,0-10-10.26Z"/><path class="n" d="M107,35.23a5,5,0,0,0,0,10.07h0a4.94,4.94,0,0,0,4.84-5h0a4.94,4.94,0,0,0-4.84-5h0Z"/><path class="n" d="M125.11,35.23a5,5,0,0,0,0,10.07h0a4.94,4.94,0,0,0,4.85-5h0a4.94,4.94,0,0,0-4.85-5h0Z"/><path class="n" d="M143.25,35.23a5,5,0,0,0,0,10.07h0a4.94,4.94,0,0,0,4.85-5h0a4.94,4.94,0,0,0-4.85-5h0Z"/><path class="d" d="M346.21,268.86a3.21,3.21,0,0,1,1.12.19c4.88,1.73,5,14.87.24,29.34h0c-.21.62-.42,1.25-.64,1.87,5-7.66,10.19-11.54,13.37-10.07,3.7,1.71,3.95,10.28.63,21.24,5.52,2.45,8.53,5.4,8.62,8.43h-90c.06-2.23,1.72-4.43,4.83-6.43-.94-5.28-.28-9,1.83-10.23,1.57-1,3.87-.53,6.62,1.23.11-10.73,2.7-18.13,6.52-18.63,3.65-.48,7.73,5.45,10.42,15.13a.61.61,0,0,1,0-.14c1.18-15.25,6.3-27.25,11.44-26.83,4.35.37,7.43,9.6,7.42,22.24.37-1.36.78-2.73,1.23-4.09,4.35-13.25,11.36-23.24,16.32-23.25Z"/><path class="c" d="M346.93,300.26a67.67,67.67,0,0,0-4.54,10.35l-1.64,5.1s0-9.87,2.57-15a21.28,21.28,0,0,1,5.72-7.36,48,48,0,0,1-2.11,6.88Z"/><path class="c" d="M309.79,300.93a74.28,74.28,0,0,0-.64,10.25l.23,3.32a68.61,68.61,0,0,1-2.57-12.3,25.76,25.76,0,0,1,.51-8.34,42.63,42.63,0,0,1,2.47,7.07Z"/><path class="ag" d="M216.59,87.26l-18.48,52.33-4.29-52.3-5.51,2.65s-1.09,7-1.21,7.45a3,3,0,0,0,1.44,3,22.48,22.48,0,0,1,2.61,2.23s-4.48,7.4-4.4,9.34,10.51,33.76,10.51,33.76l20.32-31.25a4.89,4.89,0,0,0,.31-5.1c-1.48-2.75-2.65-4.77-2.65-4.77a53,53,0,0,0,5.92-3.64c1-1-1.32-12.1-1.32-12.1Z"/><path class="n" d="M122.76,106.62s-.83,4.93,4.67,3.9,8.16-10.26,3.42-8.85a20.54,20.54,0,0,0-8.09,5Z"/><path class="n" d="M205.45,153.31s-3,11.57,1.69,13.06S211.59,149.41,205.45,153.31Z"/><path class="ah" d="M79.34,309.31c-4.86-.09-3,8.49,1.13,8.49l42.81-.77c0-1.3-.46-2.43-.32-3.62H94.35c-8.24,0-10.93-2.21-11.8-3.52a12.17,12.17,0,0,1-1.82-.36A5.93,5.93,0,0,0,79.34,309.31Z"/><path class="n" d="M197,98.32s.39,6.07,2.72,6.39,5.22-5.18,5.45-5.82S200,97,200,97Z"/><path class="ai" d="M156.93,295.12l1.76,9.75a74.26,74.26,0,0,0,14.75.84l.65-10.59Z"/><path class="aj" d="M162,298.06c-1.12,0-2.26.75-2.93,2.43-2.67,6.67-6.81,9.6-7.83,10.21-4.29,2.58-6,3.54-6.32,4.87-.42,1.65,2.48,4.29,2.48,4.29h27.09s1.87.14.94-4.91-1.85-10.62-1.85-10.62a17.63,17.63,0,0,1-5.72.18c-2.49-.49-2.45-1.84-2.92-3.68a3.3,3.3,0,0,0-2.94-2.77Z"/><path class="ak" d="M154.11,311.53c-1.36,0-2.62.5-4.5,1.67a6,6,0,0,1-3.91,1.11,2.75,2.75,0,0,0-.82,1.26c-.42,1.65,2.48,4.29,2.48,4.29h27.09s1.87.14.94-4.91c-.06-.29-.1-.57-.16-.86-2.18.15-12.13.72-16.09-1C156.91,312.11,155.46,311.55,154.11,311.53Z"/><path class="al" d="M145.14,317a11.14,11.14,0,0,0,2.22,2.83h27.09s1.09.08,1.19-2.14V317Z"/><path class="am" d="M280.23,40.73h4.87V73.44h-4.87Z"/><path class="an" d="M294,55.65h4.87V73.44H294Z"/><path class="ao" d="M307.83,47.8h4.88V73.44h-4.88Z"/><path class="ap" d="M266.42,55.65h4.88V73.44h-4.88Z"/><path class="aq" d="M321.63,34.56h4.88V73.44h-4.88Z"/><path class="n" d="M300.24,47.31a3.78,3.78,0,1,1-3.77-3.92A3.85,3.85,0,0,1,300.24,47.31Z"/><path class="n" d="M269.91,45.17a4.14,4.14,0,1,1-4.14-4.3A4.23,4.23,0,0,1,269.91,45.17Z"/><path class="n" d="M327.84,25.64a3.77,3.77,0,1,1-3.77-3.92A3.85,3.85,0,0,1,327.84,25.64Z"/><rect class="c" x="244.66" y="11.93" width="11.73" height="3.32"/><rect class="c" x="244.66" y="19.94" width="17.24" height="3.32"/><path class="n" d="M286.64,25.49a4.14,4.14,0,1,1-4.14-4.31A4.22,4.22,0,0,1,286.64,25.49Z"/><path class="n" d="M314,40.21a3.77,3.77,0,1,1-3.77-3.92A3.85,3.85,0,0,1,314,40.21Z"/><path class="n" d="M322.91,23.49a1.59,1.59,0,0,0-1.16.54l-12.7,14.45L296.2,45.82,283.78,24.63a1.56,1.56,0,0,0-2.53-.27s-4.19,4.7-8.4,9.45c-2.11,2.37-4.22,4.76-5.82,6.59-.81.92-1.48,1.69-2,2.26l-.59.68-.19.24c-.05.07,0,0-.26.4a1.69,1.69,0,0,0,.72,2.22,1.57,1.57,0,0,0,2-.53h0l.12-.15.54-.64,1.95-2.23c1.59-1.82,3.7-4.21,5.81-6.58,3.48-3.94,5.87-6.6,6.95-7.82L294.26,48.9a1.57,1.57,0,0,0,2.14.59l14.42-8.24a1.61,1.61,0,0,0,.41-.33l12.88-14.65a1.72,1.72,0,0,0-.1-2.35,1.58,1.58,0,0,0-1.11-.43Z"/></svg>