<?xml version="1.0" encoding="utf-8"?><svg id="Layer_1" data-name="Layer 1" xmlns="http://www.w3.org/2000/svg" xmlns:xlink="http://www.w3.org/1999/xlink" viewBox="0 0 1024 1024"><defs><style>.cls-1{fill:#eef8fd;}.cls-2{fill:#82bee7;}.cls-3{fill:#9ad4f3;}.cls-4{fill:#c9eafb;}.cls-5{fill:url(#linear-gradient);}.cls-6{fill:url(#linear-gradient-2);}.cls-7{fill:url(#linear-gradient-3);}.cls-8{fill:url(#linear-gradient-4);}.cls-9{fill:url(#linear-gradient-5);}.cls-10{fill:url(#linear-gradient-6);}.cls-11{fill:url(#linear-gradient-7);}.cls-12{fill:url(#linear-gradient-8);}.cls-13{fill:url(#linear-gradient-9);}.cls-14{fill:#fff;}.cls-15{fill:url(#linear-gradient-10);}.cls-16{fill:url(#linear-gradient-11);}.cls-17{fill:url(#linear-gradient-12);}.cls-18{fill:url(#linear-gradient-13);}.cls-19{fill:url(#linear-gradient-14);}.cls-20{fill:url(#linear-gradient-15);}.cls-21{fill:url(#linear-gradient-16);}.cls-22{fill:url(#linear-gradient-17);}.cls-23{fill:#f17f9c;}.cls-24{fill:url(#linear-gradient-18);}.cls-25{fill:#f8af97;}.cls-26{fill:url(#linear-gradient-19);}.cls-27{fill:url(#linear-gradient-20);}.cls-28{fill:url(#linear-gradient-21);}.cls-29{fill:url(#linear-gradient-22);}.cls-30{fill:url(#linear-gradient-23);}.cls-31{fill:url(#linear-gradient-24);}.cls-32{fill:url(#linear-gradient-25);}.cls-33{fill:url(#linear-gradient-26);}.cls-34{fill:url(#linear-gradient-27);}.cls-35{fill:url(#linear-gradient-28);}.cls-36{fill:url(#linear-gradient-29);}.cls-37{fill:url(#linear-gradient-30);}.cls-38{fill:url(#linear-gradient-31);}.cls-39{fill:url(#linear-gradient-32);}.cls-40{fill:url(#linear-gradient-33);}.cls-41{fill:url(#linear-gradient-34);}.cls-42{fill:url(#linear-gradient-35);}.cls-43{fill:url(#linear-gradient-36);}</style><linearGradient id="linear-gradient" x1="2169.28" y1="-2294.41" x2="2169.63" y2="-2303.34" gradientTransform="matrix(2.83, 0, 0, -2.83, -5812.25, -5703.65)" gradientUnits="userSpaceOnUse"><stop offset="0" stop-color="#f59999"/><stop offset="1" stop-color="#f8c8aa"/></linearGradient><linearGradient id="linear-gradient-2" x1="1506" y1="-21.81" x2="1545.44" y2="-21.81" gradientTransform="matrix(2.83, 0, 0, -2.83, -4016.17, 800.48)" gradientUnits="userSpaceOnUse"><stop offset="0" stop-color="#181341"/><stop offset="1" stop-color="#4a449a"/></linearGradient><linearGradient id="linear-gradient-3" x1="630.61" y1="-6927.76" x2="631.16" y2="-6967.64" gradientTransform="matrix(0.75, 0, 0, -0.75, -136.61, -4382.81)" gradientUnits="userSpaceOnUse"><stop offset="0" stop-color="#eebb86"/><stop offset="1" stop-color="#f37d2a"/></linearGradient><linearGradient id="linear-gradient-4" x1="2138.34" y1="-2312.06" x2="2180.22" y2="-2312.06" gradientTransform="matrix(2.83, 0, 0, -2.83, -5812.25, -5710.9)" gradientUnits="userSpaceOnUse"><stop offset="0" stop-color="#4f459b"/><stop offset="1" stop-color="#655da8"/></linearGradient><linearGradient id="linear-gradient-5" x1="2210.59" y1="-2293.1" x2="2211.51" y2="-2303.39" xlink:href="#linear-gradient"/><linearGradient id="linear-gradient-6" x1="2225.74" y1="-2195.42" x2="2165.53" y2="-2304.39" gradientTransform="matrix(2.83, 0, 0, -2.83, -5812.25, -5703.65)" gradientUnits="userSpaceOnUse"><stop offset="0" stop-color="#4f459b"/><stop offset="1" stop-color="#7269ae"/></linearGradient><linearGradient id="linear-gradient-7" x1="2184.33" y1="-2235.02" x2="2190.93" y2="-2222.11" gradientTransform="matrix(2.83, 0, 0, -2.83, -5812.25, -5703.65)" gradientUnits="userSpaceOnUse"><stop offset="0" stop-color="#4f459b"/><stop offset="1" stop-color="#5951a1"/></linearGradient><linearGradient id="linear-gradient-8" x1="2172.53" y1="-2292.54" x2="2184.02" y2="-2271.4" gradientTransform="matrix(2.83, 0, 0, -2.83, -5812.25, -5703.65)" xlink:href="#linear-gradient-4"/><linearGradient id="linear-gradient-9" x1="2216.33" y1="-2286.56" x2="2216.47" y2="-2269.19" gradientTransform="matrix(2.83, 0, 0, -2.83, -5812.25, -5703.65)" gradientUnits="userSpaceOnUse"><stop offset="0" stop-color="#4f459b"/><stop offset="1" stop-color="#6057a4"/></linearGradient><linearGradient id="linear-gradient-10" x1="657.26" y1="-6489.34" x2="823.49" y2="-6508.51" gradientTransform="matrix(0.75, 0, -0.11, -0.75, -824.32, -4448.01)" xlink:href="#linear-gradient-3"/><linearGradient id="linear-gradient-11" x1="900.61" y1="-6623.86" x2="927" y2="-6390" gradientTransform="matrix(0.75, 0, -0.11, -0.75, -824.32, -4448.01)" xlink:href="#linear-gradient-3"/><linearGradient id="linear-gradient-12" x1="932.07" y1="-6662.46" x2="1055.2" y2="-6495.89" gradientTransform="matrix(0.75, 0, -0.11, -0.75, -824.32, -4448.01)" xlink:href="#linear-gradient-3"/><linearGradient id="linear-gradient-13" x1="726.46" y1="-6516.03" x2="591.17" y2="-6339.14" gradientTransform="matrix(0.75, 0, -0.11, -0.75, -824.32, -4448.01)" xlink:href="#linear-gradient"/><linearGradient id="linear-gradient-14" x1="2221.54" y1="-2119.38" x2="2220.18" y2="-2123.42" gradientTransform="matrix(2.83, -0.05, -0.05, -2.83, -5837.87, -5612.97)" gradientUnits="userSpaceOnUse"><stop offset="0"/><stop offset="1" stop-color="#735386"/></linearGradient><linearGradient id="linear-gradient-15" x1="2219.75" y1="-2119.62" x2="2218.99" y2="-2148.58" gradientTransform="matrix(2.83, 0, 0, -2.83, -5746.54, -5706.59)" xlink:href="#linear-gradient"/><linearGradient id="linear-gradient-16" x1="2210.41" y1="-2085.69" x2="2201.18" y2="-2091.74" gradientTransform="matrix(3.01, 0, 0, -3.58, -6097.93, -7171.07)" gradientUnits="userSpaceOnUse"><stop offset="0" stop-color="#f17d9d"/><stop offset="1" stop-color="#f8af97"/></linearGradient><linearGradient id="linear-gradient-17" x1="2213.04" y1="-2101.51" x2="2212.25" y2="-2135.48" gradientTransform="matrix(2.83, -0.05, -0.05, -2.83, -5837.87, -5612.97)" xlink:href="#linear-gradient"/><linearGradient id="linear-gradient-18" x1="1646.91" y1="224.11" x2="1627.97" y2="240.29" gradientTransform="matrix(2.78, 0.58, 0.58, -2.78, -4138.27, -50.32)" xlink:href="#linear-gradient-14"/><linearGradient id="linear-gradient-19" x1="2220.86" y1="-2116.45" x2="2223.07" y2="-2117.06" gradientTransform="matrix(2.83, -0.05, -0.05, -2.83, -5837.87, -5612.97)" xlink:href="#linear-gradient-16"/><linearGradient id="linear-gradient-20" x1="1608.37" y1="151.11" x2="1609.11" y2="116.63" gradientTransform="matrix(2.83, 0, 0, -2.83, -4016.17, 800.48)" xlink:href="#linear-gradient-6"/><linearGradient id="linear-gradient-21" x1="1099.9" y1="-325.28" x2="1104.59" y2="-325.28" gradientTransform="matrix(-2.79, -0.48, 0.69, -4.06, 3833.9, -501.79)" xlink:href="#linear-gradient-14"/><linearGradient id="linear-gradient-22" x1="1470.13" y1="-369.14" x2="1474.82" y2="-369.14" gradientTransform="matrix(2.79, -0.49, -0.7, -4.06, -3857.26, -489.97)" xlink:href="#linear-gradient-14"/><linearGradient id="linear-gradient-23" x1="2115.63" y1="-946.69" x2="2117.97" y2="-966.31" gradientTransform="matrix(2.83, 0, -0.4, -2.83, -6054.89, -2368.28)" gradientUnits="userSpaceOnUse"><stop offset="0" stop-color="#f17d9d"/><stop offset="1" stop-color="#f8b1a1"/></linearGradient><linearGradient id="linear-gradient-24" x1="-667.81" y1="-8897.93" x2="-413.25" y2="-8799.96" gradientTransform="matrix(-0.64, 0.31, -0.41, -0.68, -3358.26, -5375.63)" xlink:href="#linear-gradient"/><linearGradient id="linear-gradient-25" x1="1262.3" y1="-496.18" x2="1259.01" y2="-492.85" gradientTransform="matrix(-2.41, 1.18, -1.54, -2.58, 2763.75, -2278.2)" gradientUnits="userSpaceOnUse"><stop offset="0" stop-color="#f17d9d"/><stop offset="1" stop-color="#f8c8aa"/></linearGradient><linearGradient id="linear-gradient-26" x1="1611.72" y1="163.46" x2="1602.37" y2="114.02" gradientTransform="matrix(2.83, 0, 0, -2.83, -4016.17, 800.48)" gradientUnits="userSpaceOnUse"><stop offset="0" stop-color="#e8eb8e"/><stop offset="1" stop-color="#f37d2a"/></linearGradient><linearGradient id="linear-gradient-27" x1="511.02" y1="-6985.3" x2="672.38" y2="-6985.3" gradientTransform="matrix(0.75, 0, 0, -0.75, -136.61, -4382.81)" gradientUnits="userSpaceOnUse"><stop offset="0" stop-color="#30307f"/><stop offset="1" stop-color="#655ca7"/></linearGradient><linearGradient id="linear-gradient-28" x1="188.81" y1="-6927.72" x2="189.36" y2="-6967.59" gradientTransform="matrix(1.81, 0, 0, -0.75, 112.72, -4382.81)" xlink:href="#linear-gradient-3"/><linearGradient id="linear-gradient-29" x1="1558.53" y1="-16" x2="1585.8" y2="-16" gradientTransform="matrix(2.83, 0, 0, -2.83, -4016.17, 800.48)" xlink:href="#linear-gradient-6"/><linearGradient id="linear-gradient-30" x1="724.54" y1="-6991.74" x2="820.75" y2="-6991.74" xlink:href="#linear-gradient-27"/><linearGradient id="linear-gradient-31" x1="719.44" y1="-6613" x2="820.73" y2="-6613" gradientTransform="matrix(0.75, 0, 0, -2.14, -136.61, -13309.75)" xlink:href="#linear-gradient-2"/><linearGradient id="linear-gradient-32" x1="1642.97" y1="171.18" x2="1647" y2="197.18" gradientTransform="matrix(2.83, 0, 0, -2.83, -3933.31, 800.48)" xlink:href="#linear-gradient-6"/><linearGradient id="linear-gradient-33" x1="1654.37" y1="185.32" x2="1658.4" y2="171.18" gradientTransform="matrix(2.83, 0, 0, -2.83, -3933.31, 800.48)" xlink:href="#linear-gradient-3"/><linearGradient id="linear-gradient-34" x1="1667.79" y1="171.18" x2="1667.79" y2="191.56" gradientTransform="matrix(2.83, 0, 0, -2.83, -3933.31, 800.48)" xlink:href="#linear-gradient-6"/><linearGradient id="linear-gradient-35" x1="1633.58" y1="185.32" x2="1633.58" y2="171.18" gradientTransform="matrix(2.83, 0, 0, -2.83, -3933.31, 800.48)" xlink:href="#linear-gradient-3"/><linearGradient id="linear-gradient-36" x1="1679.19" y1="202.09" x2="1679.19" y2="171.18" gradientTransform="matrix(2.83, 0, 0, -2.83, -3933.31, 800.48)" xlink:href="#linear-gradient-3"/></defs><title>Financial Consulting Expert</title><path id="path14623" class="cls-1" d="M256.79,192.62h2.84c5.59,33.41.34,77.37-39.31,126.1-44,54.08-58.7,136.39-59.78,219.78s11.57,168,23,226.81c3.39,17.45,7.16,35.29,10.78,52.66C147,761.67,115.65,691.73,96,621.44,118.82,522.6,157.06,425,159.35,363.69c2-54.29-16.08-94.82-37-123.2,26.71-25.55,68.73-47.46,134.45-47.87Zm4.07,0c1.43,0,2.87,0,4.33.06Zm4.37.06q16.54.34,35,2.55c20.21,2.44,37.43,7.42,52.25,14.43-.49,12.58-3.5,27.23-9.8,44.31C317.07,323.44,281.2,403.75,265.3,486.6s-11.73,168.48,42.89,247.83c40.85,59.34,77.16,104,120.13,136H248.57a348.6,348.6,0,0,1-46.74-43.75C197.6,806.25,193,785,188.94,764.25,177.56,705.67,165,621.36,166.05,538.57s15.89-164,58.54-216.36c40.16-49.35,46.14-94.88,40.64-129.53Zm90.13,18.37c.82.41,1.63.83,2.43,1.25C357,211.88,356.18,211.46,355.36,211.05Zm2.52,1.3c72.54,38.2,84.57,127.14,113.29,197.22-.9,5.77-1.63,12-2.1,18.85-3.38,49.35,6.61,126.6,59.51,238.86,91.4,194,263.57,136.25,357.92,121.91-28,30-64.58,57.86-109.67,81.19H437.73c-45-31.65-82.31-77.08-125-139.07-53.65-77.94-57.76-161.68-42-243.67s51.42-162,77.17-231.75C353.94,239.48,357.09,225,357.88,212.35Zm-239.39,32c20.07,27.48,37.32,66.65,35.35,119.18C151.7,420.73,116.06,514.31,93,610.26,61.65,491,63.37,372.68,77.39,320.39,77.39,320.39,84,279.74,118.49,244.3Zm354.64,170c.52,1.21,1.05,2.43,1.58,3.63C474.18,416.71,473.65,415.51,473.13,414.29Zm2.27,5.22C493.57,460.09,519,492.78,568,502.84c-7.05,47.8-9,141.18,66.77,200.29,53.13,41.44,143.61,38.51,222.34,14.28,35.14-10.82,68-25.94,94.16-43.53-8.54,36.62-28.07,74-58.67,108.63-95.26,11.88-266.6,78.54-359-117.58C481,553.31,471.27,477,474.57,428.8,474.79,425.57,475.08,422.48,475.4,419.51Zm353.25,65.08c4.15,0,8.23.17,12.23.48a76.63,76.63,0,0,1-8.47,11c-14.33,15.61-35.85,27.5-57.58,38.29S731.21,554.82,716,566.71c-7.61,5.95-13.6,12.49-16.87,20.17s-3.63,16.43-.31,26.07c6.58,19.15,21.59,28.91,40.41,30.77s41.54-3.67,65.31-14c43.38-18.93,90.28-54.16,121.83-92.6a216.57,216.57,0,0,1,13.44,23.34c15.87,31.74,20.27,68.17,13.11,105.62-26.32,18.58-60.59,34.76-97.44,46.1-77.7,23.92-166.72,26.12-217.32-13.36-72.81-56.8-71.45-147.49-64.67-194.91q5.81,1,12,1.51c102.19,8.92,181.13-21.07,243.14-20.79Zm15.31.76c.95.09,1.91.2,2.86.31C845.87,485.55,844.91,485.44,844,485.35Zm2.91.32c29.18,3.51,54.32,16.24,76.2,46.68-30.9,38.08-77.89,73.57-120.76,92.28-23.24,10.14-45.26,15.31-62.56,13.6S710,628.48,704,611.16c-3-8.59-2.58-15.66.17-22.12s8-12.39,15.19-18c14.34-11.19,36-20.9,57.91-31.76s44-22.91,59.18-39.5a77.34,77.34,0,0,0,10.4-14.13ZM570.53,503.35l2.45.44Zm-476,112.78c.48,1.75,1,3.51,1.45,5.26C95.48,619.64,95,617.88,94.52,616.13Z"/><g id="g14377"><path id="rect14358" class="cls-2" d="M373.61,800.49h287.2v10.82H373.61Z"/><path id="path14360" class="cls-3" d="M618.58,666.5,691.1,870.38H675.79L593.32,666.5Z"/><path id="path14362" class="cls-2" d="M530.21,666.5,457.68,870.38H473L555.47,666.5Z"/><path id="path14364" class="cls-2" d="M422,666.5,349.49,870.38h15.32L447.28,666.5Z"/><path id="path14366" class="cls-3" d="M510.39,666.5l72.52,203.88H567.6L485.13,666.5Z"/></g><path id="path14368" class="cls-4" d="M607.84,367.69s131.35,9.34,129.53,88-82.14,202.55-128.9,219.85-193.94,13.68-236.1-14.75-19.05-77.71,18.27-73S554.41,520.42,564.19,463s17.27-92.28,43.65-95.31Z"/><path id="path13845" class="cls-3" d="M257,565.09,184.43,870.38h15.32l82.47-305.29Z"/><path id="path11149-8-7" class="cls-5" d="M357.47,803.54l-6,33.57c-11,4.95-25.27-2.8-34.05-7.09l1.35-26.48,18.8-3.5Z"/><g id="g14639"><path id="path14625" class="cls-4" d="M245.35,755.48a8.19,8.19,0,0,1,2.63.42c11.43,3.9,11.68,33.5.55,66.1h0c-.48,1.41-1,2.81-1.5,4.21,11.81-17.26,23.87-26,31.31-22.69,8.66,3.85,9.26,23.17,1.48,47.85,12.93,5.53,20,12.17,20.19,19H89.28c.15-5,4-10,11.33-14.5-2.21-11.9-.67-20.17,4.26-23,3.69-2.14,9.07-1.18,15.51,2.79.26-24.19,6.33-40.85,15.27-42,8.56-1.07,18.11,12.27,24.4,34.09l0-.33c2.75-34.34,14.75-61.39,26.8-60.42,10.18.81,17.39,21.61,17.37,50.1q1.31-4.62,2.87-9.22c10.2-29.86,26.61-52.36,38.23-52.38Z"/><path id="path14627" class="cls-3" d="M247,826.21a150.45,150.45,0,0,0-10.64,23.33L232.56,861s0-22.24,6-33.73S252,810.71,252,810.71c-1.65,7.74-3.3,10.5-4.95,15.5Z"/><path id="path14629" class="cls-3" d="M160.05,827.73s-2.05,15.61-1.5,23.09l.55,7.47s-5.11-15.86-6-27.71,1.2-18.78,1.2-18.78,4.91,10.71,5.77,15.93Z"/></g><path id="path7657" class="cls-6" d="M356.3,864v1.84a4.46,4.46,0,0,1-4.58,4.54H259.28s-11.74-5.76-11.83-13.42,13.41,3.26,27.54,3.26h75.88Z"/><path id="rect7688" class="cls-7" d="M318.23,814.63,317.45,830c8.78,4.29,23.09,12,34.05,7.09l4-22.48Z"/><path id="path11155-8-5" class="cls-8" d="M356.3,864c-1.36-13.69.79-12.59-4.49-28.62-33.6,0-30.88-7.81-30.88-7.81,1.47-2.94-4.08-13.73-10.33-2.77-5,8.8-17.94,13.42-31.92,19.1-5.37,2.18-11.53,6-22,3.2-15.35-4.11-11,18.63-.59,18.63Z"/><path id="path11165-5-4" class="cls-9" d="M433.05,803.54l6.6,35.33,33.93,2.44L476,803.54a79.78,79.78,0,0,0-42.95,0Z"/><path id="path11167-7-5" class="cls-10" d="M458.72,531.47s-95.08,26-126.5,48.89c-17.18,12.5-22.06,26.11-22.06,49.46.56,30.46,4.7,108.76,3.83,148.89-13.13,15.79,3.83,24.89,4.81,24.83h38.67c6-6,18.25-5.94,11.61-30.72C376.35,751.3,386,678.25,377,640.23c5.28-5.09,12.13-8.05,13.71-10.06,2.92,40.12,29.2,110.22,36.31,148.6-7.84,9.44-3.65,17.73,6,24.77H476c10.05-8.91,5.24-24.18,4.31-25.63,6.29-40.84-8.37-124.37-18.48-141.25,11-2.2,115.55-26.25,126.19-45.36,11.4-20.46,4.41-44.07-.27-60.79-2.92-10.43-129,1-129,1Z"/><path id="path11189-9-79" class="cls-11" d="M390.74,630.17s-1-14.86,5.34-23.52,7-9,7-9-22.07,11.5-27.84,21.83S377,640.23,377,640.23s11.53-6.08,13.71-10.06Z"/><path id="path11191-5-16" class="cls-12" d="M376.84,733.9c-7.26,13.3-16.54,29.08-21,31.73-8,4.71-9,7.19-9,7.19h22.25C371.68,765.12,374.59,750.82,376.84,733.9Z"/><path id="path11193-9-4" class="cls-13" d="M480.7,728.69c-.21,1.67-.39,3.09-.62,5-4,32.67-26.33,41.67-20.33,40.34s20.56,3.92,20.56,3.92c2-13.19,1.87-30.82.39-49.22Z"/><path id="path14370" class="cls-4" d="M674.52,548.8S681.09,586,593.58,586,479.46,620.63,472.9,633.75s91.51,42.66,149.85,3.28,51.77-88.23,51.77-88.23Z"/><path id="path13847" class="cls-3" d="M750.26,565.09l72.52,305.29H807.47L725,565.09Z"/><path id="path9715-9-04" class="cls-14" d="M487.45,513c-.5,0-12.72,19-4.74,20.17,44.6,6.32,89.37,9.76,135.29,1.66,7.84-1.38-6.21-21.83-6.71-21.83Z"/><path id="path14543" class="cls-3" d="M350,153.62A23.25,23.25,0,0,1,373.32,177v55.33c0,12.95-10.43,23.1-23.37,23.38L288.49,257c-.67.4-34.15,30.74-34.15,30.74-4.85,3.62-10.9,1.05-10.8-4,0,0,0-26.34.16-26.74H206.64a23.32,23.32,0,0,1-23.37-23.38V178.32a23.4,23.4,0,0,1,23.37-23.38Z"/><path id="path9721-0-1" class="cls-15" d="M480.61,450.65l-4.13-83.9-.08,0c-20.37,11-21.43,18.12-27.79,27.07-17.43,26.87-33.25,48.22-33.25,48.22L374,378.84c-.63.36-.66.33-1.41.76-2.94,1.7-6.68,3.9-10.37,6.1s-4.47,2.66-7.17,4.28c4.39,15.78,16.13,56.75,25.28,79.62,2.8,7,9.91,24.7,28.84,19.63,12.85-3.45,71.4-38.58,71.4-38.58Z"/><path id="rect7840" class="cls-4" d="M641,157.63H851a17.46,17.46,0,0,1,17.5,17.5V319.51A17.46,17.46,0,0,1,851,337H641a17.46,17.46,0,0,1-17.5-17.5V175.13A17.46,17.46,0,0,1,641,157.63Z"/><path id="path7616" class="cls-16" d="M626.29,370.58l-70.21-32.76-25.37,4.79-54.23,24.14v83.9l2,38.8c-7.36,15.94-5,31.74,6.34,32.74,45.56,8.77,89.1,5.27,132.35,0,8.2-4.84,6.51-22.86-4.61-31.83-.68-9.87,1.61-27.14,4.87-45.41Z"/><path id="path7614" class="cls-17" d="M626.29,370.58,617,443.14l6.79,40.15-75,11.88-1,23.45c26.23,1.34,99.26,4.69,112,1,15.43-4.52,9.27-99.08.81-117.67S633,373.69,633,373.69Z"/><path id="path7596" class="cls-18" d="M284.91,311a2.83,2.83,0,0,0-1.29.36c-1.94,1.1.38,3.82,6.11,10.14,2,2.27,4.94,5.21,7.77,8.12-7.73-3.4-5.88,8.55-.29,12.22-5.67-.58-1.73,12.9,3.85,14.5-4.07,4.46,9.72,11.49,17.69,12.88,5.67,4.49,25.22,10.43,34.19,13,.27.9,1.3,4.72,1.68,6.11.09.32.38,1.27.48,1.62,2.69-1.62,3.52-2.12,7.16-4.28s7.44-4.4,10.37-6.1c.75-.43.78-.4,1.41-.76l-1.25-1.9-7.92-13.24s-11.81-18.62-15.56-23.51S339,319.3,336.76,315.51s-6.46,2.65-5.32,8.24,2.41,10.88,2.41,10.88-20.07-8.64-22.39-10.29-20.67-10.44-24.17-12.66a4,4,0,0,0-2.38-.65Z"/><path id="path9739-2-3" class="cls-19" d="M565.07,284s-2.09,13.83-7.33,16.11S552.9,280.93,565.07,284Z"/><path id="path9743-8-1" class="cls-20" d="M556.93,294l6.75,47.84c-17.87,31.4-38.51,35.63-38.51,6.17l1.59-33.5Z"/><path id="path9745-8-2" class="cls-21" d="M548.94,299.45l-22.18,15.08-.59,12.35c5.83-.05,12.78-1.52,18.44-6.8C551.58,313.57,550.85,305.33,548.94,299.45Z"/><path id="path9753-2-72" class="cls-22" d="M512.86,249.2l.82,47.83s-.55,17,19.06,18.43,25.27-19,25.27-28.69-.43-25.21-.68-40.32S512.45,225,512.86,249.2Z"/><path id="path9755-2-8" class="cls-23" d="M518.85,270.72s-5,6.47-7.26,6.51-.6,6,3.93,5.6,6.89-15.78,3.33-12.11Z"/><path id="path14534" class="cls-24" d="M549.33,223.51q-1.77-.37-3.69-.6c-13.5-1.59-18.86-.87-25.09,3.5-1.58,1.07-4,1.75-4.13-.35-.38-6.6-4.3-6.08-7.6,5.53-3,10.42,2.85,30.53,4.54,29.51,0,0-.23-22.1,7.16-15.5,6.16,5.49,4.22.62,14-.78s22,4.84,15.32,13.71S556,281.28,556,281.28s5.36-.46,6-.86c.36-.24,5.09-5.11,4.58-14-.42-7.37,5.63-5,7-15.07.83-6-7.17-7.74-7.45-12.75-.45-7.91-6.73-13-16.84-15.07Z"/><path id="path9783-9-5" class="cls-25" d="M570.2,282.8c-2.39,5.59-7.8,8.64-12.08,6.82s-5.81-7.84-3.42-13.44,7.79-8.64,12.07-6.81S572.58,277.21,570.2,282.8Z"/><path id="path9785-7-29" class="cls-26" d="M559.16,283.5c0-.29-.59-5.2,1.75-7.66s5.62-.51,5.22.46-2.82,1-2.21,2.45,1,8-4.76,4.75Z"/><path id="path7584" class="cls-27" d="M516.62,374l19.24-5.69,33.52,9L535,464.26l-3.66.52Z"/><path id="path7704" class="cls-14" d="M538.31,380.58l.65,66.18-7.67,18-10.19-37,12.11-46.49Z"/><path id="path10224-7" class="cls-14" d="M535.86,368.33s23.67,14.86,28.31,13.06,12-33.74,12-33.74-3.77-10.31-7-14.95-7.58-2.58-7.58-2.58Z"/><path id="path10226-3" class="cls-14" d="M535.86,368.33s-8.48,6.13-11.1,7.68-8.62-24.49-7.17-32.48,8.12-6.8,8.12-6.8Z"/><path id="path10002-2" class="cls-28" d="M522.78,289.55c4.71,0,11.3,2.6,12.22,5.84s-3.28-1.36-7.57-1.69A4.78,4.78,0,0,1,522.78,289.55Z"/><path id="path10012-9" class="cls-29" d="M521.44,289.49a4.81,4.81,0,0,1-4.64,4.17,9.81,9.81,0,0,0-3.17.89l0-3.17a19.61,19.61,0,0,1,7.86-1.89Z"/><path id="rect13849" class="cls-3" d="M240.67,533.09H763.52A10.91,10.91,0,0,1,774.46,544v21.4a10.92,10.92,0,0,1-10.94,10.94H240.67a10.92,10.92,0,0,1-10.94-10.94V544A10.91,10.91,0,0,1,240.67,533.09Z"/><path id="path14404" class="cls-3" d="M405.47,493.11l.26.91.2,0,.19-.77Zm.46.95-6.76,27.19H530.48a30.91,30.91,0,0,0-6.17-7.91C517.07,506.43,438.7,500.24,405.93,494.06Z"/><path id="path13852" class="cls-4" d="M223.45,521.25H780.73a12.68,12.68,0,1,1,0,25.36H223.45a12.68,12.68,0,1,1,0-25.36Z"/><path id="path10160-3-3" class="cls-30" d="M340.76,370.19c5.13,1.53-.47-8.89-4.05-15.4s-2.85-20.16-2.85-20.16c-17.84,2.05-14.49,29.18,6.91,35.56Z"/><path id="rect14401" class="cls-4" d="M286.38,419.64H421.7c7.9,0,16.13,6.35,18.47,14.25l22.24,75.05c2.34,7.9-2.13,14.25-10,14.25H317.06c-7.89,0-16.13-6.35-18.46-14.25l-22.24-75.05c-2.34-7.9,2.13-14.25,10-14.25Z"/><g id="g14349"><path id="path10190-87" class="cls-31" d="M548.75,495.17l-15.55,2.47s-27.36-20.95-31.12-21.54a3.77,3.77,0,0,0-2.26.44c-4.59-2.65-8.48-4.68-10.51-5.27h0a1.53,1.53,0,0,0-1.78.59c-1.21,2-5.92,10.35-3.51,14a11.42,11.42,0,0,0,3.6,3.24c.58,6.29,2.27,14.77,5.38,16.95,6.86,4.83,42.69,12,42.69,12l12,.61Z"/><path id="path10208-2" class="cls-32" d="M487.62,489.06l3.47-10.84s-3.88,2.51-4.28,5a14.13,14.13,0,0,0,.8,5.79Z"/></g><path id="path14409" class="cls-14" d="M362,457.42a13.48,13.48,0,0,0-6.71,1.79,13.4,13.4,0,0,1,0,23.22,13.4,13.4,0,1,0,6.71-25Z"/><path id="rect14536" class="cls-4" d="M289.59,188.17a23.58,23.58,0,0,0-23.38,23.65v55.33c0,13,10.43,23,23.38,23.11l61.46.61c.67.39,34.15,30.34,34.15,30.34,4.85,3.57,10.89.93,10.8-4.12,0,0,0-26.34-.16-26.73l37.05-.43a23.66,23.66,0,0,0,23.38-23.65V211a23.08,23.08,0,0,0-23.38-23.11Z"/><g id="g14556"><path id="path14545" class="cls-14" d="M318.12,229.16a11.34,11.34,0,0,0,.1,22.68h0a11.34,11.34,0,0,0,11.34-11.34h0a11.34,11.34,0,0,0-11.34-11.34h-.1Z"/><path id="path14549" class="cls-14" d="M360.59,229.16a11.34,11.34,0,0,0,.11,22.68h0A11.34,11.34,0,0,0,372,240.5h0a11.34,11.34,0,0,0-11.34-11.34h-.11Z"/><path id="path14551" class="cls-14" d="M403.07,229.16a11.34,11.34,0,0,0,.1,22.68h0a11.34,11.34,0,0,0,11.35-11.34h0a11.34,11.34,0,0,0-11.35-11.34h-.1Z"/></g><g id="g13159"><path id="path13153" class="cls-4" d="M878.39,755.48a8.17,8.17,0,0,1,2.62.42c11.43,3.9,11.68,33.5.55,66.1h0c-.48,1.41-1,2.81-1.5,4.21,11.81-17.26,23.88-26,31.31-22.69,8.66,3.85,9.26,23.17,1.48,47.85,12.93,5.53,20,12.17,20.19,19H722.31c.15-5,4-10,11.33-14.5-2.2-11.9-.67-20.17,4.27-23,3.68-2.14,9.07-1.18,15.5,2.79.26-24.19,6.33-40.85,15.27-42,8.56-1.07,18.11,12.27,24.4,34.09l0-.33c2.76-34.34,14.75-61.39,26.8-60.42,10.18.81,17.39,21.61,17.37,50.1q1.31-4.62,2.87-9.22c10.2-29.86,26.61-52.36,38.24-52.38Z"/><path id="path13155" class="cls-3" d="M880.06,826.21a150.45,150.45,0,0,0-10.64,23.33L865.59,861s0-22.24,6-33.73S885,810.71,885,810.71c-1.65,7.74-3.3,10.5-5,15.5Z"/><path id="path13157" class="cls-3" d="M793.08,827.73s-2.05,15.61-1.5,23.09l.55,7.47s-5.11-15.86-6-27.71,1.2-18.78,1.2-18.78,4.91,10.71,5.77,15.93Z"/></g><path id="path7582" class="cls-33" d="M574.82,346.37,531.55,464.26,521.49,346.44l-12.89,6s-2.56,15.86-2.83,16.77-.36,4,3.37,6.65a51.9,51.9,0,0,1,6.11,5s-10.48,16.68-10.3,21.05,24.61,76,24.61,76l47.58-70.4a10.69,10.69,0,0,0,.73-11.48c-3.46-6.2-6.2-10.76-6.2-10.76s11.49-6,13.86-8.2-3.1-27.26-3.1-27.26Z"/><path id="path7624" class="cls-14" d="M355.1,390s-2,11.12,10.93,8.8,19.11-23.12,8-19.94A48.36,48.36,0,0,0,355.1,390Z"/><path id="path7626" class="cls-14" d="M548.75,495.17s-7.15,26.07,3.93,29.42S563.12,486.38,548.75,495.17Z"/><path id="path7667" class="cls-34" d="M253.41,846.6c-11.39-.2-6.92,19.13,2.65,19.13L356.3,864c0-2.94-1.07-5.49-.74-8.16h-67c-19.31,0-25.6-5-27.64-7.93a28.14,28.14,0,0,1-4.27-.81A13.78,13.78,0,0,0,253.41,846.6Z"/><path id="path7702" class="cls-14" d="M529,371.29s.92,13.67,6.39,14.4,12.21-11.67,12.76-13.13-12.29-4.23-12.29-4.23Z"/><path id="path7750" class="cls-35" d="M435.12,814.63l4.11,22c11.43,1.58,23.37,2.54,34.53,1.88l1.53-23.86Z"/><path id="path7758" class="cls-36" d="M446.89,821.27c-2.61,0-5.3,1.68-6.87,5.47-6.25,15-15.94,21.61-18.34,23-10.05,5.8-14,8-14.79,11-1,3.71,5.8,9.67,5.8,9.67h63.46s4.37.31,2.18-11.08S474,835.38,474,835.38s-7.57,1.5-13.4.41-5.74-4.16-6.84-8.28-3.93-6.22-6.89-6.24Z"/><path id="path7816" class="cls-37" d="M428.5,851.61c-3.17-.05-6.14,1.11-10.52,3.76-4.09,2.46-7,2.7-9.16,2.49a6.13,6.13,0,0,0-1.93,2.85c-1,3.71,5.8,9.67,5.8,9.67h63.46s4.37.31,2.18-11.08c-.12-.64-.23-1.28-.36-1.92-5.11.33-28.42,1.62-37.69-2.27C435.06,852.92,431.68,851.66,428.5,851.61Z"/><path id="path7829" class="cls-38" d="M407.49,864a25.84,25.84,0,0,0,5.2,6.38h63.46s2.55.17,2.77-4.84V864Z"/><path id="rect7843" class="cls-39" d="M723.85,241.55h11.42v73.7H723.85Z"/><path id="rect7845" class="cls-40" d="M756.18,275.17H767.6v40.08H756.18Z"/><path id="rect7847" class="cls-41" d="M788.5,257.47h11.42v57.78H788.5Z"/><path id="rect7849" class="cls-42" d="M691.53,275.17H703v40.08H691.53Z"/><path id="rect7851" class="cls-43" d="M820.82,227.64h11.42v87.61H820.82Z"/><path id="path7853" class="cls-14" d="M770.72,256.37a8.84,8.84,0,1,1-8.83-8.84A8.83,8.83,0,0,1,770.72,256.37Z"/><path id="path7857" class="cls-14" d="M699.7,251.56a9.7,9.7,0,1,1-9.7-9.7A9.7,9.7,0,0,1,699.7,251.56Z"/><path id="path7863" class="cls-14" d="M835.37,207.55a8.84,8.84,0,1,1-8.84-8.83A8.84,8.84,0,0,1,835.37,207.55Z"/><rect id="rect7865" class="cls-3" x="640.56" y="176.67" width="27.48" height="7.48"/><rect id="rect7867" class="cls-3" x="640.56" y="194.72" width="40.37" height="7.48"/><path id="path7871" class="cls-14" d="M738.88,207.21a9.7,9.7,0,1,1-9.69-9.69A9.69,9.69,0,0,1,738.88,207.21Z"/><path id="path7873" class="cls-14" d="M803,240.38a8.83,8.83,0,1,1-8.83-8.83A8.83,8.83,0,0,1,803,240.38Z"/><path id="path7879" class="cls-14" d="M823.81,202.71a3.79,3.79,0,0,0-2.71,1.22l-29.74,32.54L761.26,253l-29.08-47.73A3.74,3.74,0,0,0,727,204a4.14,4.14,0,0,0-.8.65s-9.79,10.57-19.66,21.28c-4.93,5.35-9.88,10.73-13.64,14.85-1.87,2.06-3.45,3.8-4.59,5.08-.57.63-1,1.15-1.37,1.55l-.44.53c-.13.16-.1-.11-.6.89a3.75,3.75,0,0,0,6.42,3.82v0l.29-.34c.28-.33.72-.83,1.27-1.45,1.11-1.23,2.68-3,4.55-5,3.74-4.1,8.68-9.47,13.61-14.82,8.17-8.87,13.74-14.88,16.28-17.62L756.72,260a3.74,3.74,0,0,0,5,1.33l33.78-18.56a4.08,4.08,0,0,0,1-.75l30.16-33a3.75,3.75,0,0,0-2.82-6.27Z"/></svg>