<svg xmlns="http://www.w3.org/2000/svg" width="380px" height="322px" viewBox="0 0 380 322"><defs><style>.a{fill:#fff;}.b{fill:azure;}.c{fill:#f7d3b5;}.d{fill:#1f2144;}.e{fill:#796a95;}.f{fill:#f5e3d5;}.g{fill:#fff2e1;}.h{fill:#58506d;}.i{fill:#684239;}.j{fill:#d8c2ad;}.k{fill:#382014;}.l{fill:#e96748;}.m{fill:#cadfd9;}.n{fill:#3e6a6b;}.o{fill:#9a8cc4;}.p{fill:#fffaf3;}.q{fill:#78add9;}.r{fill:#4c2c26;}.s{fill:#e0ccca;}.t{fill:#fda68a;}.u{fill:#f4a58c;}.v{fill:#3b3348;}.w{fill:#ce4e41;}.x{fill:#de6a5b;}.y{fill:#ffa994;}.z{fill:#6f5e68;}.aa{fill:#e08970;}.ab{fill:#a5b1c7;}.ac{fill:#627595;}.ad{fill:#f5dfd4;}.ae{fill:#995b45;}.af{fill:#473f4e;}.ag{fill:#d1beb6;}.ah{fill:#f2e7e1;}.ai{fill:#252030;}.aj{fill:#464056;}.ak{fill:#fed190;}.al{fill:#87524e;}.am{fill:#ba7261;}.an{fill:#fad3b0;}.ao{fill:#cc9e86;}.ap{fill:#e6bba8;}.aq{fill:#af8674;}.ar{fill:#cb8754;}</style></defs><rect class="a" x="0.26" width="379.74" height="322"/><path class="b" d="M50,103.51c26.67-40.93,93.7-74.33,124.13-76.79C236.72,21.65,324.89,5,342.46,52.16s11.3,183.66,9.73,193.31S35,248,33.4,249.27,23.36,144.44,50,103.51Z"/><rect class="c" x="69.08" y="54.15" width="61.91" height="187.46"/><rect class="c" x="135.37" y="54.54" width="63.06" height="187.47"/><path class="c" d="M329.05,56V243.46H268.78V56Z"/><rect class="c" x="202.61" y="55.2" width="61.77" height="187.47"/><rect class="c" x="69.45" y="11.72" width="259.97" height="37.64"/><rect class="d" x="148.53" y="217.87" width="4.59" height="24.13"/><path class="d" d="M149.68,241.72a2.71,2.71,0,0,1,0,.29h-4.79a2.71,2.71,0,0,1,0-.29c0-4.63,1.08-8.38,2.41-8.38.46,0,.88.45,1.25,1.23A18.66,18.66,0,0,1,149.68,241.72Z"/><path class="d" d="M156.35,242h-4.8c0-4.59,1.08-8.28,2.4-8.28S156.34,237.42,156.35,242Z"/><path class="e" d="M178.09,172.69l20.34,1.14v21.95c-6.05.06-11.58.09-16.33.09-8.2,0-14.06-.08-16.2-.24-6.54-.5-13.2-7.64-15.85-14.06-.21-.52-.4-1-.56-1.54a12.65,12.65,0,0,1-.63-3.51v-.06a7.47,7.47,0,0,1,.14-1.52,4.31,4.31,0,0,1,3.62-3.49c.13,0,.94,0,2.36.05.3,0,.63,0,1,0l1.17.06,2.49.12,7.46.38Z"/><path class="e" d="M202.61,174.23c20.35,1.2,43.23,2.57,61.77,3.71v16c-19.08.89-42.34,1.46-61.77,1.72Z"/><path class="e" d="M295.15,190.32c-2.38,1.29-12.58,2.33-26.37,3.15V178.52c10.41.66,18.62,1.19,22.93,1.48C313.32,181.48,303.93,185.6,295.15,190.32Z"/><path class="e" d="M131,169.89v23.32c-2.16.08-5.57.13-9.92.14-12.22.05-31.83-.15-52-.63v-19.3c21-1.23,42.08-2.45,56.84-3.25Z"/><path class="e" d="M144.17,164.29C145,144.67,146,87,148.92,90.77s6.39,88.48,6.39,88.48c-6,3.86-11.34,3.08-11.14,0S144.17,164.29,144.17,164.29Z"/><path class="e" d="M151.44,155.74c9.55-.66,35.76-5.61,34.12-.77s-36.7,22.75-36.7,21.53S151.44,155.74,151.44,155.74Z"/><path class="e" d="M131,153.67v12.9c-.82-.46-1.63-.94-2.43-1.42-7-4.11-13-8.22-13.67-10.18C114,152.18,122.12,152.64,131,153.67Z"/><path class="e" d="M128.56,165.15q1.16-1.91,2.43-3.63v59.66a9.83,9.83,0,0,1-1.08-1.16,39,39,0,0,1-4.3-6.91,46.18,46.18,0,0,1-4.54-19.76,54.48,54.48,0,0,1,1.59-13.75,51.35,51.35,0,0,1,3.26-9.43A48.62,48.62,0,0,1,128.56,165.15Z"/><path class="e" d="M182.1,195.87c-.16,5.78-.89,12-2.88,17.24-1.89,4.95-4.94,9-9.71,10.79-2.12.79-8.79,2-16.39,2.36-1.5.08-3,.11-4.59.11A56.49,56.49,0,0,1,135.37,225V170.93c-.1-.06,0-17.54,0-17.54a29.5,29.5,0,0,1,9.34-4.84,19.37,19.37,0,0,1,9.12-.57,16.17,16.17,0,0,1,3.55,1.09,29.93,29.93,0,0,1,7.73,5.08,48.64,48.64,0,0,1,8.36,9.93,59.78,59.78,0,0,1,4.62,8.61A43.51,43.51,0,0,1,182,187.18C182.1,189.78,182.18,192.76,182.1,195.87Z"/><path class="f" d="M167.7,181.38c-3.5-.53-7.71-.95-12.1-1.18l-1.17,0c-.2,0-.41,0-.62,0h0c-1.43-.07-2.87-.09-4.31-.1-1.65,0-3.29,0-4.9.1h-.3c-.34,0-.67,0-1,.06h0a57.48,57.48,0,0,0-7.92,1V170.52s1-.75,1.47-1.11a29.4,29.4,0,0,1,3-1.85c.35-.19.7-.36,1.07-.53a26.08,26.08,0,0,1,3.23-1.26,20.38,20.38,0,0,1,2.11-.55,21.55,21.55,0,0,1,4-.49,20.47,20.47,0,0,1,4.32.31h.09a23.73,23.73,0,0,1,2.35.56q.57.16,1.11.36a21.14,21.14,0,0,1,6.08,3.32,19.11,19.11,0,0,1,2.87,2.8h0C171,176.8,171.28,181.91,167.7,181.38Z"/><polygon class="e" points="145.11 182.44 144.03 182.94 139.01 164.29 140.09 163.79 145.11 182.44"/><path class="g" d="M69.08,207c3.18-2.7,33.48-22.69,61.91-41.3v16.08L69.08,241.61l-.28-34.35A1.41,1.41,0,0,1,69.08,207Z"/><path class="g" d="M182.11,132.35l-46.74,45.18v-14.7C159.6,147,181.35,132.85,182.11,132.35Z"/><polygon class="e" points="155.07 183.16 153.95 182.82 157.4 163.56 158.51 163.91 155.07 183.16"/><path class="h" d="M125.61,213.11a15,15,0,0,0,5.38-1.45v9.52a9.83,9.83,0,0,1-1.08-1.16A39,39,0,0,1,125.61,213.11Z"/><path class="h" d="M179.22,213.11c-1.89,4.95-4.94,9-9.71,10.79-2.12.79-8.79,2-16.39,2.36-1.5.08-3,.11-4.59.11A56.49,56.49,0,0,1,135.37,225V207.94c4.95-2.31,10.39-4.55,15.46-4.69C163.94,202.9,169.28,213.07,179.22,213.11Z"/><path class="i" d="M352.81,244.28a374.33,374.33,0,0,1-33.62,32.82l-1.2,1c-2.75,2.36-5.62,4.73-8.57,7.06-1.08.85-2.17,1.71-3.28,2.56-22,16.9-48,31.48-69.11,27.76-.57-.09-1.16-.2-1.73-.35a32.91,32.91,0,0,1-11.52-5c-9.83-6.74-24.11-10.37-40.67-12.09-.79-.11-1.57-.18-2.37-.25-31.17-2.91-69.85.5-102.05,2.44-5.9.35-11.58.66-17,.86l-3.66.12c-18.46.55-32.9-.25-39.55-4.52-5.83-3.74-8.46-8.6-9-13.89,0-.29,0-.58-.08-.88-.92-17.25,19.69-38.46,24.32-39.71L150.7,243l3.94,0,81.92.54h3.55l78.36.52,3.31,0Z"/><path class="j" d="M301.26,288.58c2.72-1.13,5.45-2.26,8.16-3.4-1.08.85-2.17,1.71-3.28,2.56q-4.8,2-9.63,4-19.53,8-39.14,15.82-9.78,3.84-19.55,7.66l-.79.3c-.57-.09-1.16-.2-1.73-.35,8.88-3.5,17.78-7,26.65-10.55Q281.63,296.68,301.26,288.58Z"/><path class="j" d="M314.78,276.39l4.41.71-1.2,1-4.71-.78c-9.5-1.55-19-2.92-28.59-4.17-4.7-.59-9.41-1.16-14.1-1.69-4.28-.5-8.56-.9-12.82-1.47q-16.45,6.44-33,12.68l.22,0c.2.06.14.39-.05.4a14.41,14.41,0,0,1-1.48.06l-.34.13q-20,7.5-40,14.72c-.79-.11-1.57-.18-2.37-.25l3.24-1.17q18.28-6.67,36.51-13.59l-.48,0-5-.38c-3.25-.26-6.5-.5-9.76-.75l-34.87-2.71-17.51-1.36c-5.31-.42-10.74-1.14-16-.42l-3.43,1.12q-26.85,8.58-53.76,17l-17.94,5.63-3.66.12q14.13-4.4,28.24-8.82,26.88-8.49,53.71-17.16,24.93-8,49.82-16.21a39.1,39.1,0,0,1-6,.7c-2.15.17-4.31.3-6.47.42-4.27.23-8.54.36-12.8.42-15.45.26-30.9-.32-46.35-.12-7.67.12-15.33.44-23,1.15q-5.74.54-11.47,1.37c-1.77.28-3.54.61-5.3.94-6,1.65-12,3.31-18,4.94q-19.59,5.39-39.2,10.76L9.54,282.8c0-.29,0-.58-.08-.88,8.31-2.33,16.63-4.59,24.95-6.88Q53,269.91,71.55,264.79t37.15-10.24L146,244.25,150.7,243l3.94,0c-5.13,1.41-10.27,2.78-15.4,4.19Q119.56,252.61,99.87,258q-7.52,2.08-15.05,4.14H85c4.23-.65,8.45-1.13,12.69-1.49,15.38-1.32,30.82-1.12,46.22-1,7.7.08,15.4.13,23.1,0,3.88-.09,7.74-.22,11.61-.43,1.9-.12,3.8-.24,5.71-.39a46.19,46.19,0,0,1,5.86-.35c.17,0,.24.26.13.39,1.14-.38,2.26-.74,3.39-1.1q21.48-7.06,42.9-14.25h3.55q-26.48,8.86-53,17.55-24.24,7.95-48.53,15.75c5.31-.74,10.78,0,16.06.42,11.78.85,23.56,1.75,35.34,2.62l17.67,1.31,8.83.66c2,.14,4,.2,6,.43l5.89-2.22q22.14-8.46,44.19-17.26t44.18-18l1.75-.73,3.31,0-10.39,4.36q-21.94,9.12-44,17.82c-2.92,1.16-5.86,2.29-8.79,3.44,4.62.24,9.23.72,13.84,1.2q14.26,1.46,28.47,3.43Q307.84,275.31,314.78,276.39Z"/><polygon class="g" points="229.57 11.72 182.13 49.36 207.28 49.36 303.77 11.72 229.57 11.72"/><path class="g" d="M176.51,54.54s-35.38,26.46-34.45,26l56.37-26Z"/><path class="g" d="M236.57,97.5c1.18-.88,13-9.88,27.81-21.2V88.16C250.82,92.56,237.86,96.84,236.57,97.5Z"/><path class="g" d="M291,56h38.07V79.51L284.34,97.57l12.29-19.84s-13.59,4.36-27.85,9V73Z"/><polygon class="g" points="329.46 29.27 329.26 49.36 299.65 49.36 329.46 29.27"/><polygon class="g" points="177.02 242.01 198.43 226.57 198.43 242.01 177.02 242.01"/><path class="g" d="M202.61,223.56,264.38,179v32.53c-15.82,16.47-28.66,29.83-29.95,31.16l-.11.12-16.26-.12-15.45-.12Z"/><path class="g" d="M329.05,132.34v11.53c0,.24-33.19,34.84-60.27,63.06V175.81Z"/><path class="k" d="M317.64,151.47c5.72,7.4,9.54,16.85,11.82,26.7,2.54,11,3.19,22.5,3,33.9-.06,3.42-.19,6.83-.37,10.25-.09,1.7-.19,3.41-.29,5.11a45.05,45.05,0,0,1-.43,4.95c0,.22-.29.16-.3,0-.05-1.49.12-3,.22-4.49l.27-4.5c.16-3,.3-6,.38-9,.16-6,.1-12-.32-18a102.93,102.93,0,0,0-6.41-30.45,64.76,64.76,0,0,0-7.68-14.26C317.45,151.52,317.57,151.38,317.64,151.47Z"/><path class="k" d="M319.34,179.28c.46.72,1,1.38,1.4,2.12s.83,1.54,1.22,2.33q1.19,2.42,2.16,5a82.69,82.69,0,0,1,3.16,10.35c.89,3.77,1.53,7.62,2.08,11.5.59,4.18,1,8.38,1.22,12.62.12,2.38.2,4.77.26,7.16s0,4.84,0,7.27c0,.36-.42.35-.44,0-.15-2.12-.32-4.23-.4-6.35s-.17-4.23-.27-6.34c-.19-4.18-.42-8.38-.8-12.53a90,90,0,0,0-4.71-22.16q-1-2.83-2.27-5.51c-.41-.88-.84-1.75-1.29-2.6s-.89-1.85-1.39-2.72C319.17,179.31,319.29,179.2,319.34,179.28Z"/><path class="k" d="M333.37,230.37c.1-.57.2-1.15.32-1.72.22-1.08.47-2.15.74-3.21l.24-.88c0-1.07,0-2.14,0-3.2a89.59,89.59,0,0,1,.93-11.48,134.52,134.52,0,0,1,5.24-22.3q1-3,2.17-5.9a35.46,35.46,0,0,1,2.65-5.51c0-.07.1,0,.08.08-.6,1.77-1.35,3.47-2,5.2s-1.34,3.46-1.95,5.23c-1.2,3.51-2.24,7.11-3.1,10.77a123.79,123.79,0,0,0-2.89,22.72c0,.32,0,.65,0,1,.24-.63.48-1.25.75-1.86a22.88,22.88,0,0,1,6.47-8.85,11,11,0,0,1,2.27-1.42,7.37,7.37,0,0,1,2.56-.57c.11,0,.13.21,0,.25a21.57,21.57,0,0,0-4.05,2.36,17.28,17.28,0,0,0-3.49,3.5,31.2,31.2,0,0,0-4.6,9.34c0,.9,0,1.79,0,2.68,0,1.07,0,2.14,0,3.21,0,.55,0,1.1,0,1.65a5.93,5.93,0,0,1,0,.73,2.77,2.77,0,0,1-.22.63c0,.12-.17.09-.22,0a2.78,2.78,0,0,1-.28-.51,3.62,3.62,0,0,1-.07-.67c-.05-.48-.08-1-.12-1.46-.06-1-.11-1.91-.15-2.87-.09.38-.19.76-.29,1.14l-.42,1.78c-.07.29-.12.61-.21.89s-.26.42-.36.66c0,.06-.08,0-.08,0,0-.22-.07-.41-.08-.63A3,3,0,0,1,333.37,230.37Z"/><path class="l" d="M324.29,250.82c4.78,2.85,9.85,2.57,15.13,0a31.56,31.56,0,0,0,0-23H324.29A35.9,35.9,0,0,0,324.29,250.82Z"/><path class="m" d="M304.45,138.1l.09.25a41.33,41.33,0,0,0,2.62,6.07l.12.25a59.14,59.14,0,0,0,3.23,5.4.21.21,0,0,0,0,.06c.06.09.11.18.17.26a57.54,57.54,0,0,0,3.74,4.93l.27.3c3.66,4.2,7,6.49,8.75,5.7a.65.65,0,0,0,.17-.08,3.15,3.15,0,0,0,.3-.24c1.16-1.23.69-4.56-1-8.72,0-.09-.07-.2-.11-.29a53.24,53.24,0,0,0-4-7.73l-.16-.24c-.31-.51-.64-1-1-1.54-.74-1.11-1.5-2.17-2.25-3.15-.06-.07-.1-.13-.16-.19a40.18,40.18,0,0,0-4.68-5.16,1.07,1.07,0,0,0-.16-.14c-2.77-2.47-5.09-3.44-6.18-2.28a1.28,1.28,0,0,0-.2.26,1,1,0,0,0-.1.17C303.36,133.15,303.58,135.35,304.45,138.1Z"/><path class="k" d="M309.49,140c-1.69-.64-3.37-1.28-5-1.94l.09.25c1.71.68,3.42,1.33,5.14,2,1.31,1.94,2.62,3.87,3.91,5.82l-3.56-1c-.64-.16-1.27-.33-1.9-.51l-1-.26.12.25h0l2.13.57,4.31,1.16c1.07,1.63,2.15,3.24,3.22,4.88-1.24-.19-2.47-.38-3.69-.61-.67-.11-1.33-.25-2-.38a6.91,6.91,0,0,1-.76-.17c.06.09.11.18.17.26l.24.05,2.12.42q2,.38,4.05.66c1.24,1.9,2.48,3.78,3.71,5.68q-3.19-.85-6.38-1.88l.27.3q3.12,1,6.27,1.84,1.25,1.92,2.48,3.86l.19.31c.07.11.19,0,.12-.15s-.1-.16-.14-.24l-2.41-3.74a.07.07,0,0,0,0-.05h0a46.22,46.22,0,0,0,1.67-5.15c0-.09-.07-.2-.11-.29a40.93,40.93,0,0,1-1.7,5.3l-.07,0c-.53-.83-1-1.66-1.58-2.47-.66-1-1.34-2-2-3.05,0,0,0,0,0,0a34.19,34.19,0,0,0,1.33-7.46l-.16-.24a33.22,33.22,0,0,1-1.25,7.38.07.07,0,0,0-.06,0l-.16,0q-1.59-2.45-3.19-4.86a.1.1,0,0,0,.05-.07,33.38,33.38,0,0,0,1.37-7.07c-.06-.07-.1-.13-.16-.19a32.66,32.66,0,0,1-1.34,7.13l-.05,0h0c-1.29-1.93-2.58-3.87-3.89-5.79l0,0a60,60,0,0,0,.62-6.43,1.07,1.07,0,0,0-.16-.14,55.75,55.75,0,0,1-.6,6.34h0l0,0c-1.9-2.79-3.79-5.57-5.72-8.33a1,1,0,0,0-.1.17q2.14,3.07,4.26,6.18Z"/><path class="m" d="M356.77,197.56l-.15,0a19.28,19.28,0,0,0-3.75,1.61l-.15.08a33,33,0,0,0-3.44,2.22l0,0-.17.12a37.63,37.63,0,0,0-3.23,2.73l-.2.2c-2.8,2.74-4.49,5.47-4.23,7.06a.45.45,0,0,0,0,.16,1.42,1.42,0,0,0,.1.29c.56,1.17,2.5,1.14,5.06.14a.49.49,0,0,0,.17-.06,26.62,26.62,0,0,0,4.85-2.64.72.72,0,0,0,.15-.11c.33-.21.66-.45,1-.69.71-.53,1.4-1.07,2-1.63l.13-.11a27.12,27.12,0,0,0,3.46-3.53l.1-.12c1.71-2.16,2.53-4.1,2-5.2a1.32,1.32,0,0,0-.12-.2l-.09-.11C359.7,197.17,358.43,197.1,356.77,197.56Z"/><path class="k" d="M355.09,201.77c.56-1.41,1.11-2.82,1.68-4.21l-.15,0q-.87,2.15-1.71,4.31c-1.25.93-2.5,1.86-3.75,2.77.31-1,.63-2,.95-3,.16-.54.33-1.08.5-1.61.09-.28.18-.56.26-.83l-.15.08a.06.06,0,0,0,0,0l-.57,1.81c-.38,1.22-.77,2.44-1.15,3.66l-3.14,2.28c.25-1.07.5-2.13.77-3.19.14-.57.29-1.14.44-1.7.06-.21.11-.44.19-.65l-.17.12-.06.21-.48,1.82c-.29,1.16-.57,2.33-.84,3.5-1.21.87-2.42,1.75-3.64,2.61q.85-2.73,1.79-5.41l-.2.2q-.91,2.64-1.76,5.32l-2.47,1.74-.2.14c-.07,0,0,.17.08.12l.15-.1,2.39-1.69s0,0,0,0h0a0,0,0,0,1,0,0,21.24,21.24,0,0,0,2.73,2.06.49.49,0,0,0,.17-.06,19.83,19.83,0,0,1-2.81-2.11.14.14,0,0,0,0-.06c.53-.37,1.06-.73,1.58-1.11s1.31-1,2-1.41h0a14.19,14.19,0,0,0,4.08,2,.72.72,0,0,0,.15-.11,14.24,14.24,0,0,1-4-2,0,0,0,0,0,0-.05l0-.13,3.13-2.26a.07.07,0,0,0,0,.06,14.36,14.36,0,0,0,3.85,2l.13-.11a14.16,14.16,0,0,1-3.89-2s0,0,0,0,0,0,0,0c1.25-.91,2.5-1.82,3.74-2.75h0a23.51,23.51,0,0,0,3.57,1.3l.1-.12a24,24,0,0,1-3.53-1.27h0a.08.08,0,0,0,0,0c1.8-1.34,3.6-2.69,5.39-4.07l-.09-.11-4,3C355.9,201.18,355.49,201.47,355.09,201.77Z"/><path class="n" d="M304,164.59a2.29,2.29,0,0,1,.08.28,47.37,47.37,0,0,0,2.67,7c0,.1.09.19.13.29,1,2.05,2.1,4.19,3.38,6.35a3.21,3.21,0,0,0,.19.31,1.19,1.19,0,0,0,.09.15,66.06,66.06,0,0,0,3.78,5.62c.09.12.18.25.28.36,4.33,5.69,8.44,8.87,10.29,7.68l.13-.1a.31.31,0,0,0,.11-.09c1.29-1.23.89-4.88-.78-9.56a2.83,2.83,0,0,0-.11-.31,62.35,62.35,0,0,0-4.06-8.78l-.14-.26c-.44-.77-.89-1.56-1.36-2.34-.7-1.15-1.41-2.24-2.11-3.28-.06-.08-.1-.16-.16-.24a52.76,52.76,0,0,0-5-6.28l-.18-.17c-3.11-3.22-5.77-4.69-7.08-3.56l-.07.05a1.15,1.15,0,0,0-.08.1C303.07,158.87,303.13,161.32,304,164.59Z"/><path class="k" d="M309.85,167.29q-2.93-1.32-5.84-2.7a2.29,2.29,0,0,1,.08.28q3,1.42,6,2.77c1.38,2.27,2.76,4.54,4.13,6.83l-4-1.38-2.15-.74-1.11-.39-.17-.05c0,.1.09.19.13.29l.23.08,2.4.83,4.87,1.67,3.4,5.73c-1.4-.31-2.8-.64-4.19-1-.75-.19-1.49-.4-2.24-.61a7.6,7.6,0,0,1-1.09-.34,3.21,3.21,0,0,0,.19.31l.5.16c.8.22,1.6.45,2.41.66q2.28.6,4.59,1.11c1.31,2.22,2.62,4.43,3.92,6.65-2.53-.87-5.05-1.8-7.55-2.81.09.12.18.25.28.36,2.46,1,4.94,1.9,7.44,2.76.94,1.63,1.89,3.26,2.82,4.89t0,0c.05.05.13,0,.13-.1a.15.15,0,0,0,0-.09q-1.33-2.34-2.69-4.66a.08.08,0,0,0,.05,0h0v0c.69-1.57,1.43-3.16,2-4.82a2.83,2.83,0,0,0-.11-.31,50.1,50.1,0,0,1-2,5l-.08,0c-.56-1-1.11-1.93-1.67-2.9-.7-1.2-1.42-2.38-2.12-3.58l0,0a35.66,35.66,0,0,0,1.8-7.22l-.14-.26a35.94,35.94,0,0,1-1.74,7.1s0,0-.06,0l-.18,0c-1.13-1.91-2.25-3.82-3.38-5.71a.12.12,0,0,0,.06-.06,35.39,35.39,0,0,0,1.83-6.86c-.06-.08-.1-.16-.16-.24a35.93,35.93,0,0,1-1.81,6.94.1.1,0,0,0-.06-.05l0,0c-1.37-2.27-2.73-4.54-4.12-6.81l0,0q.64-3.12,1-6.32l-.18-.17c-.22,2.1-.55,4.18-1,6.23h0l-.06,0c-2-3.27-4-6.51-6-9.75l-.07.05a1.15,1.15,0,0,0-.08.1c1.52,2.4,3,4.82,4.52,7.26Z"/><path class="n" d="M352.41,154.89l-.18.21a41.52,41.52,0,0,0-4.06,5.89,2.34,2.34,0,0,1-.15.27,71.6,71.6,0,0,0-3.26,6.45,3.54,3.54,0,0,0-.16.34s-.05.1-.07.16c-1,2.25-1.86,4.48-2.57,6.61-.06.15-.11.31-.16.47-2.4,7.27-3.06,13.27-1.45,14.92a.69.69,0,0,0,.13.11l.1.09c1.42,1,3.92-.94,6.66-4.75l.18-.24a59.5,59.5,0,0,0,4.76-8.2c.05-.09.09-.18.14-.28.39-.81.78-1.65,1.16-2.51.55-1.26,1.06-2.51,1.54-3.74,0-.09.07-.18.11-.27a67.06,67.06,0,0,0,2.56-8.29l.06-.27c1.09-4.87,1.09-8.52-.26-9.57l-.07-.06a.31.31,0,0,0-.1,0C356.2,151.5,354.43,152.56,352.41,154.89Z"/><path class="k" d="M352.75,162.67c-.15-2.61-.29-5.2-.41-7.8l-.18.2c.12,2.66.26,5.33.43,8-1.09,2.51-2.18,5-3.29,7.53l-.63-5.17c-.11-.92-.22-1.84-.34-2.75-.05-.49-.11-1-.17-1.44,0-.05,0-.12,0-.22-.05.09-.1.18-.16.27s0,.2,0,.3c.13,1,.26,2.06.38,3.08q.39,3.14.76,6.27c-.92,2.08-1.84,4.17-2.77,6.24q-.53-2.59-1-5.22c-.16-.93-.31-1.87-.47-2.81a12.57,12.57,0,0,1-.19-1.39,3.49,3.49,0,0,0-.15.34c0,.22.05.42.09.63.16,1,.32,2,.5,3q.49,2.87,1.06,5.72c-1.08,2.4-2.15,4.81-3.24,7.2q-.6-4.87-1-9.8l-.15.47c.29,3.22.64,6.44,1,9.66l-2.4,5.23s0,0,0,0a.09.09,0,0,0,.13.11l.05,0c.77-1.67,1.53-3.33,2.29-5a.05.05,0,0,0,.06,0h0a31.25,31.25,0,0,0,4.32.29,2.07,2.07,0,0,0,.17-.24,30,30,0,0,1-4.43-.28v-.1c.47-1,.95-2.07,1.43-3.11.58-1.29,1.15-2.59,1.73-3.89,0,0,0,0,0,0a19,19,0,0,0,6-.87l.14-.27a19.65,19.65,0,0,1-5.88.9.11.11,0,0,0,0-.1,1.55,1.55,0,0,0,0-.21c.93-2.07,1.86-4.14,2.77-6.21,0,0,0,0,.07,0a19.13,19.13,0,0,0,5.73-.71c0-.09.08-.18.11-.27a19.21,19.21,0,0,1-5.78.75.24.24,0,0,0,0-.08s0,0,0-.06c1.09-2.49,2.19-5,3.27-7.5,0,0,0,0,0,0a36.26,36.26,0,0,0,5-1.42,2.16,2.16,0,0,0,.05-.27,34.83,34.83,0,0,1-4.92,1.42s0,0,0,0v-.08q2.36-5.42,4.63-10.89l-.06-.06-.1,0c-1.14,2.72-2.28,5.43-3.44,8.13C353.46,161.06,353.1,161.86,352.75,162.67Z"/><path class="g" d="M69.39,54.15h20.1C79.57,67.26,70.73,78.78,69.08,80.42c-.19.19-.29.26-.28.17.09-.64.19-4.07.28-8.44C69.21,66.36,69.32,58.92,69.39,54.15Z"/><path class="g" d="M118.62,17.15c-.81.59-25.5,32.21-25.5,32.21H69.45S116.9,18,118.62,17.15Z"/><polygon class="o" points="242.45 194.81 264.38 193.97 264.38 178.98 242.45 194.81"/><polygon class="o" points="283.06 192.04 294.4 180.21 268.78 178.52 268.78 193.47 283.06 192.04"/><path class="o" d="M89.49,193c-.14.09,29.39.45,29.39.45L131,181.77V165.69l-4.18,2.65-.89,1.83-1.92.1Z"/><path class="o" d="M156.65,148.93c.53-.26,5.65,2.7,5.41,2.8l-13.43,13s-5.28.59-8.74,2.84a16.83,16.83,0,0,0-4.56,3.88l0-8.61Z"/><path class="p" d="M135.33,171.44l0,6.09,13.26-12.81a20.48,20.48,0,0,0-8.14,2.23A19,19,0,0,0,135.33,171.44Z"/><polygon class="q" points="141.09 172.01 142.06 171.07 140.69 166.03 139.7 166.87 141.09 172.01"/><path class="g" d="M135,39l.05.3-.12.24-.19.11-.22,0h-.23l-.39,0-.26,0h-.76l-1,.08-.22-.08-.1-.18-.08-.23-.53-1.82-.11-.21-.16,0-.2,0-1-.08h-.27l-1.26,0-1,0h-.25l-.26,0h-.78l-.22,0-.13.11-.1.25-.39,1.47-.1.35-.19.28-.25.13-.27,0-1-.06h-.27l-1,.09-.22,0-.21-.13-.13-.24V39l0-.17.1-.35.24-.67.1-.32.42-1.21.1-.3.44-1.21.1-.32L123,33.3l.1-.33.46-1.21.1-.3.61-1.77.48-1.29.11-.34.38-1,.11-.34.33-1,.1-.33.3-.88.09-.24.17-.13.25-.06.78,0h1.32l.78,0,.28.06.19.17.08.28.24.85.1.32.43,1,.1.3.37,1.06.1.3.3,1.1.11.31.37,1,.1.3.37,1.06.1.3.34,1.08.1.3.53,1.34.4,1,.12.3.46,1.36Zm-5.65-6.08-.07-.28L129,31.18l-.09-.32-.34-1.27-.08-.28-.17-.15-.22-.07-.19.07-.16.21-.46,1.47-.1.32-.44,1.45,0,.32,0,.26.18.11.24,0h1.07l.79.06.22-.08.14-.18Z"/><path class="g" d="M146.68,24.41l-.05.28,0,.2-.11.34-.23.58-.12.33-.31,1.2-.11.33-.44,1.14-.12.32-.31,1.19-.1.34-.35,1.17-.11.34-.37,1.17-.12.32-.45,1.15-.12.32-.37,1.16-.11.35-.4,1.12-.1.34-.39,1.17-.07.24-.1.08-.2,0-1.24,0-.27,0-1,.11-.28,0-.22,0-.12-.15-.1-.26-.38-1.14-.1-.33-.44-1.18-.1-.33-.37-1.14-.1-.34-.31-1.19-.1-.34L136,32.15l-.1-.32-.44-1.19-.1-.32L135,29.16l-.12-.35-.4-1.12-.1-.35-.31-1.2-.1-.33-.3-.62-.1-.33-.06-.19,0-.28.05-.19.12-.13.19-.07.1,0h.25L135,24l.81,0,1.09.09.22,0,.13,0,.1.18.07.21.07.3.17.72.08.34L138.1,27l.1.35.34,1.14.1.34.34,1.36.1.35.37,1.34.43,1.72.08.24.12.08.15-.08.1-.24.41-1.34.08-.34.27-1.4.09-.35.47-1.29.09-.35.28-1.18.09-.33.42-1.14.09-.32.17-.8.1-.37.13-.28.12-.08.2-.05h.12l.27,0,.43,0h1.08L146,24l.3,0,.2.07.11.13Z"/><path class="g" d="M151.63,36.23v.34l-.06,1.17v.34l0,1.19v.24l-.05.13-.14,0-.23,0-.87,0h-1l-.84-.09-.1,0-.05-.07v-.21l0-.54v-.35l0-.32v-.32l0-1.17,0-.34.05-1.17,0-.34,0-1.19v-.34l0-1.17V30.17l0-1.19v-.34l0-1.17V25.62l0-1.19.05-.23.1-.09.17,0h.13l.26,0,.4,0h.27l.78-.05h1.05l.19.05,0,.13,0,.23,0,.56,0,.35v2.11l0,1.17V29l0,1.19v.34l0,1.17V32l0,1.17v1.87Z"/><path class="g" d="M167.23,39l.05.3-.12.24-.18.11-.22,0h-.24l-.39,0-.25,0h-.76l-1.05.09-.22-.11-.1-.15-.09-.24-.52-1.81-.12-.21-.15,0-.21,0-1-.08h-.27L160.11,37l-1,0h-.25l-.25,0h-.78l-.22.05-.14.1-.1.26L157,38.86l-.1.34-.19.28-.25.11h-.27l-1-.06h-.27l-1.05.08-.22,0-.2-.13-.14-.24,0-.28,0-.17.1-.35.24-.67.1-.32.42-1.21.11-.3.44-1.21.1-.32.39-1.17.1-.32.45-1.21.11-.3.6-1.77.48-1.29.12-.35.37-1,.12-.34.32-1,.1-.33.31-.88.08-.24.17-.13.25-.06.78-.05h1.32l.78,0,.29.06.18.17.09.28.23.84.11.33.42,1,.1.3.37,1.06.1.3.31,1.1.1.3.37,1,.1.3.38,1.06.1.3.34,1.08.1.3.52,1.34.41,1,.12.3.45,1.36Zm-5.65-6.08-.07-.28-.37-1.47-.08-.32-.34-1.28-.09-.28-.17-.15-.22-.06-.18.06-.17.22-.46,1.47-.1.32-.44,1.44,0,.33,0,.26.19.1.23,0h1.07l.79.06.22-.08.14-.18Z"/><path class="k" d="M55.14,152.29c-5.94,7.25-9.9,16.5-12.27,26.14-2.64,10.76-3.32,22-3.11,33.2q.09,5,.38,10c.09,1.67.2,3.34.31,5a41.22,41.22,0,0,0,.44,4.85c0,.21.3.15.31-.05a40.39,40.39,0,0,0-.22-4.4c-.1-1.47-.2-2.94-.28-4.41-.17-2.94-.31-5.88-.4-8.83a172.63,172.63,0,0,1,.33-17.62,95.91,95.91,0,0,1,6.65-29.81,63,63,0,0,1,8-14C55.34,152.34,55.22,152.2,55.14,152.29Z"/><path class="k" d="M53.37,179.53c-.48.7-1,1.34-1.45,2.07s-.86,1.51-1.27,2.28c-.82,1.58-1.56,3.21-2.24,4.87a77.4,77.4,0,0,0-3.28,10.14c-.93,3.7-1.59,7.47-2.16,11.26-.62,4.1-1,8.21-1.27,12.36-.13,2.34-.21,4.68-.27,7s0,4.74.06,7.12c0,.35.43.34.45,0,.15-2.08.33-4.14.42-6.22s.17-4.15.28-6.22c.2-4.09.43-8.2.83-12.27a84.09,84.09,0,0,1,4.89-21.69c.71-1.85,1.49-3.65,2.36-5.4.42-.87.87-1.71,1.34-2.54s.92-1.81,1.44-2.67C53.55,179.56,53.43,179.44,53.37,179.53Z"/><path class="k" d="M38.81,229.56c-.11-.57-.21-1.13-.34-1.69-.23-1.06-.48-2.11-.77-3.14-.08-.29-.17-.58-.25-.86,0-1.05,0-2.1,0-3.14a82.61,82.61,0,0,0-1-11.24A126.16,126.16,0,0,0,31,187.65q-1.05-2.93-2.26-5.78a33.82,33.82,0,0,0-2.75-5.4c0-.06-.1,0-.08.08.62,1.74,1.4,3.4,2.11,5.09s1.39,3.4,2,5.13a107.21,107.21,0,0,1,3.22,10.55,114.8,114.8,0,0,1,3,22.24l0,1c-.25-.62-.5-1.23-.78-1.83A22.47,22.47,0,0,0,28.81,210a11.78,11.78,0,0,0-2.36-1.39,7.91,7.91,0,0,0-2.66-.56c-.12,0-.13.2,0,.24A22.47,22.47,0,0,1,28,210.64a17.55,17.55,0,0,1,3.63,3.43,29.75,29.75,0,0,1,4.77,9.15c0,.88,0,1.75,0,2.63,0,1,0,2.09,0,3.14,0,.54,0,1.07,0,1.61a4.33,4.33,0,0,0,0,.72,2.72,2.72,0,0,0,.23.62.13.13,0,0,0,.23,0,3.6,3.6,0,0,0,.29-.5,3.51,3.51,0,0,0,.08-.66c0-.47.08-.95.11-1.43.07-.94.12-1.87.16-2.81l.3,1.11c.15.58.3,1.16.44,1.75.07.28.12.59.22.87s.26.41.37.65c0,.05.09,0,.09,0,0-.22.07-.41.08-.62A3.37,3.37,0,0,0,38.81,229.56Z"/><path class="l" d="M48.23,249.58c-5,2.79-10.22,2.52-15.71,0a29.28,29.28,0,0,1,0-22.51H48.23A33.22,33.22,0,0,1,48.23,249.58Z"/><path class="m" d="M68.83,139.2a1.17,1.17,0,0,1-.09.24A39.54,39.54,0,0,1,66,145.39l-.14.24a56.17,56.17,0,0,1-3.34,5.29l0,.06c-.06.08-.11.17-.18.25a57.11,57.11,0,0,1-3.88,4.83l-.28.3c-3.79,4.11-7.32,6.35-9.08,5.58a1,1,0,0,1-.18-.08,2.34,2.34,0,0,1-.31-.24c-1.21-1.2-.72-4.46,1-8.54,0-.09.07-.19.11-.28a50.69,50.69,0,0,1,4.17-7.57,2.5,2.5,0,0,1,.16-.24c.32-.5.67-1,1-1.5.78-1.09,1.56-2.13,2.35-3.09a1.37,1.37,0,0,1,.16-.18,38.92,38.92,0,0,1,4.86-5.05l.16-.14c2.88-2.42,5.29-3.37,6.43-2.24a2.56,2.56,0,0,1,.2.26.54.54,0,0,1,.1.16C70,134.35,69.74,136.5,68.83,139.2Z"/><path class="k" d="M63.61,141.09c1.74-.62,3.49-1.24,5.22-1.89a1.17,1.17,0,0,1-.09.24c-1.77.67-3.55,1.31-5.33,1.94-1.36,1.9-2.72,3.79-4.06,5.7l3.7-.94,2-.5,1-.25-.14.24h0l-2.21.56-4.47,1.13c-1.12,1.6-2.23,3.18-3.34,4.78,1.28-.18,2.56-.37,3.83-.59.69-.11,1.37-.24,2.05-.38.26,0,.53-.09.79-.16-.06.08-.11.17-.18.25l-.25.05-2.2.41c-1.4.25-2.8.46-4.2.65-1.29,1.86-2.58,3.7-3.85,5.56q3.32-.84,6.62-1.84l-.28.3q-3.24,1-6.51,1.8c-.86,1.25-1.72,2.52-2.57,3.78l-.21.3c-.06.1-.19,0-.12-.15s.1-.16.15-.23l2.5-3.66a.1.1,0,0,1,0,0,0,0,0,0,1,0,0v0a42.75,42.75,0,0,1-1.73-5c0-.09.07-.19.11-.28A38.64,38.64,0,0,0,51.48,158l.08,0c.55-.81,1.09-1.62,1.64-2.42l2.08-3s0,0,0,0a30.88,30.88,0,0,1-1.38-7.31,2.5,2.5,0,0,1,.16-.24,31.34,31.34,0,0,0,1.3,7.23.05.05,0,0,1,.06,0l.16,0q1.65-2.39,3.32-4.76s0,0,0-.06a30.58,30.58,0,0,1-1.42-6.93,1.37,1.37,0,0,1,.16-.18,30.54,30.54,0,0,0,1.4,7,.08.08,0,0,1,0,0h0c1.33-1.89,2.67-3.79,4-5.67a0,0,0,0,1,0,0,52.61,52.61,0,0,1-.65-6.28l.16-.14a53.36,53.36,0,0,0,.63,6.2h0l0,0c2-2.74,3.94-5.46,5.94-8.16a.54.54,0,0,1,.1.16q-2.22,3-4.42,6.06C64.47,139.87,64,140.49,63.61,141.09Z"/><path class="m" d="M14.51,197.42l.15.05A20,20,0,0,1,18.55,199l.16.08a33.45,33.45,0,0,1,3.57,2.17l0,0,.17.12a36.67,36.67,0,0,1,3.35,2.67l.21.2c2.91,2.68,4.66,5.36,4.4,6.91l0,.16a2.33,2.33,0,0,1-.11.28c-.58,1.15-2.6,1.12-5.25.15l-.18-.06a28.51,28.51,0,0,1-5-2.59l-.16-.11c-.34-.21-.68-.44-1-.68-.74-.52-1.46-1.05-2.12-1.59l-.14-.11a27.8,27.8,0,0,1-3.59-3.46l-.1-.12c-1.78-2.11-2.63-4-2.08-5.09a.91.91,0,0,1,.13-.19l.09-.11C11.46,197,12.78,197,14.51,197.42Z"/><path class="k" d="M16.24,201.55c-.57-1.38-1.15-2.76-1.73-4.13l.15.05c.61,1.4,1.2,2.81,1.78,4.21,1.3.92,2.59,1.83,3.89,2.72-.33-1-.66-2-1-3-.18-.53-.35-1.06-.53-1.58l-.27-.81.16.08s0,0,0,0c.2.58.4,1.18.59,1.77l1.2,3.59c1.08.74,2.16,1.49,3.25,2.22-.25-1-.51-2.08-.79-3.12L22.51,202c-.06-.21-.12-.43-.19-.64l.17.12.06.2c.17.6.34,1.19.5,1.79q.46,1.71.87,3.42c1.26.86,2.52,1.72,3.78,2.56q-.89-2.67-1.86-5.3l.21.2q1,2.58,1.83,5.21l2.57,1.7.2.14c.07,0,0,.16-.08.12l-.15-.1-2.49-1.66s0,0,0,0h0a22.92,22.92,0,0,1-2.83,2l-.18-.06a22.15,22.15,0,0,0,2.92-2.07l0-.06c-.54-.36-1.1-.72-1.64-1.09s-1.36-.93-2-1.38h0a15.37,15.37,0,0,1-4.24,2l-.16-.11a15.16,15.16,0,0,0,4.2-1.92,0,0,0,0,1,0,0l0-.13c-1.09-.73-2.17-1.46-3.25-2.21a.07.07,0,0,1,0,.06,15.38,15.38,0,0,1-4,2l-.14-.11a15.33,15.33,0,0,0,4.05-2s0,0,0,0a0,0,0,0,1,0,0c-1.3-.9-2.59-1.79-3.88-2.7h0a25,25,0,0,1-3.71,1.27l-.1-.12a25.43,25.43,0,0,0,3.66-1.24h0s0,0,0,0c-1.87-1.32-3.74-2.65-5.59-4l.09-.11,4.15,3Z"/><path class="n" d="M69.29,165.13c0,.1-.05.19-.08.28a45.08,45.08,0,0,1-2.77,6.9l-.14.28a66.5,66.5,0,0,1-3.51,6.22l-.2.3a.6.6,0,0,1-.09.15,61.49,61.49,0,0,1-3.93,5.5l-.28.36c-4.5,5.57-8.76,8.68-10.69,7.51a.33.33,0,0,1-.14-.1.26.26,0,0,1-.11-.08c-1.34-1.2-.92-4.78.81-9.37,0-.09.07-.19.11-.29a58.81,58.81,0,0,1,4.22-8.6c0-.08.09-.17.15-.26.45-.76.92-1.53,1.41-2.29.72-1.13,1.46-2.19,2.19-3.21l.16-.23a52.35,52.35,0,0,1,5.2-6.15l.18-.17c3.23-3.16,6-4.59,7.36-3.49l.07.05.08.09C70.27,159.54,70.21,161.94,69.29,165.13Z"/><path class="k" d="M63.23,167.79c2-.87,4-1.75,6.06-2.66,0,.1-.05.19-.08.28-2.06.93-4.13,1.84-6.21,2.71-1.43,2.23-2.87,4.45-4.29,6.7l4.17-1.36,2.22-.72,1.16-.38.18-.05-.14.28-.24.07-2.49.82-5,1.64c-1.18,1.86-2.37,3.74-3.54,5.61,1.46-.31,2.91-.63,4.36-1l2.32-.6a7.66,7.66,0,0,0,1.13-.33l-.2.3a4.32,4.32,0,0,1-.51.16c-.83.22-1.67.44-2.5.64-1.59.4-3.18.76-4.77,1.1-1.36,2.16-2.73,4.33-4.07,6.51,2.63-.86,5.24-1.77,7.83-2.76l-.28.36q-3.84,1.44-7.73,2.7-1.47,2.38-2.93,4.79l0,0c-.06.05-.13,0-.14-.1a.31.31,0,0,1,0-.08c.93-1.53,1.87-3,2.8-4.56a.08.08,0,0,1-.05,0h0s0,0,0,0c-.71-1.54-1.48-3.09-2.05-4.73,0-.09.07-.19.11-.29a48.69,48.69,0,0,0,2.09,4.86l.08,0,1.74-2.84c.73-1.17,1.47-2.33,2.21-3.5,0,0,0,0,0,0a32.11,32.11,0,0,1-1.88-7.06c0-.08.09-.17.15-.26a33.17,33.17,0,0,0,1.8,6.95.18.18,0,0,1,.07,0,.58.58,0,0,0,.18,0c1.17-1.86,2.34-3.73,3.52-5.59,0,0-.06,0-.07-.06a33.43,33.43,0,0,1-1.9-6.71l.16-.23A33.32,33.32,0,0,0,58.29,175a.08.08,0,0,1,.05-.05l0,0c1.42-2.22,2.84-4.45,4.27-6.67,0,0,0,0,0,0q-.67-3.06-1-6.18l.18-.17q.36,3.09,1,6.1h0l.06,0c2.07-3.2,4.15-6.38,6.27-9.55l.07.05.08.09q-2.36,3.54-4.68,7.11C64.14,166.35,63.69,167.07,63.23,167.79Z"/><path class="n" d="M19,155.64l.18.2a40.44,40.44,0,0,1,4.22,5.78l.16.26A69.23,69.23,0,0,1,27,168.19a3.54,3.54,0,0,1,.16.34c0,.05.05.09.08.15,1,2.21,1.93,4.39,2.66,6.48.06.15.12.3.17.45,2.49,7.12,3.18,13,1.5,14.62a.69.69,0,0,1-.13.11l-.11.08c-1.47,1-4.06-.92-6.91-4.65a2.51,2.51,0,0,1-.19-.24,57,57,0,0,1-4.94-8,1.71,1.71,0,0,1-.14-.27c-.41-.79-.81-1.61-1.21-2.45-.58-1.24-1.1-2.46-1.6-3.67,0-.09-.07-.18-.11-.27a60.91,60.91,0,0,1-2.66-8.11l-.06-.26c-1.14-4.78-1.14-8.35.27-9.38l.07-.06.1-.05C15.1,152.32,16.93,153.36,19,155.64Z"/><path class="k" d="M18.68,163.26c.16-2.55.3-5.09.43-7.64l.18.2c-.12,2.6-.27,5.21-.44,7.81,1.13,2.46,2.26,4.92,3.41,7.37.22-1.68.44-3.37.65-5.06.12-.9.23-1.8.35-2.7l.18-1.4a1.81,1.81,0,0,0,0-.22c.05.09.1.18.16.27s0,.2,0,.29l-.39,3c-.27,2-.53,4.09-.8,6.14,1,2,1.92,4.08,2.89,6.11q.54-2.55,1-5.11c.17-.92.33-1.84.49-2.76a12,12,0,0,0,.2-1.36,3.49,3.49,0,0,1,.15.34,6,6,0,0,1-.09.61c-.16,1-.34,2-.52,3q-.51,2.81-1.1,5.6c1.12,2.35,2.23,4.71,3.36,7.05.41-3.19.78-6.38,1.07-9.59.06.15.11.3.16.45q-.45,4.74-1.07,9.46,1.24,2.56,2.5,5.13s0,0,0,0a.1.1,0,0,1-.13.11.15.15,0,0,1,0-.06q-1.2-2.44-2.38-4.89s0,0-.06,0h0a33.6,33.6,0,0,1-4.48.3l-.18-.25a30.87,30.87,0,0,0,4.6-.27v-.1l-1.48-3c-.61-1.27-1.2-2.54-1.8-3.81,0,0,0,0,0,0a21.07,21.07,0,0,1-6.21-.85l-.14-.27a21.44,21.44,0,0,0,6.1.89.12.12,0,0,1,0-.1,1.55,1.55,0,0,0,0-.21c-1-2-1.93-4-2.88-6.08,0,0,0,0-.07,0a21.3,21.3,0,0,1-6-.69c0-.09-.08-.18-.11-.27a20.65,20.65,0,0,0,6,.73.19.19,0,0,1,0-.08s0,0,0,0c-1.14-2.45-2.27-4.89-3.4-7.35,0,0,0,0,0,0a38,38,0,0,1-5.2-1.39l-.06-.26a40.87,40.87,0,0,0,5.12,1.39v-.1q-2.44-5.31-4.81-10.67a.13.13,0,0,1,.07-.05l.1-.06c1.17,2.67,2.37,5.32,3.57,8C18,161.68,18.32,162.46,18.68,163.26Z"/><path class="r" d="M197,296.59a19.14,19.14,0,0,0,9.57-1.5c5.64-2.36,9.52-3.83,10.61-5.43s-2.17-3.09-12.2.76S196.05,296.7,197,296.59Z"/><path class="r" d="M225.34,301a18,18,0,0,0,7.82-3c4.63-3.05,7.63-5.36,6.94-7.25-.49-1.34-4.47-1.44-11.61,3C224.23,296.41,220.19,300.92,225.34,301Z"/><path class="s" d="M110.47,298.21s5.9,6.17,6.93,6.7,10.83,4.59,14.95,1.87-7.92-9.87-7.92-9.87Z"/><path class="r" d="M85.66,299.79S80.09,288.64,82,285s4.87,2.65,6.85,9.63S90.47,305.52,85.66,299.79Z"/><path class="r" d="M94.24,291.31A45,45,0,0,1,89,279.85c-2-6.75-.78-9,3-2.77s7.15,13.25,6,15.18S95.16,293.07,94.24,291.31Z"/><path class="r" d="M111.47,285.47s-8.62,1.51-8.29,3.1,7.29,9.64,7.29,9.64l15.56-.84Z"/><path class="r" d="M252.08,303.31s2.26,1.7,4,0,16.15-6.41,17-8.22-13.13-14-14.64-13.23-14.81,7.06-14.26,8.87S251.64,303,252.08,303.31Z"/><path class="t" d="M96.9,111.74s6.41,2.83,7.32,9.75c.77,5.81,2.72,32.77,1.38,36.26-3.42,8.84-6.65-6.59-7.62-13.57s-1-19-1-23.45C96.87,114.38,96.9,111.74,96.9,111.74Z"/><path class="u" d="M105.85,153.41c1.22,2.52,4,10.48,6.06,21.93,1.29,7.07,2.44,17.76,4.15,22.65.57,1.63,1.65,2.24,1.86,3,.59,2.07,1.13,3.13.86,4.2-.34,1.31-.31,1.34-2.11,2.29a1.65,1.65,0,0,1-1.47-.07c-1.37-.85-3-3.57-3-3.57s-.91-1.27.17-3.57c.65-1.36-5.77-17.36-8.78-23.46s-6.58-23.74-3-25.91C102.35,149.83,103.52,148.64,105.85,153.41Z"/><ellipse class="v" cx="116.12" cy="287.87" rx="4.38" ry="6.52"/><ellipse class="v" cx="130.51" cy="300.87" rx="4.38" ry="6.52"/><path class="w" d="M105.69,234c.25,11.86,3.74,43.54,4.68,47.66,1.09,4.71,14.46,20.51,17.7,21.82a.56.56,0,0,0,.19.07.53.53,0,0,0,.3,0c1.21-.38,9-4.16,8.63-12.36s-5.39-48.69-5.48-49.57a.9.9,0,0,0,0-.16c-.61-4.07-8.61-13-16.65-15.58-6.17-2-8.21,3.17-9,3.66C105.74,229.8,105.64,231.45,105.69,234Z"/><path class="x" d="M105.69,234c5.68,5.24,15,12.25,16.19,13.72a1.7,1.7,0,0,0,.67.52,23.52,23.52,0,0,1,1.38,6.57c.34,3.83.48,7.71.74,11.56.28,4.11.58,8.21.93,12.31.7,8.25,1.48,16.49,2.44,24.7a.17.17,0,0,0,0,.1c0,.09.12.12.19.07a.23.23,0,0,0,.08-.22q-.78-7.19-1.46-14.39-1.18-12.72-2-25.47c-.22-3.66-.26-7.43-.77-11a21.18,21.18,0,0,0-.92-4c2,.05,5-2.86,7.57-4.84a2.3,2.3,0,0,0,.88-2.08c-.61-4.07-8.61-13-16.65-15.58-6.17-2-8.21,3.17-9,3.66C105.74,229.8,105.64,231.45,105.69,234Z"/><path class="y" d="M109.94,228.53a26.45,26.45,0,0,1,5,3.39c1.58,1.23,3.14,2.57,4.65,4s3.05,3,4.51,4.69c.74.84,1.46,1.71,2.18,2.6a18.79,18.79,0,0,1,1.88,2.6,9.21,9.21,0,0,1,1,3.34c.2,1.51.36,3,.54,4.55.36,3,.73,6,1.08,9,.7,5.91,1.35,11.83,1.8,17.78a148.73,148.73,0,0,1,.43,19.79c0,.25-.26.19-.26-.06.1-5.82,0-11.64-.39-17.47s-1-11.52-1.66-17.25c-.33-2.88-.68-5.76-1-8.64-.18-1.46-.35-2.91-.53-4.36a43.28,43.28,0,0,0-.6-4.43,8.24,8.24,0,0,0-1.74-3.34c-.66-.86-1.33-1.69-2-2.5q-2.08-2.48-4.31-4.67a63.11,63.11,0,0,0-5.16-4.61c-.9-.71-1.8-1.39-2.71-2s-1.86-1.19-2.75-1.92C109.6,228.84,109.72,228.43,109.94,228.53Z"/><path class="z" d="M110.4,208.14c-.21-4.11-.27-5.84,4-5.28a4,4,0,0,1,3.39,3.38c.52,2.27,3,15.36,3.81,19.62.69,3.87,1.62,7.69,2.1,11.64.19,1.56-1.1,2.33-1.57,1-1.6-4.7-4.78-27.51-6.4-31.37-.24-.57-2.67-1-3-1.06-1.33-.12-.28,6.18-.14,7.74.5,5.54,1.19,10.5,1.8,16.74.2,2.07-.73,2.37-1.26.55a71,71,0,0,1-1.67-10.93C111,216.17,110.6,212.13,110.4,208.14Z"/><path class="aa" d="M113,206.35l-.12-.25a5.31,5.31,0,0,1-.23-.55c-.07-.17-.12-.35-.18-.52s-.05-.18-.07-.27,0-.22,0-.33,0,0,0,0a.8.8,0,0,0,0,.53l.18.56.21.52c0,.1.09.19.13.29a.72.72,0,0,0,.14.24h0A.8.8,0,0,0,113,206.35Z"/><path class="aa" d="M113.86,205.18a.54.54,0,0,1,.09.22c0,.09.07.19.11.28a5.2,5.2,0,0,0,.26.53,3.5,3.5,0,0,0,.29.49c.1.16.23.32.34.48s0,0,0,0a2.81,2.81,0,0,1-.33-.44,5.48,5.48,0,0,1-.31-.52c-.09-.18-.18-.35-.25-.53s-.07-.17-.1-.25a.68.68,0,0,1-.07-.27S113.86,205.17,113.86,205.18Z"/><path class="aa" d="M115.45,205.51a1.07,1.07,0,0,1,.25.16l.27.2a.65.65,0,0,0,.26.17.69.69,0,0,0,.31-.06,0,0,0,0,1,0,0,.58.58,0,0,1-.29.09A.53.53,0,0,1,116,206l-.29-.22a1.31,1.31,0,0,1-.25-.22S115.44,205.51,115.45,205.51Z"/><path class="aa" d="M112.37,204.54a4.69,4.69,0,0,1,.11.54,2.91,2.91,0,0,0,.16.5,9.1,9.1,0,0,0,.49,1s0,0,0,0a3.17,3.17,0,0,1-.53-.95,4.68,4.68,0,0,1-.17-.53,1.7,1.7,0,0,1-.08-.55Z"/><path class="u" d="M112.17,204.78c-.14-.74.19-1.36.6-1s3.07,2.67,2.63,3.07a2,2,0,0,1-2.05.08A6.28,6.28,0,0,1,112.17,204.78Z"/><path class="u" d="M111,204.25c0-.64.47-1.11.76-.73s2.17,2.69,1.68,3a1.86,1.86,0,0,1-1.85-.24A4.67,4.67,0,0,1,111,204.25Z"/><path class="u" d="M110.48,203.91c.09-.39.29-.4.63-.27s1.31,2.06.74,2.41c-.31.18-1-.4-1.16-.73A3.14,3.14,0,0,1,110.48,203.91Z"/><path class="aa" d="M111.36,205.72a2,2,0,0,1,0-.24c0-.18-.08-.36-.11-.55s0-.37-.07-.56,0-.18,0-.27a1,1,0,0,0,0-.25h0a2.11,2.11,0,0,0,0,.25,2.81,2.81,0,0,0,0,.29,3.05,3.05,0,0,0,0,.52c0,.19.06.37.1.55a2.29,2.29,0,0,0,.07.28.61.61,0,0,0,.07.24s0,0,0,0A.75.75,0,0,0,111.36,205.72Z"/><path class="aa" d="M112.94,206.3l-.12-.27c-.09-.2-.18-.4-.26-.61s-.15-.43-.22-.64l-.09-.32c0-.09,0-.2-.07-.29s0,0,0,0a1.57,1.57,0,0,0,0,.3,3.38,3.38,0,0,0,.08.34c.06.21.13.4.2.6s.16.41.25.61.09.21.14.31a.92.92,0,0,0,.14.26s0,0,0,0A1.17,1.17,0,0,0,112.94,206.3Z"/><path class="u" d="M113.93,205.63c-.19-.62.08-1.15.48-.85l1.14.83.7,2a3,3,0,0,1-1-.16A5.6,5.6,0,0,1,113.93,205.63Z"/><path class="aa" d="M114,205.39c0,.16.07.33.13.49a5.11,5.11,0,0,0,.22.48,4.94,4.94,0,0,0,.27.42l.15.21a.92.92,0,0,1,.13.21s0,0,0,0a.58.58,0,0,1-.14-.17,1.77,1.77,0,0,1-.16-.22,4.43,4.43,0,0,1-.29-.46,4.54,4.54,0,0,1-.21-.45,1.35,1.35,0,0,1-.11-.52S114,205.37,114,205.39Z"/><path class="u" d="M115.66,202.83c-.08.61.07,1.25,0,2.19a8.83,8.83,0,0,0-.18,2.49c.44,1.76.8,1.78,1,1.52.28-.5.45-2,1.2-3.63a4.72,4.72,0,0,0-.48-4.23C116.34,200.16,115.8,201.73,115.66,202.83Z"/><path class="t" d="M80.05,112.39s-7.09,4.13-7.92,10-2.78,33.42-1.44,37c3.4,9,6.67-6.69,7.64-13.81S80.05,112.39,80.05,112.39Z"/><path class="ab" d="M66.74,224.27c-1-.38-1,.48-1.29-1.5a55.23,55.23,0,0,1-.25-10.46A15.69,15.69,0,0,1,68,204c.54-.74.93-.13.78,1.67S67.33,224.5,66.74,224.27Z"/><path class="ac" d="M66.75,207.52A44.72,44.72,0,0,0,65.45,218c0,1.82,1.58,6.61,1.85,9.32.57,5.77.15,9.83.72,9.82,1.54,0,4.76-12.87,3.46-18.48s-1.35-5.87-2.58-12.17S67.44,204.16,66.75,207.52Z"/><path class="u" d="M65.2,200.85c0,.3.84,3.75,1.55,6.67.36,1.5,3.54,3.36,3.57,2.46s-1.34-2-1.55-4.29c-.26-2.77.35-4.62.75-2.53,1.38,7.24,1.41-1.68,1.42-1.69a6.75,6.75,0,0,0-.31-2.58c-1.84-4.81-.45-11.43,1.17-16.51s5.32-19.26,3-24.3c-3.91-8.33-5.79,6.07-7.16,12.1S66,187,66.27,193.89C66.32,195,65.22,200.36,65.2,200.85Z"/><path class="ab" d="M68.73,203.66s1.63.55.81,3.76c-.32,1.29,1,9.65,1.41,12.78s2.25,7.7,1.12,13.52-1.47,8.66-1.83,6.68-.73-11.32-2.07-13.52S66.42,216,66.82,210.22C67,208.35,68.73,203.66,68.73,203.66Z"/><path class="ad" d="M68.53,225.36a1.9,1.9,0,0,1,.17-.63s0,0,0,0,.05.2.06.3,0,.22,0,.33a5.4,5.4,0,0,0,.11.58c0,.22.06.45.07.67s0,.2,0,.3,0,.12,0,.18a.75.75,0,0,1,0,.15.15.15,0,0,1-.06.09c.42,1.4,1.1,2.64,1.63,4a11.19,11.19,0,0,0,.29-1.33,7.79,7.79,0,0,0,.08-1.28,1.51,1.51,0,0,0,0,.3,1.86,1.86,0,0,1-.06.34s0,0-.07,0a1.28,1.28,0,0,1-.07-.28,1.15,1.15,0,0,0-.09-.33c-.07-.16-.13-.33-.2-.5a7.51,7.51,0,0,0-.43-.85c-.14-.28-.28-.55-.41-.83a1.37,1.37,0,0,1-.15-.91s.06-.05.08,0c.14.25.21.57.37.8s.39.46.58.69a2.52,2.52,0,0,1,.43.85,8.54,8.54,0,0,0-.21-1.23c-.23-1-.58-1.92-.85-2.89a11.84,11.84,0,0,1-.43-3.1,12.47,12.47,0,0,1,.13-1.73c0-.14,0-.29.07-.44a.21.21,0,0,1,0-.12,1.79,1.79,0,0,1,.09-.46,2.11,2.11,0,0,0,.08-.45,4.61,4.61,0,0,0-.06-1c0-.32-.09-.63-.14-1a1.39,1.39,0,0,1,.06-.86s0,0,0,0c.07.32.07.65.16,1s.1.33.16.5a2.53,2.53,0,0,1,.19,1.56c-.05.28-.17.69-.38.81,0,.12,0,.25-.07.37a10.39,10.39,0,0,0-.13,1.68,11.61,11.61,0,0,0,.45,3.23c0,.12.07.23.1.34a5.1,5.1,0,0,1,.14-1.1l.15-1.16a2.26,2.26,0,0,0,0-.58,1.81,1.81,0,0,1-.08-.51s0,0,0,0c.21.13.24.64.29.91a6.72,6.72,0,0,1,.2,1.27,2.47,2.47,0,0,1-.1.67,5.44,5.44,0,0,0-.19.57,2.66,2.66,0,0,0,0,.63,1.49,1.49,0,0,1-.06.43c.16.51.32,1,.43,1.55a8.61,8.61,0,0,1,.15,2.91,8.85,8.85,0,0,1-.18,1.05,3.21,3.21,0,0,0,.21-.3,3.46,3.46,0,0,1,.22-.31l0-.07.07-.07a.6.6,0,0,0,.08-.2l.06-.23a.6.6,0,0,1,.06-.23s0,0,0,0a.74.74,0,0,1,0,.39l0,.22a1.27,1.27,0,0,0,0,.2.29.29,0,0,1,0,.13.13.13,0,0,1,0,.06h0a1.5,1.5,0,0,1-.06.29,1.69,1.69,0,0,1-.21.4c-.08.13-.19.28-.31.31a.21.21,0,0,1-.26-.17v0c0,.09-.05.19-.08.28l0,.05,0,.09c.5,1.38.89,3.38.16,4.75,0,0,0,0,0,0a6.54,6.54,0,0,0,.27-2.65,8.75,8.75,0,0,0-.5-2,3.58,3.58,0,0,1-.53,1.2s-.08,0-.07,0a3,3,0,0,1,.23-.62c.09-.23.17-.46.24-.7l0-.1c0-.07-.05-.15-.08-.22-.31-.77-.67-1.51-1-2.27-.16-.38-.31-.76-.44-1.15,0-.17-.09-.34-.13-.5h0a.92.92,0,0,1-.17-.25,2.08,2.08,0,0,1-.12-.3,2.28,2.28,0,0,1-.1-.74A5.23,5.23,0,0,1,68.53,225.36Z"/><path class="ad" d="M66.94,211.2s0,0,0,0a3.47,3.47,0,0,0,.13.46q.06.21.12.45a1.18,1.18,0,0,0,.14.37,1.63,1.63,0,0,1,.11.23,9.86,9.86,0,0,1,.85-3.62.32.32,0,0,1-.11-.19.62.62,0,0,1,.1-.48.69.69,0,0,1,.11-.13l0,0,0,0a2.37,2.37,0,0,0,.22-.42,2.81,2.81,0,0,0,.16-.49,4.42,4.42,0,0,1,.14-.52,0,0,0,0,1,0,0,1.14,1.14,0,0,1,.06.45,4.07,4.07,0,0,1,0,.5,4.75,4.75,0,0,1-.22.92.79.79,0,0,1-.19.4.22.22,0,0,1-.26.06,24.6,24.6,0,0,0-.63,2.46,8.69,8.69,0,0,0,0,3c.07.37.17.73.27,1.08,0-.14.05-.28.07-.42a9.41,9.41,0,0,0,.06-1.5s0,0,0,0a5,5,0,0,1-.06,2.23c.13.4.27.8.4,1.2s.26.78.36,1.19a2.73,2.73,0,0,1,.16,1.2,0,0,0,0,1,0,0,1.53,1.53,0,0,1-.13-.53c0-.23-.1-.45-.16-.67-.12-.48-.28-1-.43-1.41-.08-.21-.15-.43-.22-.65a11.26,11.26,0,0,0-.17,2.53,9.93,9.93,0,0,0,.48,2.46c0,.16.11.31.17.46a5.5,5.5,0,0,1,.32.54c.14.24.28.48.4.73a5.87,5.87,0,0,1,.3.77,1.38,1.38,0,0,1,.07.78s0,0,0,0a3.4,3.4,0,0,0-.3-.79,6.31,6.31,0,0,0-.52-.62,3,3,0,0,1-.46-.71,1.27,1.27,0,0,1-.12-.51.72.72,0,0,1,0-.33v0l0-.11a9.59,9.59,0,0,1-.45-2.35,10.63,10.63,0,0,1,.11-2.46l.12-.64a10.93,10.93,0,0,1-.41-1.64,10,10,0,0,1-.08-1.23.17.17,0,0,1-.25.06.74.74,0,0,1-.2-.59,2.22,2.22,0,0,0,0-.45,2.58,2.58,0,0,1,0-.48C66.93,211.54,66.94,211.37,66.94,211.2Z"/><path class="ae" d="M74.92,101.53a2.3,2.3,0,0,1,.69-1.24,1.37,1.37,0,0,1,1.38-.14c.44.15,1.17.48,1.51-.14.19-.35,0-.89,0-1.27a5,5,0,0,1-.08-1.28c.14-1.57,2.33-2,3.39-1.69.1,0,0,.24-.14.25-.56.08-1.68,0-2.17.41a1.86,1.86,0,0,0-.7,1.94,3.36,3.36,0,0,1,.12,1.8,1.07,1.07,0,0,1-.84.69c-.87.16-2-.93-2.56.34a3,3,0,0,0,.67,3.16,10.28,10.28,0,0,0,.95.92,4.43,4.43,0,0,1,.05-.94c.41-2.87,2.11-1.9,2.64-2.52s-.07-1.79,0-2.82a5.54,5.54,0,0,1,2.76-4s11.52-3.18,12.08-3,.06,3.38,1.5,4.09c.62.3,2.3.55,1.78,3.12-.5,2.41-.53,2.67,0,3.4a2.91,2.91,0,0,1,1,2.55c0,1.14-1.54,1.52-1,2.33s1,1,1,2.14A2.44,2.44,0,0,1,97,112.15c-.66.07,1.17,1.92.33,3.59s-1.26-.22-2.78-.56-.54,1.07-1.36,3.63-3.13-1.22-5.11-2.23-.9,1-1.22,3.06-2.64-.34-4.17-1.09-2.24,1-3.67,1.15-1.46-3-.57-4.14-1.18-3-1.42-4.08a3.39,3.39,0,0,1,.91-3.06c.57-.54-.41-1-.76-2.43a6.24,6.24,0,0,1-1.36-1.12A3.81,3.81,0,0,1,74.92,101.53Z"/><path class="af" d="M91.13,299.15A35.34,35.34,0,0,1,91,303c-.18,1-1.27,1.27-2.2,1.07-1.58-.35-3.66-4.78-4-7s.38-7.64.53-8.75c.25-1.88.78-4.71.78-4.71s3.5,1.17,3.5,2.09S91.13,299.15,91.13,299.15Z"/><path class="ag" d="M92.56,106.68s-.93-2-2.19-2.27-7.65.37-8.26,2.27,5.6,9.87,5.6,9.87,4.54-6.74,4.84-7.7A4.8,4.8,0,0,0,92.56,106.68Z"/><path class="u" d="M73,186.23a7.6,7.6,0,0,0,.1.85c1.19,7.92,11.75,5.73,13.23,1.19a5.2,5.2,0,0,1,.88-1.79c1-1.13,2.14-.42,3.44,1.22a29.88,29.88,0,0,1,2.31,3.54c2.65,4.54,12.84-1,12.14-8.33a64.05,64.05,0,0,0-1.76-9.93c-.86-3.35-1.92-6.61-3.06-10-2.2-6.63-2.1-13.63-.2-21.07.4-1.55,3.5-25.6-.24-28.21-2.76-1.92-3.6-.84-6.85-4.38-.7-.76-1.33-3.83-1.14-5.73,1.2-11.76-7.07-7.9-7.06-6.07,0,7.5-1.92,12.35-4.76,15-4.22,4-4.45,5-4.58,7.4C75,126.77,76.56,133,77.77,139.6s3,16.07,0,22A52.8,52.8,0,0,0,73,186.23Z"/><path class="t" d="M72.71,187.26A98.11,98.11,0,0,0,75,205.78c1.49,6.87,3.24,17.46,5.51,24.57,4.24,13.24,8.48,10.54,8.39-1.47,0-2.17.31-12.84-.21-23.7-.32-6.8-.84-13.66-1.6-18.52-.16-1-.32-1.95-.5-2.77-1.47-6.73-9.4-9.39-12.32-2.95A13.29,13.29,0,0,0,72.71,187.26Z"/><path class="u" d="M85.83,283.22s-.88-6.39-2.53-21.69c-1.55-14.45-4.93-32.89-4.08-40.41s10.1-3.8,10.69,10.52c.25,6.27-.15,51.79-.14,54.52C89.81,293,85.83,283.22,85.83,283.22Z"/><path class="u" d="M90.91,205.08c.07,2.17.14,4.46.18,6.83.32,21.37,1.5,26.72,3.3,28.93,1.36,1.69,5.52-8.78,7.19-15.89.35-1.48,1.93-11.08,3-20.49a100.07,100.07,0,0,0,.86-16.19c-.53-10.13-1.85-15.11-1.85-15.11s-4.5,6.52-6.49,7.6c-2.82,1.52-5.36,1.35-6.19,5.25a17.32,17.32,0,0,0-.28,1.87C90.25,191.82,90.64,197.83,90.91,205.08Z"/><path class="u" d="M98.39,258.49c-.91,8.13-2.1,13.57-2.8,22.06-.27,3.24-2.56,1.9-3.47-4.27-.3-2-1-26.4-.89-36.15.19-16.75,7.19-30.42,9-17.5S99.65,247.29,98.39,258.49Z"/><path class="aa" d="M84.35,95.94a27.88,27.88,0,0,0,2.05,5.87c1.81,3.27,5,3.59,5.58,0S84.35,95.94,84.35,95.94Z"/><path class="u" d="M82.65,93.77c.59,2.32,1.81,3.68,3.11,5.55.79,1.15,5,6.68,7.23,2a21.05,21.05,0,0,0,2.17-9.86c0-.59-.41-1.39-.45-2.08a36,36,0,0,0-.59-6.58,7,7,0,0,0-3.3-4.6C88.18,77,84.09,77,82.49,82.37,81.45,85.86,82.08,91.56,82.65,93.77Z"/><path class="af" d="M88.93,90.86c.08.45,0,.87-.21.94s-.43-.24-.51-.68,0-.87.21-1S88.84,90.41,88.93,90.86Z"/><path class="af" d="M93.31,89.78c0,.46-.12.85-.32.88s-.4-.33-.43-.79.11-.85.32-.88S93.27,89.32,93.31,89.78Z"/><path class="aa" d="M90.42,95a1.05,1.05,0,0,0,1.09.19.65.65,0,0,0,.38-.55,2.74,2.74,0,0,0-.26-.84,8.68,8.68,0,0,1-.39-1.56,6.82,6.82,0,0,1-.07-.79,3.23,3.23,0,0,1,0-.44,1.16,1.16,0,0,1,.07-.37s0,0,0,0a3.31,3.31,0,0,1,0,.45,5.06,5.06,0,0,0,0,.55,6.64,6.64,0,0,0,.15,1,9.26,9.26,0,0,0,.26.94,5.51,5.51,0,0,1,.31.89.93.93,0,0,1-.58,1,.9.9,0,0,1-1.08-.4S90.39,95,90.42,95Z"/><path class="ae" d="M91.79,87.34a.58.58,0,0,1,.29-.32,3.9,3.9,0,0,1,.35-.19,2.12,2.12,0,0,1,.73-.22.92.92,0,0,1,.7.11.68.68,0,0,1,.17.67,0,0,0,0,1-.08,0c0-.1-.08-.09-.15-.1l-.23-.08a1.22,1.22,0,0,0-.57,0c-.2,0-.4.1-.6.16s-.41.18-.59,0A.09.09,0,0,1,91.79,87.34Z"/><path class="ae" d="M86.7,89.17a1.28,1.28,0,0,1,.07-.28,2,2,0,0,1,.32-.43,2.85,2.85,0,0,1,.8-.6,1.45,1.45,0,0,1,1.66.12s0,.11,0,.11a3.31,3.31,0,0,0-1.53.34,2.34,2.34,0,0,0-.65.54,2.1,2.1,0,0,1-.31.35,1,1,0,0,1-.28.18s-.07,0-.08-.08A2.13,2.13,0,0,1,86.7,89.17Z"/><path class="ah" d="M89.81,97.89c.68-.08,2.93-.5,2.84,0s-.55,1.5-1,1.47C90.39,99.24,89,98,89.81,97.89Z"/><path class="u" d="M89.93,302.77c-2.08-.17-4.7-6-5-7.29s.76-14.92,2.06-15.57,2.36,4.07,2.82,8.53S92,302.93,89.93,302.77Z"/><path class="af" d="M89.51,285.54a39.11,39.11,0,0,1,.34,7.24,2.27,2.27,0,0,1-1,1.81C85,296.15,86,283.34,86,283.34s-1.5,8.49-1,12.45c.36,3.07,2.71,7.33,4.69,7.26,1.27-.05,1.56-1.83,1.32-4.79S89.51,285.54,89.51,285.54Z"/><path class="af" d="M99.82,289.28a32.24,32.24,0,0,1,.61,3.71c0,1-1,1.7-1.92,1.85-1.59.26-4.44-3.22-5.2-5.29s-1.11-7.5-1.18-8.63C92,279,92,276.09,92,276.09s3.6-.19,3.77.7S99.82,289.28,99.82,289.28Z"/><path class="u" d="M99.54,293.28c-2,.63-5.68-4-6.17-5.16s-2.16-14.65-1-15.77,3.06,3,4.36,7.16S101.6,292.65,99.54,293.28Z"/><path class="af" d="M95.79,276.88a36.25,36.25,0,0,1,1.73,6.85,2.81,2.81,0,0,1-.62,2.13c-3.42,2.94-4.93-9.77-4.93-9.77s.2,8.74,1.41,12.38c.94,2.83,4,6,5.92,5.23,1.22-.52,1.15-2.35.34-5.11S95.79,276.88,95.79,276.88Z"/><path class="ah" d="M92.56,106.68a6.52,6.52,0,0,1-.1,2.25c-.74,3.14-2.41,8.56-2.41,8.56l-.1,8.73c-1-3.57-2-9.2-2-9.2s-4-6.58-5.5-9.06a3.67,3.67,0,0,1-.35-1.28c-.76,1.67-.91,3.95-1.24,4.28-2.15,2.25-3.48,3.57-3.48,3.57A86.11,86.11,0,0,0,78,125c.14,1.39.63,10.61.49,19.13-.16,9.17-1,17.63-1,17.63l22.86,1.56S97.08,143.72,98,139.5s2.86-10.13,1.45-15.41a28.8,28.8,0,0,1-.57-10.58s-.36-1.24-.9-1.44a37,37,0,0,1-3.48-2.17A35.61,35.61,0,0,1,92.56,106.68Z"/><path class="ae" d="M79.69,89.57A8.65,8.65,0,0,0,82.38,97c1.09,1,1.07-1.14,2-1.58s.19-2.13,0-3.19.55-1.79,1.45-2.34.16-3.37.83-3.24,1.57-1.34,1.49-2.88,2.49-.2,2.78-1.21a.58.58,0,0,0,0-.14,2.43,2.43,0,0,0,.79,1.71,1.37,1.37,0,0,0,1.11.27c.51-.08,1-.31,1.46,0h0a22.08,22.08,0,0,1,.3,3.49s.17-1.51.26-3.07a2.75,2.75,0,0,1,.52.65,1.89,1.89,0,0,1-.11,1.73,3.82,3.82,0,0,0-.4,1.47,2.14,2.14,0,0,0,.4,1.33c.05.07.13,0,.1-.1A3,3,0,0,1,95.35,88c.15-.44.39-.82.51-1.29a2.24,2.24,0,0,0-.76-2.19l-.17-.15a8.9,8.9,0,0,0-.16-2.65c-.45-1.25-.82-3.88-1.59-3.84s-1.44-.76-1.75-1.2a2,2,0,0,0-2.37.22,10.64,10.64,0,0,0-1-1.17c-.88-.82-1,0-2,1.2s-1.25.73-2.06.65-.81.21-1.43,1.76-.37,1.74-1.35,2.34S79.83,88.34,79.69,89.57Zm11.54-7.18A1.73,1.73,0,0,0,92,83c.93.18,1.82-.43,2.24.93h0l-.15-.06a2.32,2.32,0,0,0-1.19.16,1.21,1.21,0,0,1-1.31-.47A1.92,1.92,0,0,1,91.23,82.39Z"/><path class="z" d="M116.24,197l-4.76,2.49s-7.6-19.24-8.35-21.8-3.28-16.59-4.32-19.84-2.24-19.15-2-23.48S100,114,100,114a17.59,17.59,0,0,1,5.4,9.41c1.07,5.78,3,36.76,3.15,37S117.35,196.37,116.24,197Z"/><path class="z" d="M74.08,116.56c-1.16,1.38-2.24,3.86-2.6,8.48s-2,30.68-2.09,31.75a1.71,1.71,0,0,1-.53,1.34,5.26,5.26,0,0,1,0,.89c-.06.17-.36.25-.3.91a24.08,24.08,0,0,1-.9,5.69A150.47,150.47,0,0,0,65.2,182c-.41,4.7-.43,12.29,0,12.86s5.11,2.07,5.16,1.57,3.51-20.29,4.11-23.75a111.58,111.58,0,0,0,1.28-12.13c0-1.38,2.39-8.74,3.19-16.09s0-19-1.24-22.68S75.24,115.18,74.08,116.56Z"/><path class="v" d="M72.72,187.74c.07,7.09,3.15,36.65,4.79,37,1,.2,23.9.39,25.11-1.48.78-4.5,3.28-11.38,3.16-36,0-9.41-2.22-15-2.22-15-.86-3.11-1.93-6.13-3.07-9.31-.54-1.5-1.26-7.15-2.95-8.82-2.08-2.07-4.75-1.64-7.74-1.63-2.64,0-7.53-1.95-9.86-.15-1.67,1.3-1.7,7.88-2.27,8.92C74.67,166.81,72.57,173.91,72.72,187.74Z"/><path class="ai" d="M100.82,164.89s-4,1.26-6.87.13-4.72-4.34-4.72-4.34-2.51,5.41-7.92,5.24a22,22,0,0,1-5.56-1l1.5-3.37,13-29.27Z"/><path class="z" d="M80.87,111s8.76,14.9,9.36,18c0-.43.15-1.42.15-1.6.06-2.35,3.7-17.72,4.4-17.27a41,41,0,0,1,4.93,3.52c1.38,1.55.13,16.49-.67,21.34a59.88,59.88,0,0,0-.33,13.58c.37,5.91,3,14.73,2.77,15.75-.25,1.3-5.11.67-7.23-1s-3-2.54-3.72-5.65c-.26-1.19.12-6.2.12-11.17,0-4.21-.08-8.21-.17-11.42,0,7.57-.41,19.38-.83,21.65-.65,3.43-.75,4.56-3,6.59-2.87,2.62-9.32,1.38-10.24,0-.77-1.16,1.2-9.11,1.93-16.5,0-.39-.22-1.32-.19-1.7s.37-.69.39-1-.28-.58-.26-.83c0-.43.33-.17.34-.59,0-.93,0-13.29-1-17.75a24.51,24.51,0,0,0-3.35-7.89c-.7-.87,1.58-1.68,3.39-3.43S80.58,110.45,80.87,111Z"/><path class="aj" d="M79,116.48c.06-.54.13-1.08.19-1.62l.21-1.81a9.19,9.19,0,0,1,.21-1.5.74.74,0,0,1,.56-.57c.17,0,.65,0,.7-.23,0-.07.08-.06.1,0,.16.6-.56.5-.8.55s-.39.55-.44.93-.13,1-.19,1.58-.13,1-.2,1.58a11.64,11.64,0,0,0-.16,1.55c0,.56.37.78.69,1l.87.66a36.15,36.15,0,0,1,6.36,5.76,19.49,19.49,0,0,1,1.46,2.06c.22.36.43.72.62,1.1a4.77,4.77,0,0,1,.51,1.2s0,.06-.05,0a7.44,7.44,0,0,1-.54-1c-.19-.36-.39-.71-.59-1.06a19.55,19.55,0,0,0-1.32-1.87A24.05,24.05,0,0,0,84,121.61c-1.1-1-2.24-1.85-3.39-2.72l-.83-.64a2.29,2.29,0,0,1-.71-.68A1.92,1.92,0,0,1,79,116.48Z"/><path class="aj" d="M90.64,127.45q.28-1,.63-1.92a30.63,30.63,0,0,1,1.67-3.67c.62-1.16,1.29-2.26,2-3.32.36-.55.78-1.06,1.11-1.65a3.78,3.78,0,0,0,.19-2.29,12,12,0,0,0-.53-2.33c-.12-.36-.26-.71-.41-1s-.38-.7-.52-1.08c0-.11,0-.2.12-.13a3.06,3.06,0,0,1,.49.8,10.78,10.78,0,0,1,.43,1,12.65,12.65,0,0,1,.54,2,8.41,8.41,0,0,1,.17,2.24,3.25,3.25,0,0,1-.73,1.64,36.89,36.89,0,0,0-4,7.16c-.29.72-.56,1.45-.8,2.21-.14.41-.26.83-.37,1.25a9.84,9.84,0,0,1-.3,1.13c0,.06-.09,0-.09,0A8.85,8.85,0,0,1,90.64,127.45Z"/><path class="aj" d="M77.92,157.93a4.16,4.16,0,0,1,.32-1.38,4,4,0,0,1,.91-1c.32-.29.65-.58,1-.85a20.15,20.15,0,0,1,2.13-1.51,14.67,14.67,0,0,1,2.23-1.07c.08,0,.11.13,0,.16A21.22,21.22,0,0,0,80.43,155c-.31.26-.62.53-.91.8a6.23,6.23,0,0,0-1,1,3.55,3.55,0,0,0-.3,1.41c-.06.45-.12.89-.19,1.34a4.85,4.85,0,0,0,2.3-.86c.8-.48,1.59-1,2.39-1.5a3,3,0,0,0,1.66-1.89,5.26,5.26,0,0,0,.13-1.38c0-.24,0-.47,0-.71a2.66,2.66,0,0,1,.09-.63c0-.07.08-.08.11,0a4.67,4.67,0,0,1,.18,2.24,3.43,3.43,0,0,1-.76,2,8.26,8.26,0,0,1-1.89,1.32c-.68.44-1.36.89-2.05,1.29a4.33,4.33,0,0,1-2.35.69c-.13,0-.21-.15-.18-.32Z"/><path class="aj" d="M99.22,158.58a4.15,4.15,0,0,0-.31-1.38,4.26,4.26,0,0,0-.92-1c-.32-.3-.64-.58-1-.85a19.17,19.17,0,0,0-2.13-1.51,14.23,14.23,0,0,0-2.23-1.07c-.08,0-.1.13,0,.16a21.59,21.59,0,0,1,4.1,2.69l.91.8a6.18,6.18,0,0,1,.94,1,3.74,3.74,0,0,1,.31,1.41l.18,1.34a5,5,0,0,1-2.3-.86c-.8-.48-1.59-1-2.38-1.5a3,3,0,0,1-1.67-1.89,5.72,5.72,0,0,1-.13-1.38c0-.24,0-.47,0-.71a2.65,2.65,0,0,0-.08-.63c0-.07-.09-.08-.11,0a4.52,4.52,0,0,0-.19,2.23,3.44,3.44,0,0,0,.76,2,8.26,8.26,0,0,0,1.89,1.32c.68.44,1.36.89,2.06,1.29a4.28,4.28,0,0,0,2.34.69c.13,0,.21-.16.19-.32C99.38,159.77,99.3,159.17,99.22,158.58Z"/><path class="aj" d="M88.09,130.45c0,.6.36,1.08.81,1.08s.8-.48.8-1.08-.36-1.07-.8-1.07A1,1,0,0,0,88.09,130.45Z"/><path class="aj" d="M88.58,142.73c0,.6.36,1.08.8,1.08s.81-.48.81-1.08a1,1,0,0,0-.81-1.07C88.94,141.66,88.58,142.14,88.58,142.73Z"/><path class="aj" d="M87.48,154.07c0,.6.36,1.08.8,1.08s.81-.48.81-1.08a1,1,0,0,0-.81-1.07C87.84,153,87.48,153.48,87.48,154.07Z"/><path class="aj" d="M89.68,128.91a4.55,4.55,0,0,1,.41,1.26,13.51,13.51,0,0,1,.3,1.54,11.66,11.66,0,0,1,.06,2.95c0,.05,0,0,0,0a23.88,23.88,0,0,0-.18-2.93c-.08-.47-.16-.93-.28-1.39,0-.22-.11-.45-.18-.67a4.72,4.72,0,0,1-.19-.67C89.57,128.92,89.63,128.85,89.68,128.91Z"/><path class="aj" d="M98.62,143.78c.14-1.52.4-3,.64-4.51s.5-3.09.63-4.67a38.56,38.56,0,0,0,.11-4.69c-.06-1.82-.3-3.6-.51-5.4,0-.07.06-.09.08,0a26.63,26.63,0,0,1,.57,4.65,40.76,40.76,0,0,1,0,4.69c-.21,3.12-.93,6.09-1.3,9.17a26.4,26.4,0,0,0-.2,2.68,22.19,22.19,0,0,0,.15,2.58s0,0,0,0A15.56,15.56,0,0,1,98.62,143.78Z"/><path class="ai" d="M77.7,172a2.55,2.55,0,0,0,1.82.13c.31-.06.61-.15.91-.18l1.13-.1c1.39-.14,2.78-.28,4.16-.44,2.8-.31,5.6-.67,8.39-1l2.33-.31c.81-.12,1.61-.26,2.42-.33.09,0,.11.2,0,.22-1.41.41-2.86.63-4.28.9s-2.8.51-4.2.73q-4.25.66-8.49,1.09a17.42,17.42,0,0,1-2.39.14,2.8,2.8,0,0,1-1.87-.67S77.63,172,77.7,172Z"/><path class="ai" d="M88.35,174.53c1.28,0,2.57,0,3.85.06.63,0,1.27,0,1.9.08a10.81,10.81,0,0,1,1.89.19c.08,0,.1.16.05.23s-.17.2-.24.31-.1,0-.07-.08l.06-.16a10,10,0,0,1-1.64.1c-.65,0-1.3,0-2-.07a38.61,38.61,0,0,1-3.85-.5C88.28,174.68,88.27,174.53,88.35,174.53Z"/><path class="ai" d="M91.11,80.36a6.12,6.12,0,0,0,.9-2.59,7.76,7.76,0,0,0-1-3.29,2.72,2.72,0,0,0-1.48-1.43c-.57-.27-5.67.84-5.67.84s4-.54,5.06.35S91.11,80.36,91.11,80.36Z"/><path class="ag" d="M87.77,118.24s-.45-1.9-.57-1.41-.88,3.8-.44,4.62S90.23,129,90.23,129Z"/><path class="ag" d="M91.86,119.63s-1.18-2.58-1.34-2.14S90.23,129,90.23,129A69,69,0,0,1,91.86,119.63Z"/><path class="v" d="M91.23,80.05c-.23,1.16-.48-1.26-3.86-1.18a7.41,7.41,0,0,0-6.45,4.2c-.36.82-.5,1.29-.61,1.15a13,13,0,0,1,.81-6c.78-2,1.48-4,2.78-4.36a30,30,0,0,1,4.78-.3C90,73.59,91.59,78.25,91.23,80.05Z"/><path class="ak" d="M87.06,76.06a6.71,6.71,0,0,0-1.34.23,4,4,0,0,0-1.15.38,1.64,1.64,0,0,0-.69,1.12.5.5,0,0,0-.12-.08.94.94,0,0,0-.72,0,5.17,5.17,0,0,0-1.43.75c-.08,0,0,.22.06.17a2.61,2.61,0,0,1,1.15-.47,1.18,1.18,0,0,1,.53.17.72.72,0,0,0,.4.14,1.1,1.1,0,0,1,.25.19c.17.17.38-.12.26-.35a.78.78,0,0,1,.12-.83,1.84,1.84,0,0,1,.8-.45,8.4,8.4,0,0,0,1.91-.82A.08.08,0,0,0,87.06,76.06Z"/><path class="ai" d="M92.56,128.4c.17.32,5.93.27,6.27,0s.19-2.87,0-3.24-6-.09-6.27,0S92.38,128.07,92.56,128.4Z"/><path class="ab" d="M92.84,128c.16.26,5.38.22,5.68,0s.17-2.25,0-2.54-5.46-.07-5.68,0A5.71,5.71,0,0,0,92.84,128Z"/><path class="ad" d="M93.49,125.79a1,1,0,0,1,.53-.1h.6q.59,0,1.17,0c.39,0,.78,0,1.16.06a3.43,3.43,0,0,1,1.15.2c.09,0,.11.23,0,.27a3.7,3.7,0,0,1-1.15.06c-.37,0-.74,0-1.12,0H94.71l-.6,0a1,1,0,0,1-.57,0A.3.3,0,0,1,93.49,125.79Z"/><path class="ad" d="M94.22,127s0,0,0,0a.41.41,0,0,1,0-.09.29.29,0,0,1,.15-.09,1.48,1.48,0,0,1,.42,0l.88.07.84,0a1.74,1.74,0,0,1,.81.14.17.17,0,0,1,0,.23.81.81,0,0,1-.39.12l-.45,0a7.85,7.85,0,0,1-.84,0,7.94,7.94,0,0,1-.85,0,1.93,1.93,0,0,1-.42,0,.31.31,0,0,1-.18-.16.36.36,0,0,1,0-.09c0-.08,0-.08,0,0A.09.09,0,0,1,94.22,127Z"/><path class="aj" d="M94.05,144.25A14.1,14.1,0,0,0,98.53,138s.06,0,0,0a11,11,0,0,1-4.5,6.27S94,144.28,94.05,144.25Z"/><path class="aj" d="M79.11,146s.06,0,0,0A32.71,32.71,0,0,1,78,152.29c0,.1-.14.06-.12,0C78.33,150.18,78.77,148.11,79.11,146Z"/><path class="aj" d="M99.05,151c.32,1.34.49,2.76.73,4.13s.52,2.74.81,4.1.59,2.67.9,4a1.91,1.91,0,0,1,0,1.37c-.13.23-.34.34-.54.21,0,0,0-.06,0-.06.46,0,.56-.54.49-1,0-.28-.13-.55-.2-.82-.14-.58-.27-1.15-.4-1.73-.25-1.13-.5-2.26-.72-3.39s-.44-2.28-.64-3.42A29.44,29.44,0,0,1,99,151S99,151,99.05,151Z"/><path class="aj" d="M78,124.08c0-.06.08,0,.07,0-.06,1.67-.21,3.34-.21,5a31.92,31.92,0,0,0,.39,5.08c.48,2.95,1.39,6.07.87,9.12,0,0,0,0,0,0,.31-3.3-.53-6.38-1-9.58A38.39,38.39,0,0,1,78,124.08Z"/><path class="v" d="M202.48,80.57s-.18.24.54.47c1.58.5,14,1.07,14,1.07s1.76-1.15,1.59-1.31-5.23-2.35-5.23-2.35l-9,.54Z"/><path class="ai" d="M220,85.11s-1.81,8.35-2.1,7.92a4,4,0,0,1-.37-2.11c.08-.57.95-6.53,1.44-7.33S220,83.53,220,85.11Z"/><path class="t" d="M241.38,153.87c.67,2.52,1.8,10.17,1.77,20.69,0,6.5-.73,16.11,0,20.82.23,1.57,1.07,2.38,1.14,3.11.18,1.95.48,3,.07,3.88-.5,1-.48,1.09-2.2,1.45a1.58,1.58,0,0,1-1.27-.45,14,14,0,0,1-2-3.89,3.16,3.16,0,0,1,.72-3.06c.78-1-2.25-16.64-3.89-22.73s-1.93-22.41,1.52-23.37C238.91,149.84,240.12,149.11,241.38,153.87Z"/><path class="aa" d="M239.15,201.88l-.06-.25c0-.18-.08-.36-.11-.54s0-.33-.07-.5a2.28,2.28,0,0,1,0-.26,1.45,1.45,0,0,1,0-.29h0a.69.69,0,0,0-.07.47c0,.18,0,.36.07.54s.06.33.1.5,0,.19.07.29a.68.68,0,0,0,.08.24s0,0,0,0A.58.58,0,0,0,239.15,201.88Z"/><path class="aa" d="M240.06,201.08a.71.71,0,0,1,0,.21l.06.27a4.56,4.56,0,0,0,.13.53c.05.17.11.34.17.5s.16.34.22.51,0,0,0,0a3,3,0,0,1-.22-.48,4.72,4.72,0,0,1-.18-.53,4.58,4.58,0,0,1-.14-.53c0-.08,0-.16,0-.24a1.07,1.07,0,0,1,0-.25S240.06,201.07,240.06,201.08Z"/><path class="aa" d="M241.39,201.78a1,1,0,0,1,.2.2l.19.25a1,1,0,0,0,.2.21.57.57,0,0,0,.29,0s0,0,0,0a.5.5,0,0,1-.27,0,.47.47,0,0,1-.22-.2l-.22-.26a1.51,1.51,0,0,1-.18-.26Z"/><path class="aa" d="M238.86,200.13a4,4,0,0,1,0,.49,4.1,4.1,0,0,0,.06.49,8.94,8.94,0,0,0,.27,1h0a3.11,3.11,0,0,1-.31-1,4,4,0,0,1-.06-.5,1.39,1.39,0,0,1,0-.5S238.86,200.11,238.86,200.13Z"/><path class="t" d="M222.34,107.73c.19-4.49,6.7-2.2,10.1,2.72,1.08,1.57,1.82,4,2.8,7.12,3.57,11.36,6.89,30.59,6.81,38.5-.11,10.08-2.69,9.33-7.07-1.42S221.73,121.51,222.34,107.73Z"/><path class="t" d="M217.61,91.48a18,18,0,0,0,3.44,8.55,15.76,15.76,0,0,0,3.52,3c6,4.09,6,11.23,5.24,23.54-.33,5.58-2.47,9.13-3.1,15.59-.76,7.79-.19,14-.06,20.63.25,12.15-25,7.21-25.15,1.71-.08-3.92.46-16.56.08-24.85-.16-3.33-2.06-13.39-1.73-16,1.15-9-2.19-12.58,1.26-17.32s6.68-2.9,8-6.68,0-9.71,0-9.71Z"/><path class="af" d="M207.86,101s-2.83,3.1-2.22,10.06-2.7,22-4.8,29.11-8.29,17-11.51,17c-4.37,0-1.73-12.83.38-25.84A120.81,120.81,0,0,1,194.2,114c.81-2,2.49-5.87,4.18-7C204.21,103.1,207.86,101,207.86,101Z"/><path class="aa" d="M197.05,295c3.78-.81,5.14-2.82,10.59-5,2.71-1.08.87-5.05,1-7.41s2.18-30.32,2-38.47c-.27-14.45.42-14.09,1.53-24.76,1.75-16.72,4.73-38.26,3.62-47.28s-12.48-15.77-13.45-8.49c-1.43,10.74-4.22,57.29-3.57,63.09s5.68,54.13,4.62,57.8c-.63,2.21-2.68,2.91-4.68,4.82-1.32,1.25-1,1.44-2.63,2.78-.38.33-.63.71-.86.87a1.38,1.38,0,0,0-.27.23,1.73,1.73,0,0,0-.15.2C194.57,293.89,195.23,295.42,197.05,295Z"/><path class="ai" d="M194.42,293.38c.12,1.16,1.43,1.61,2.55,2.17a6.46,6.46,0,0,0,2.6.21,10.71,10.71,0,0,0,4.48-2.24,5.83,5.83,0,0,1,1.63-.92,13.21,13.21,0,0,0,2.11-.86,5.1,5.1,0,0,0,2-1.64c.41-.67.72-1.41.28-3.42-.1-.42-.19-.77-.28-1.07h0c-.18-.59-.36-1-.53-1.68-.1-.39-.31-1.83-.38-2-.41-.73,0,.65-.33.63a2.69,2.69,0,0,0-1.83.41c-.63.58-.75.59-.94.43s-.25-1.27-1.44-1.62-1-.06-1.15.84c-.27,1.4-3.21,5.6-5.11,7.12-.52.42-1,.78-1.55,1.16a14.75,14.75,0,0,0-1.36,1.09C195,292.14,194.36,292.77,194.42,293.38Z"/><path class="ai" d="M194.53,292.83a1.94,1.94,0,0,0,.09.76,2.76,2.76,0,0,0,1.9,1.74c.82.32,2,.94,4.95-.36,1-.46,2.16-1.33,3.32-2,.43-.24,1.22-.8,1.92-1.12a6.84,6.84,0,0,0,2.93-1.84,4.78,4.78,0,0,0,.63-2.2,8.79,8.79,0,0,1,0,2.4c-.47,1.12-2.58,2.19-2.88,2s-3.12,1.65-4.31,2.48a9.46,9.46,0,0,1-6.09,1.85,3.76,3.76,0,0,1-2.62-2.11A2.81,2.81,0,0,1,194.53,292.83Z"/><path class="aa" d="M217.42,222.85c.48,2.64,3.46,19,3.85,22.1.26,2.09,2,14.41,4,25,.91,4.91,1.78,11.9.87,15.37A71,71,0,0,1,222,296.58c-.45,1-1.42,1.36-1.16,2.12s.72.47,1.13.4c.2,0,.08.67.62.66,1.34,0,4.44,0,5.31-.72,1.46-1.24,1.93-5.5,2.91-8.57.58-1.85,1.34-2.25,1.46-4.29a17.84,17.84,0,0,0-.7-4.06c-.2-1.05.44-14.76.59-18.23h0s0-.1,0-.18c.42-9.81,1.71-21.42,1.27-27.83-.7-10.44-.31-14.17-3.56-20.1C225.21,208.17,215.62,213,217.42,222.85Z"/><path class="ai" d="M233.15,285.94a13.35,13.35,0,0,1,.33,2.23,22.72,22.72,0,0,1-1.38,2.63,2.31,2.31,0,0,0-1.15,1.6c-.41,1.33-.7,3.15-.95,4.32a6,6,0,0,1-1.68,3.29c-.79.54,3-11.44,3-11.44Z"/><path class="ai" d="M220.3,298.39a2.1,2.1,0,0,0,.41,1.85,5.68,5.68,0,0,0,3.19.86c1.48,0,3.88-.47,4.55-1.19a5.05,5.05,0,0,0,1.2-2.75,68.81,68.81,0,0,1,2.15-7.25c.7-1.74,1.15-2.91,1.28-3.31a2.09,2.09,0,0,0-.66-2c-.65-.53-2.45-.51-4,1.56s-4.25,8.6-5.56,9.85S220.41,297.8,220.3,298.39Z"/><path class="ai" d="M220.65,298.51a1.12,1.12,0,0,0,0,1.13,8.73,8.73,0,0,0,6,.46,3.57,3.57,0,0,0,2.51-3.16c.18-.8,1.69-6,2.31-7.59s1.55-2.94,1.22-3.75a2.09,2.09,0,0,0-3.24-.66c-1.19,1.19-4.43,8.78-5.43,9.44S221,298,220.65,298.51Z"/><path class="ai" d="M222.06,294.73c-1.17,1.78-2.39,2.83-1.73,4.65.35,1,3.47,1.37,5.79.88a4.11,4.11,0,0,0,2.12-1c1-1.1,1.39-3.67,2.16-6.2.2-.61.35-1.58.57-2.11.14-.35.3-.68.45-1h0a28.39,28.39,0,0,0,1.53-3,5.83,5.83,0,0,0-.32-3.77v0c-.34-1-.74-1.77-.85-2.11s-.32-.91-.44-.56a6.45,6.45,0,0,0,0,1.44c0,.56-1.15,1.3-2.48,1.38-.3,0-1,1.68-1.29,1.68s-1.19-2.28-1.3-2.41c-.59-.63-.35,2.53-.62,3.51a52.35,52.35,0,0,1-3.31,8.15C222.27,294.41,222.17,294.57,222.06,294.73Z"/><path class="ai" d="M228.89,284.59c.42-1,.56-2.43-.63-2.56s-2.37-.74-2.1,1.52,0,4.39.73,4.32S228.77,284.9,228.89,284.59Z"/><path class="aa" d="M197.1,193l.06-.34c0-.24.08-.48.11-.73s0-.45.06-.68,0-.23,0-.35a2.91,2.91,0,0,0,0-.4s0,0,0,0a1.14,1.14,0,0,1,.09.64c0,.24,0,.49-.07.73s-.05.46-.09.69-.05.25-.07.38a.9.9,0,0,1-.09.33s0,0,0,0A.73.73,0,0,1,197.1,193Z"/><path class="aa" d="M230.64,168.26c4.28,11.06.32,32.5.48,38.3s1.1,27.61-4.54,25-11.2-9-11.18-19.93-5.15-35.08-2.35-45.43S225.89,156,230.64,168.26Z"/><path class="v" d="M226.85,160.86A32.27,32.27,0,0,1,232.41,177c1,13.21-1,28.63-1.11,33.14-.11,8.78,2.19,10.74,2.34,30.4.12,14.92-.12,30.59-.33,38.32,0,.6.35,1.4.33,1.9s-.64,1.13-.68,1.57c-.06.91.84.78.35,1.53-.18.28-1.49,2.56-3,2.93-2.73.7-6.19-.6-5.27-1.23.09-.07-.46-.4-.46-.94,0-.34.41-.75.38-1.24s-.72-.62-.77-1.1c-1.24-12.39-8.64-55.9-8.64-64.49,0-11.61-3.32-28.34-2.49-38.55s3.73,14.77,1.85,28.72c-1,7.62-1.62,13.46-1.91,17.9,0,.7.67,1.37.64,2-.14,2.7-.92,4.8-.86,6.41a211.82,211.82,0,0,1-.5,30.05c-.65,7.35-.58,12-.9,15.11,0,.39-.57.83-.61,1.16-.09.85.44,1.54.22,2.1a3,3,0,0,1-2.2,1.93c-3.37.94-6.39.57-7.13-2.54-.07-.29.62-1.23.54-2.26,0-.29-.52-.84-.54-1.17-.56-7.89-2.26-37.7-3.11-51.85-.11-1.81-.82-3.34-.9-4.56a7.9,7.9,0,0,1,.41-3c-1.22-5.95-1.44-44.69,3.59-57.16.33-.81,6,1.23,12.51,1.19C224.25,163.19,226.85,160.86,226.85,160.86Z"/><path class="aa" d="M214.69,98.5c1.54-1.61,2.59-5.55,3-7,.12-.41.1-.54-.12-.81l-1.64-2c-2.5.1-7.3,3.39-6.88,5,.92,3.59.34,5,0,6C209,100,211.46,101.85,214.69,98.5Z"/><path class="t" d="M219.07,85a21.47,21.47,0,0,1-1.48,7.21,9,9,0,0,1-2.31,3.21c-1.5,1.46-4.84,4-6.72,0a22.22,22.22,0,0,1-2.31-8.12c-.07-.59.2-1.51.13-2.19a37,37,0,0,1-.13-7A8.11,8.11,0,0,1,209,72.61c2.6-2,6.53-3.09,9.15,1.76C219.89,77.52,219.3,82.59,219.07,85Z"/><path class="ai" d="M218.05,87.05s-2.16,5.52-2.89,5.69A1.69,1.69,0,0,1,213,91.61c-.56-1.28-4-1-4.23-.51s.06,1.92-.41,1.64-2-3.87-1.86-3.39a31.55,31.55,0,0,0,1.19,4.72c.68,1.88.43,2.72,1.08,3.42s3,.59,3.35.5A45.17,45.17,0,0,0,217,93.77c.91-1,2.06-6.24,1.85-6.73s-.41-1.88-.58-.94Z"/><path class="al" d="M212.66,85.35c0,.47.16.85.38.86s.42-.36.43-.83-.16-.86-.38-.87S212.67,84.88,212.66,85.35Z"/><path class="al" d="M207.63,85.27c.05.46.27.81.49.77s.36-.44.32-.91-.27-.81-.49-.78S207.59,84.8,207.63,85.27Z"/><path class="ai" d="M201.16,163.46a36,36,0,0,0,11.39,1.41,34.73,34.73,0,0,0,12.5-2.71,4.78,4.78,0,0,0,1.8-1.3l-.36-3.21c-6.11,2.92-17.83,4.77-25,1.18A23.36,23.36,0,0,0,201.16,163.46Z"/><path class="aa" d="M212.92,115a42.53,42.53,0,0,0-1.35,16.53c0,.06.1,0,.1,0a54.32,54.32,0,0,1,1.39-16.46C213.09,115,213,114.92,212.92,115Z"/><path class="aa" d="M211.92,144.05c-2.38-1.39-5.15-.31-7.13,1.68a9.75,9.75,0,0,0-2.37,4c0,.05.06.09.08,0a9.69,9.69,0,0,1,5-5.59,4.69,4.69,0,0,1,3.93-.05,7.46,7.46,0,0,1,2.92,2.83A22.59,22.59,0,0,1,216.5,152c0,.06.09,0,.08,0C215.81,148.74,214.39,145.49,211.92,144.05Z"/><path class="ai" d="M209.75,83.88a.59.59,0,0,0-.28-.26,2.46,2.46,0,0,0-.42-.23c-.29-.11-.59-.2-.89-.3a1.64,1.64,0,0,0-.87-.13,1.13,1.13,0,0,0-.75.46c-.15.24,0,.55.23.52a1.35,1.35,0,0,0,.36-.18.9.9,0,0,1,.34-.11,2.39,2.39,0,0,1,.74.16A7.51,7.51,0,0,0,209,84a1.87,1.87,0,0,0,.4,0,.45.45,0,0,0,.34-.07A.14.14,0,0,0,209.75,83.88Z"/><path class="ai" d="M215.16,83.55a.88.88,0,0,0-.34-.39,1.68,1.68,0,0,0-1.51-.37,5.31,5.31,0,0,0-.88.34,1.54,1.54,0,0,0-.82.65c0,.06,0,.15,0,.17.23.13.52,0,.76-.08s.64-.1.92-.19.43-.23.69-.16a2.29,2.29,0,0,1,.7.41c.11.08.43.25.5,0A.76.76,0,0,0,215.16,83.55Z"/><path class="ah" d="M199.55,130.09a16,16,0,0,0,.36,1.69,0,0,0,0,1,0,0,37.62,37.62,0,0,1,1,6.09c.5,4.59-.27,14.7-.07,20.36,0,1.1,3.92,3.72,8.17,3,4.9-.82,8.43-.54,12.06-1.72,2.55-.83,5.57-.25,6.54-2.87,1.25-3.39-.49-10.6-.55-11.62-.19-3.08,1.57-11,1.57-11-1.47-17,.92-26.65.92-26.65L221.05,100s-2.19,1.33-4,2.27c-1.29.66-4.68.62-4.68.62l-1.07.4-.66-.68-3.57-.68-1.17.78c-2.46,4.49-6.52,15.17-6.55,21.61A44.62,44.62,0,0,0,199.55,130.09Z"/><path class="ah" d="M211.93,92.42c-.57,0-2.48-.47-2.47.1s.47.68.92.68C211,93.19,212.47,92.44,211.93,92.42Z"/><path class="am" d="M210.16,88.5l.21-1.59a7.82,7.82,0,0,1,.3-1.53s.06,0,.06,0a5.76,5.76,0,0,1-.09,1.24c0,.4-.11.8-.16,1.2a9.61,9.61,0,0,0-.16,1.2,1.07,1.07,0,0,0,.12.56.47.47,0,0,0,.41.22s.05,0,0,.07c-.21.2-.46.09-.61-.16A2,2,0,0,1,210.16,88.5Z"/><path class="t" d="M218.64,86.6a14.33,14.33,0,0,1,.25-3.21c.31-.86.51-1.43,1.13-.16S218.77,88.47,218.64,86.6Z"/><path class="ai" d="M219.31,83.28a6.24,6.24,0,0,1-.54,1.37c-.28.47.09-2.11-1.08-2.82s1-4-2.06-3.83c-.86.06-2.33,1.69-4.95,2.47-.54.16-4.2.77-4.6-.22a6.56,6.56,0,0,1,.59-5.46c1-1.91,1.26-2.8,3.09-4.42.59-.53,5.82-.44,8,2.44,2.54,3.33,2.45,10,2.45,10a9,9,0,0,1-.08,1C219.91,82.49,219.35,83.07,219.31,83.28Z"/><path class="ai" d="M212.61,186.92c-.2-1.3-.39-2.59-.62-3.87a5.5,5.5,0,0,1,.68.89c.07.13.21,0,.16-.12a3.77,3.77,0,0,0-.74-1.23,14.57,14.57,0,0,1-1.39-1.76,10.62,10.62,0,0,1-.77-4.11l-.21-5c-.08-1.75-.09-3.52-.26-5.25,0-.11-.14-.12-.14,0,0,1.39.07,2.79.12,4.18s.09,2.74.14,4.1c.07,2.17-.06,4.79,1,6.63a7.65,7.65,0,0,0,1.16,1.42c.17,1.16.36,2.32.54,3.49.27,1.73.53,3.48.78,5.22.49,3.51.93,7,1.33,10.57.22,2,.44,4.08.64,6.13,0,.15.2.15.19,0Q214.24,197.5,212.61,186.92Z"/><path class="an" d="M213.31,162.75c0-.4,0-.81-.05-1.21a2.29,2.29,0,0,0-.25-1.15,1.1,1.1,0,0,0-.85-.47,7.63,7.63,0,0,0-.95-.09,8.55,8.55,0,0,0-2,.15c-.19,0-.31.25-.35.49a2.11,2.11,0,0,0-.26,1.06c0,.46,0,.92-.06,1.37s0,.88,0,1.31a2.19,2.19,0,0,0,.29,1.25c.45.64,1.21.49,1.8.47l2.15-.08a.61.61,0,0,0,.52-.66C213.34,164.38,213.34,163.57,213.31,162.75Zm-3.3,1.89h-.28l-.1,0,0,0,0,0v0c0-.11,0,0,0-.13s0-.38,0-.57c0-.39,0-.79,0-1.18s0-.86-.06-1.28v-.09h.1a7.83,7.83,0,0,1,1.53-.11c.27,0,.53,0,.8.06l.33.05h0c0,.09,0,.18,0,.28l0,.51c0,.35,0,.69,0,1s0,1,0,1.47l-1.38.06Z"/><path class="ai" d="M210,164.64s2.7-.11,3.93,0,9.32-1.16,11.11-2.45l1.8-1.3-.32-2.14s-6.33,2.08-9.14,2.14-7.43.53-7.43.53Z"/><path class="af" d="M211.74,162.82a.61.61,0,0,0-.11-.23l-.08-.08a.37.37,0,0,0-.2-.07.23.23,0,0,0-.15.05.31.31,0,0,0-.13.1.34.34,0,0,0-.08.17.41.41,0,0,0,0,.19l0,.14a.55.55,0,0,0,.1.22l.08.08a.31.31,0,0,0,.2.07.29.29,0,0,0,.16,0,.25.25,0,0,0,.12-.11.42.42,0,0,0,.09-.16.64.64,0,0,0,0-.2Z"/><path class="af" d="M215.17,162.58a.47.47,0,0,0,0-.1.24.24,0,0,0-.06-.08.21.21,0,0,0-.08-.06.25.25,0,0,0-.14,0,.38.38,0,0,0-.21.07.37.37,0,0,0-.13.17.53.53,0,0,0-.05.18v.06a.53.53,0,0,0,0,.13h0l0,.11h0l.06.09.07.07.09.05a.23.23,0,0,0,.14,0,.17.17,0,0,0,.1,0l0,0h0s0,0,.08-.07l0,0h0l0-.06h0l0-.11v-.13A.57.57,0,0,0,215.17,162.58Z"/><path class="af" d="M219.22,162.07a.67.67,0,0,0-.09-.21h0l-.08-.07-.08,0a.26.26,0,0,0-.15,0,.16.16,0,0,0-.09,0,.21.21,0,0,0-.08.06.28.28,0,0,0-.06.08.31.31,0,0,0-.05.1.52.52,0,0,0,0,.18v.12l0,.11.06.09.07.07.09,0a.22.22,0,0,0,.14,0l.09,0a.28.28,0,0,0,.12-.1h0a.35.35,0,0,0,.07-.15.25.25,0,0,0,0-.17Z"/><path class="af" d="M206.08,162.15c-.61,0-.61,1.21,0,1.21S206.69,162.15,206.08,162.15Z"/><path class="af" d="M224.54,166.31c0-.52-.4-.65-.73-.74s-.77-.19-1.14-.32l-1.1-.35c-.2-.06-.39-.12-.59-.16s-.35-.12-.49-.05a.09.09,0,0,0,0,.12,1,1,0,0,0,.35.38,3.08,3.08,0,0,0,.48.35,7.79,7.79,0,0,0,1,.52c.34.14.68.26,1,.38l.55.16.24.05c-.09,0,.17,0,.1,0A.32.32,0,0,0,224.54,166.31Z"/><path class="ai" d="M231.58,264a90.55,90.55,0,0,0,.58-11.88c-.07-3.93-.37-7.84-.76-11.74s-.9-7.85-1.38-11.77c-.24-2-.5-4-.7-6a20.2,20.2,0,0,1-.11-3,8.81,8.81,0,0,0,0-2.51c-.18-.78-.59-1.44-.77-2.24a12,12,0,0,1-.23-2.75c0-1.91.18-3.82.26-5.72q.24-6,.2-11.93a233.65,233.65,0,0,0-1.38-23.82c-.08-.69-.07-1.1-.15-1.79a14.39,14.39,0,0,0,1.67.38.4.4,0,0,0,0-.79c-.57-.21-.91-.19-1.81-.5l-2.07-.65c-.62-.2-1.2-.56-1.82-.79-.31-.11-.61-.25-.91-.39a1.15,1.15,0,0,0-.73-.19s0,.05,0,.08a1.46,1.46,0,0,0,.61.55l.91.59a9,9,0,0,0,1.8,1c.61.22,2.06.69,2.13.69.8,7.73,1.24,15.27,1.37,23.06.06,4,0,8-.09,11.93-.06,2-.14,3.93-.25,5.9a20.71,20.71,0,0,0,.09,5.1,15.24,15.24,0,0,0,.72,2.13,8.51,8.51,0,0,1,0,3,37.68,37.68,0,0,0,.42,5.52c.46,4,1,7.92,1.44,11.88a120.08,120.08,0,0,1,.8,23.75c-.35,3.92-.92,7.79-1,11.74s.12,8.13.2,12.19c0,1,.05,2,.1,3,0,.24.3.25.3,0,0-4.07-.16-8.15-.21-12.22,0-2,0-4,.12-5.94S231.37,266,231.58,264Z"/><path class="ai" d="M205.38,165.62a2.34,2.34,0,0,0-.54.88c-.17.33-.35.66-.54,1a15.48,15.48,0,0,1-1.26,1.79,11.78,11.78,0,0,1-1.47,1.52l-.76.61c-.2.14-.57.28-.61.61s.22.33.28.1v-.05a.06.06,0,0,0,0,0h0c.07.18,1.49-.93,1.64-1a13.6,13.6,0,0,0,1.42-1.42,12,12,0,0,0,1.24-1.72c.18-.3.36-.6.52-.92a2.49,2.49,0,0,0,.37-1.07C205.66,165.65,205.51,165.51,205.38,165.62Z"/><path class="ai" d="M213.61,197.8c-.19,2.85-.28,5.71-.41,8.57s-.25,5.77-.38,8.66c-.07,1.44-.13,2.89-.19,4.33a19.94,19.94,0,0,1-.42,3.87c-.24,1-1,2-.65,3.13a7.6,7.6,0,0,0,.55,1.15,1.91,1.91,0,0,1,.12,1.7,12.85,12.85,0,0,0-.83,3.35,33.19,33.19,0,0,0-.1,3.73c0,2.88,0,5.77,0,8.65q-.06,8.61-.47,17.22-.21,4.27-.52,8.55c-.1,1.43-.21,2.87-.32,4.3a20.77,20.77,0,0,1-.42,3.72,1.66,1.66,0,0,1-.74,1.11.32.32,0,0,0-.13.42,3.24,3.24,0,0,1-.12,3c-.17.29.14.69.32.4a3.91,3.91,0,0,0,.29-3.39,3,3,0,0,0,.94-2c.2-1.25.24-2.57.34-3.84.23-2.92.4-5.86.56-8.79q.49-8.76.61-17.55c0-2.91.05-5.83,0-8.74,0-1.42-.05-2.83-.06-4.24a19.07,19.07,0,0,1,.3-3.93,13,13,0,0,1,.56-1.77,2.31,2.31,0,0,0,.15-1.35c-.23-1-1.13-1.67-.8-2.84.16-.6.44-1.14.6-1.74a13.69,13.69,0,0,0,.31-1.81c.14-1.35.16-2.72.22-4.08q.38-8.79.75-17.58c0-.73.05-1.47.07-2.2C213.79,197.65,213.62,197.65,213.61,197.8Z"/><path class="ag" d="M211.29,103.32a4.78,4.78,0,0,0,.89,1.45,8.67,8.67,0,0,1,1.23,1.9c1.17,2.36,1.85,4.22,2.23,3.69a40.44,40.44,0,0,0,4.14-6.93,31.51,31.51,0,0,0,1.27-3.4s-3.92,2.57-5.84,3.06A11.85,11.85,0,0,1,211.29,103.32Z"/><path class="ag" d="M207.06,102s-.93,4.93-.64,5.11,1.91-1.74,2.41-2.42c1.67-2.3,2.46-1.33,2.46-1.33a1.22,1.22,0,0,0-1.18-1C209,102.13,207.06,102,207.06,102Z"/><path class="ah" d="M211.29,103.32s.11-.88.73-1c1.08-.24,3.17,0,4.95-1.83,1.12-1.13,2.35-3.64,2.05-4.34s.56.33,1.12,1.41c1.13,2.15.87,1.92.91,2.49.1,1.6-5,9.92-5.47,9.33s-1.58-4.08-3-5.78C212.28,103.2,211.57,103.54,211.29,103.32Z"/><path class="ai" d="M210.12,106.35c.16.32-1.38,6.51-2.25,14.57-1.07,10-1.52,22.45-1.47,26.8,0,4.57,2,6.24,2.64,8.51s3.17-7,3.18-8.51c0-.84-.61-15-.62-26.07,0-8.19.55-14.37.55-14.37Z"/><path class="ai" d="M232.59,190a106.1,106.1,0,0,1-12.68,1.88c-5.17.28-7.89-1.4-7.89-1.4s-5.26,1.78-5.77,1.68-9.16-.56-8.84-2.66,9.68-10.89,10.08-11.6,25.15,10.62,25.15,10.62Z"/><path class="ah" d="M211.29,103.32c.15-.25-.08-.91-.8-1.42s-1.53-1-1.39-2.17-.47-.4-.65,0a24.15,24.15,0,0,1-1.39,2.23c-.18.23-.36,3.52-.45,4.14s.73,0,1-.51a12.76,12.76,0,0,1,2.49-2.5C210.78,102.64,211.26,103.38,211.29,103.32Z"/><path class="t" d="M207.49,115.65c-.4,1-.77,2.8-.37,2.93s1.32-1.45,1.51-2.25.25-1.51-.17-1.77S207.76,115,207.49,115.65Z"/><path class="af" d="M207.06,102a20.79,20.79,0,0,0-.64,5.78c.18,2.73,2.41,25.21,2.41,25.21s2.74,56.72,2.12,56.91-13.72,1.27-13.54-.4,2-36.54,2.09-39.82.35-23,.35-23-1.66-18.22-1.45-18.84S207.06,102,207.06,102Z"/><path class="ai" d="M210.79,103.09a3.17,3.17,0,0,0,1.17.24c.55,0,1.08.8,1.25,1.11.08.16-.68,2.7-1.06,2.84s-1.39-.28-1.66-.22-1.22-3.18-.74-3.68A.89.89,0,0,1,210.79,103.09Z"/><path class="ag" d="M223.11,132.17c-.64,0-1.71,0-3.49-.13-2.23-.11-4.43-.27-4.71-.33a.26.26,0,0,1-.18-.18c-.49-1.19.31-12.46.62-13.3l0-.12,8.32-.28V118c0,5.18.2,13.06.38,13.71a.24.24,0,0,1,0,.23C224.09,132.09,224.06,132.17,223.11,132.17Zm-8.1-.86c.84.14,7.7.51,8.77.43-.18-1.21-.31-5.73-.39-13.48l-7.78.26C215.27,120,214.64,130.36,215,131.31Z"/><path class="ag" d="M223.15,121.3c-.68,0-1.35.13-2,.17s-1.28,0-1.92.07-1.27,0-1.91,0a17.39,17.39,0,0,0-2-.08c-.09,0-.12.19,0,.23a8.43,8.43,0,0,0,1.93.3c.66.07,1.32.13,2,.17a19.21,19.21,0,0,0,4-.16C223.5,122,223.52,121.28,223.15,121.3Z"/><path class="ag" d="M219.89,120.3a.7.7,0,0,0-.13-.29.48.48,0,0,0-.22-.16.42.42,0,0,0-.27,0s0,0-.06,0a.38.38,0,0,0-.17.14l-.08.13h0v0l0,.16a.69.69,0,0,0,0,.25.89.89,0,0,0,.14.36l.1.1.12.07a.34.34,0,0,0,.2,0,.3.3,0,0,0,.18-.08h0a.32.32,0,0,0,.11-.1l.08-.13a.75.75,0,0,0,0-.16A1,1,0,0,0,219.89,120.3Z"/><path class="ak" d="M193,144.65a7,7,0,0,1,1.2-.28,3.78,3.78,0,0,1,1.06-.1,1.13,1.13,0,0,1,.82.63l.08-.1a1.08,1.08,0,0,1,.62-.25,4.27,4.27,0,0,1,1.38.09c.08,0,.07.16,0,.15a2.32,2.32,0,0,0-1.08,0,1.27,1.27,0,0,0-.42.31c-.11.1-.2.22-.33.25a1.37,1.37,0,0,0-.17.23c-.11.19-.35,0-.29-.18a.55.55,0,0,0-.27-.6,1.6,1.6,0,0,0-.78-.08,7.31,7.31,0,0,1-1.81,0C192.92,144.76,192.92,144.67,193,144.65Z"/><path class="ah" d="M243.49,191c0,.39.38,5.39,0,5.44s-4.53-.52-4.85-1.21c-.14-.3,0-7.46,0-7.46Z"/><path class="aa" d="M190.63,143c1.68-5.44,6.72-16,10.35-22.11.32.3,3.73,1.51,3.26,3s-2.87,10.66-4,15.47c-1.27,5.67-3.06,13.6-7.33,15.5C185.91,158,188.7,149.22,190.63,143Z"/><path class="af" d="M221.05,100s-2.33,9.2-4.47,13.8-8.51,23.63-8.51,23.63l2.07,51.45s8.91,1.46,13.28.88,10.23-.08,10.25-.58S230,160,229.58,155.48s.53-47.63,0-48.08S221.05,100,221.05,100Z"/><path class="af" d="M244.9,195.39c-.68.73-7.1-1.67-7.1-1.67S236,179,235.22,173.45c-.63-4.27-3-17.25-2.58-18,.93-1.48.34-1.14,0-2s-2.61-9-3.93-15.3-2.53-21.32-1.86-26.09,2.73-4.69,2.73-4.69,5.08,3,8.06,15.88,5.79,33.19,6.05,35.44S245.93,194.29,244.9,195.39Z"/><path class="v" d="M203.82,111.2l.74-.7c-.59-.11-1.17-.22-1.76-.37a.28.28,0,0,1-.16-.21c-.25-1.7-.56-3.39-.75-5.11,0-.24.24-.35.29-.1.35,1.6.59,3.25.88,4.87.74.11,1.47.26,2.21.39.25,0,.21.46.06.6l-1,1a12.11,12.11,0,0,0-1,.94,1.61,1.61,0,0,0-.22,1.37l.21,1.55c.29,2,.61,3.9,1,5.83q1.09,5.85,2.65,11.52c.47,1.71,1,3.41,1.51,5.09,0-1.15,0-2.3,0-3.44,0-.43.53-.43.52,0,0,.89,0,1.79,0,2.69a46,46,0,0,1,5.49-9.41l7.94-11.19a13.9,13.9,0,0,0,1.05-1.54,2,2,0,0,0-.05-1.84,24.9,24.9,0,0,0-1.57-3.34c-.16-.27.14-.62.36-.45a8.43,8.43,0,0,0,2.84,1.49,35.54,35.54,0,0,0-.74-7.85c0-.15.14-.21.18-.07a28.62,28.62,0,0,1,1,8.27c0,.2-.14.31-.28.27a8.09,8.09,0,0,1-2.32-.92,19.77,19.77,0,0,1,.92,2,5.06,5.06,0,0,1,.45,1.52,2.47,2.47,0,0,1-.35,1.42,33.26,33.26,0,0,1-2,2.8L220,121q-2.08,3-4.19,5.89c-1.21,1.71-2.43,3.41-3.55,5.21a32.29,32.29,0,0,0-3.16,6.43c.06,2.2.16,4.41.25,6.61.14,3.58.28,7.15.41,10.73.26,7.19.57,14.37.86,21.55q.12,3,.22,6c.07,1.92.17,3.86.16,5.79h0s0,0,0,0v.17h0a1,1,0,0,1,0,.17c0,.24-.25.22-.27,0-.17-1.79-.22-3.6-.3-5.4s-.16-3.61-.23-5.41q-.22-5.37-.43-10.73c-.29-7.18-.6-14.37-.89-21.55-.1-2.36-.21-4.74-.28-7.11a.2.2,0,0,1-.1-.12,133,133,0,0,1-5.64-24.09c-.13-.92-.48-2.2.06-3A6.72,6.72,0,0,1,203.82,111.2Z"/><path class="aa" d="M205.82,114.49s1.54-2,1.61-3.3-.53-1.12-.72-.82A6.68,6.68,0,0,1,205,112.3c-.44.37-3.34,1.9-2.56,2.74S203.92,116.48,205.82,114.49Z"/><path class="t" d="M201.48,123.54c-.51-1.07-.77-1.33-.53-2.54l0-.11c.23-1.06.64-2.92.71-3.42a13.61,13.61,0,0,1,1.13-4.36c.38-1,5.53-2.75,5.84-1.92a7.58,7.58,0,0,1,.09,1.73s.32,0,.37.64a4.94,4.94,0,0,1-.45,1.92c-.37,1.07-1.62-1.26-1.88.59-.18,1.28.2,1.65-.08,2.78-.23.93-1.64,2.28-2.47,5C204.18,123.8,202,124.58,201.48,123.54Z"/><path class="t" d="M206.77,114.41c-.41,1-.78,2.8-.37,2.93s1.32-1.45,1.51-2.25.25-1.51-.17-1.77S207,113.75,206.77,114.41Z"/><path class="am" d="M208.41,112.67a1.08,1.08,0,0,0-.31,0l-.42,0c-.27,0-.53.07-.8.12a6.49,6.49,0,0,0-1.54.46,0,0,0,0,0,0,0c.51-.14,1-.3,1.54-.4.26,0,.51-.09.77-.12l.39,0a1.12,1.12,0,0,0,.36,0A0,0,0,0,0,208.41,112.67Z"/><path class="am" d="M207.39,111.05h-.09l-.2,0-.39.08a5.56,5.56,0,0,0-.77.22s0,0,0,0l.78-.17.39-.06.19,0s.07,0,.09,0l.06,0s0,0,0,0Z"/><path class="am" d="M208.42,114.41a.7.7,0,0,0-.6-.18,2.69,2.69,0,0,0-.79.15,3.29,3.29,0,0,0-.78.32s0,0,0,0c.22-.06.43-.17.65-.25a3.79,3.79,0,0,1,.72-.18.9.9,0,0,1,.71.13c.15.14.18.37.29.54s0,0,0,0A.87.87,0,0,0,208.42,114.41Z"/><path class="ah" d="M201.44,118.78c-.08-.06-.19-.07-.58,1.25s-.62,1.72-.55,1.72,4.27,3.86,4.37,3.79a10.22,10.22,0,0,0,.58-2.62C205.16,122.62,201.58,118.89,201.44,118.78Z"/><path class="af" d="M200.92,119.83s4.9,5.22,4.79,6.38a69.56,69.56,0,0,1-3,11.49c-1.16,3-4.4,16.75-7.4,18.57s-6.26,3.57-7.44,1.43-.56-6.19.84-11.47,6.12-16,7.64-19.41S200.25,119,200.92,119.83Z"/><path class="v" d="M199.87,146.93c.15-.72.33-1.44.52-2.14.38-1.4.82-2.76,1.28-4.11,1-2.8,2-5.56,2.79-8.44.21-.77.4-1.56.57-2.35a20.34,20.34,0,0,1,.51-2.37s0,0,0,0a8.7,8.7,0,0,1-.27,2.1c-.14.73-.31,1.44-.49,2.15-.37,1.4-.79,2.77-1.24,4.12-.94,2.81-2,5.57-2.77,8.45-.22.77-.41,1.55-.59,2.34a14.3,14.3,0,0,1-.53,2.39c0,.06-.1,0-.11,0A7.57,7.57,0,0,1,199.87,146.93Z"/><path class="v" d="M191,139.94c.3-.9.61-1.8.93-2.69q.93-2.61,2-5.14a103.76,103.76,0,0,1,4.71-9.85c.45-.82.9-1.67,1.39-2.45.27-.43.84-.12.84-.12a1.52,1.52,0,0,0-.75.46c-.2.37-.41.74-.62,1.11-.4.71-.79,1.44-1.17,2.17-.77,1.45-1.51,2.94-2.22,4.45q-2.11,4.49-3.86,9.25c-.32.88-.64,1.78-.94,2.68a24.62,24.62,0,0,1-1,2.74s-.07,0-.07,0A17.21,17.21,0,0,1,191,139.94Z"/><path class="ak" d="M195.59,129.16c.07-.39.34.12.69.62a12.06,12.06,0,0,0,2.69,2.77c1.87,1.48,3.9,1.74,4.71,2.13.21.1.1.47-.12.46a8.47,8.47,0,0,1-2.76-.63,14.7,14.7,0,0,1-2.48-1.31,7.78,7.78,0,0,1-1.82-1.67A3.45,3.45,0,0,1,195.59,129.16Z"/><path class="ak" d="M198.1,136a7.52,7.52,0,0,0,4.39,1.36c.33,0,.41.57.08.68a4.57,4.57,0,0,1-2.59,0,7.2,7.2,0,0,1-2.42-1.16c-1.43-1-3.58-3.45-3.33-4.81C194.35,131.39,196.77,135,198.1,136Z"/><path class="ak" d="M193.09,135c.46,1.74,2.48,3.66,3.86,4.61a7.51,7.51,0,0,0,2.36,1.08c.43.11.87.17,1.31.24.22,0,.85,0,.84.46s-.66.5-1,.52a4.72,4.72,0,0,1-1.44-.16,8.21,8.21,0,0,1-2.68-1.22,9.92,9.92,0,0,1-3.73-5.06C192.49,135,193,134.58,193.09,135Z"/><path class="ak" d="M236,181.43c.05-.35.19-.73.5-.79.1,0,.17.1.13.22a.72.72,0,0,0,0,.52c0,.09,0,0,.06.07s.11.14.17.21a1.65,1.65,0,0,0,.95.47,8.68,8.68,0,0,0,2.32.29,10.31,10.31,0,0,0,2.28-.28c.79-.17,1.55-.48,2.34-.66.22,0,.32.27.15.44a5.9,5.9,0,0,1-2.77,1.38,9.73,9.73,0,0,1-2.94.24,10.27,10.27,0,0,1-1.44-.23,2.79,2.79,0,0,1-1.31-.57A1.34,1.34,0,0,1,236,181.43Z"/><path class="ak" d="M235.79,177.06c.27-.1.57-.18.78.14a.27.27,0,0,1,.05.14l.46.24a9.35,9.35,0,0,0,1.08.39,8,8,0,0,0,2.27.29,7.25,7.25,0,0,0,2.2-.37,10.62,10.62,0,0,0,1.07-.4c.39-.17.68-.34,1.05,0a.18.18,0,0,1,0,.16,1.2,1.2,0,0,1-.8,1,6.43,6.43,0,0,1-1.18.5,8.37,8.37,0,0,1-4.79.14,6,6,0,0,1-2.34-1C235.34,178,235.39,177.19,235.79,177.06Z"/><path class="ak" d="M235.23,172.21a.49.49,0,0,1,.24,0c.15,0,.16,0,.3,0a1.29,1.29,0,0,1,.6.24,7.65,7.65,0,0,0,1.08.52,7.46,7.46,0,0,0,2.35.48,7,7,0,0,0,2.32-.29c.79-.23,1.55-.63,2.32-.93.26-.09.48.36.27.6a6.37,6.37,0,0,1-5,1.77,8.07,8.07,0,0,1-2.59-.52,9.68,9.68,0,0,1-1.25-.62,1.1,1.1,0,0,1-.49-.47,2.25,2.25,0,0,0-.08-.24c-.08-.13-.17-.16-.23-.31S235.12,172.22,235.23,172.21Z"/><path class="ak" d="M206.6,156.73a1.66,1.66,0,0,1,.28-.6l.22-.22a.92.92,0,0,1,.54-.18.7.7,0,0,1,.42.11.78.78,0,0,1,.34.29,1.09,1.09,0,0,1,.23.44,1.51,1.51,0,0,1,.09.53l0,.36a1.43,1.43,0,0,1-.28.61l-.22.21a.83.83,0,0,1-.54.19.62.62,0,0,1-.41-.12.78.78,0,0,1-.35-.28,1.14,1.14,0,0,1-.22-.44,1.19,1.19,0,0,1-.09-.53Z"/><path class="ak" d="M206.06,142.47a1.39,1.39,0,0,1,.28-.6l.22-.22a.88.88,0,0,1,.54-.18.67.67,0,0,1,.41.11.81.81,0,0,1,.35.29,1.07,1.07,0,0,1,.22.44,1.16,1.16,0,0,1,.09.53l0,.36a1.71,1.71,0,0,1-.28.61l-.22.21a.93.93,0,0,1-.54.19.71.71,0,0,1-.42-.12.9.9,0,0,1-.34-.28,1.05,1.05,0,0,1-.22-.45,1.27,1.27,0,0,1-.1-.52Z"/><path class="ak" d="M203.67,126.76a.82.82,0,0,1,.16-.34l.12-.12a.53.53,0,0,1,.31-.11.39.39,0,0,1,.23.07.43.43,0,0,1,.2.16.53.53,0,0,1,.12.25.73.73,0,0,1,.06.3l0,.2a.94.94,0,0,1-.16.35l-.12.12a.52.52,0,0,1-.31.1.35.35,0,0,1-.24-.06.48.48,0,0,1-.19-.16.75.75,0,0,1-.13-.25.73.73,0,0,1,0-.3Z"/><path class="ak" d="M238.62,191.63a.88.88,0,0,1,.15-.34l.13-.12a.48.48,0,0,1,.3-.11.4.4,0,0,1,.24.07.41.41,0,0,1,.19.16.66.66,0,0,1,.13.25.73.73,0,0,1,.05.3l0,.2a.77.77,0,0,1-.16.34l-.12.13a.5.5,0,0,1-.31.1.39.39,0,0,1-.23-.07.43.43,0,0,1-.2-.16.53.53,0,0,1-.12-.25.72.72,0,0,1-.06-.29Z"/><path class="ak" d="M206.8,169.88a1.48,1.48,0,0,1,.27-.61l.22-.21a.87.87,0,0,1,.54-.19.64.64,0,0,1,.42.12.76.76,0,0,1,.34.28,1.16,1.16,0,0,1,.23.44,1.34,1.34,0,0,1,.09.53l0,.36a1.37,1.37,0,0,1-.28.61l-.21.21a.88.88,0,0,1-.55.19.63.63,0,0,1-.41-.12.84.84,0,0,1-.35-.28,1.07,1.07,0,0,1-.22-.44,1.16,1.16,0,0,1-.09-.53Z"/><path class="ak" d="M213.15,156.48a1.54,1.54,0,0,1,.27-.61l.22-.21a.87.87,0,0,1,.54-.19.64.64,0,0,1,.42.12.76.76,0,0,1,.34.28,1.16,1.16,0,0,1,.23.44,1.55,1.55,0,0,1,.09.53l0,.37a1.39,1.39,0,0,1-.28.6l-.21.22a.93.93,0,0,1-.55.18.62.62,0,0,1-.41-.12.72.72,0,0,1-.35-.28,1.07,1.07,0,0,1-.22-.44,1.16,1.16,0,0,1-.09-.53Z"/><path class="ak" d="M212.6,142.22a1.49,1.49,0,0,1,.28-.61l.22-.21a.83.83,0,0,1,.54-.19.6.6,0,0,1,.41.12.78.78,0,0,1,.35.28,1.14,1.14,0,0,1,.22.44,1.19,1.19,0,0,1,.09.53l0,.37a1.66,1.66,0,0,1-.28.6l-.22.21a.87.87,0,0,1-.54.19.64.64,0,0,1-.42-.12.81.81,0,0,1-.34-.28,1,1,0,0,1-.22-.44,1.32,1.32,0,0,1-.1-.53Z"/><path class="ak" d="M213.34,169.62a1.5,1.5,0,0,1,.27-.6l.22-.22a.93.93,0,0,1,.54-.19,1,1,0,0,1,.76.41,1.09,1.09,0,0,1,.23.44,1.3,1.3,0,0,1,.09.52l0,.37a1.39,1.39,0,0,1-.28.6l-.21.22a1,1,0,0,1-.55.19.78.78,0,0,1-.41-.12.87.87,0,0,1-.35-.29,1.07,1.07,0,0,1-.22-.44,1.16,1.16,0,0,1-.09-.53Z"/><path class="v" d="M230.13,164.29s-7.07.16-7.46,1,1,5.85,2.84,5.65,6.8.5,7.13-.54S230.13,164.29,230.13,164.29Z"/><path class="v" d="M200.2,164.89c-.16-.25-1.3-.5-1.3-.5s-1.78,5.7-1.34,6.32,1.52.86,1.94.41S200.6,165.53,200.2,164.89Z"/><path class="ak" d="M197.88,143.28a7.51,7.51,0,0,1-1.18-.41,4,4,0,0,1-1-.51,1.54,1.54,0,0,1-.52-1,.22.22,0,0,1-.11,0,.92.92,0,0,1-.64-.12,5.47,5.47,0,0,1-1.21-.84c-.07-.06,0-.19.06-.13a2.69,2.69,0,0,0,1,.57,1,1,0,0,0,.48-.05.72.72,0,0,1,.38,0,.7.7,0,0,0,.23-.11c.17-.11.33.16.21.33a.59.59,0,0,0,0,.69,2,2,0,0,0,.67.5,8.62,8.62,0,0,1,1.64,1C198,143.21,197.93,143.3,197.88,143.28Z"/><path class="v" d="M227.17,118.8a30.17,30.17,0,0,1,1.57-4.79c.35-.81.73-1.59,1.14-2.35.27-.49.62-1.43,1.12-1.52.1,0,.17,0,.18.17,0,.64-.52,1.23-.78,1.74-.37.69-.7,1.4-1,2.12A31.28,31.28,0,0,0,227.8,119a44.79,44.79,0,0,0-1,10.1c0,.12-.15.16-.17,0A26,26,0,0,1,227.17,118.8Z"/><path class="v" d="M196.31,115.31A30.59,30.59,0,0,1,197,112a20.59,20.59,0,0,1,1-2.95,12.94,12.94,0,0,1,.73-1.44,2.86,2.86,0,0,1,.83-1.08s0,0,0,0a5.38,5.38,0,0,1-.68,1.25c-.24.44-.47.88-.67,1.34a22.12,22.12,0,0,0-1.07,3.06,30,30,0,0,0-.67,3.13c-.19,1.1-.31,2.21-.52,3.31a.05.05,0,0,1-.1,0A24.47,24.47,0,0,1,196.31,115.31Z"/><path class="af" d="M205.94,75.49a17.72,17.72,0,0,1-.37-6.12c.13-1.14,1.72-2.78,2.31-2.76,6.81.27,11.16,7,12.7,9.36s2,3.64,1.5,5.14-1.63.88-1.63.88l.08-.87c-.59-1.17-2.12-1.9-5.39-3.8A13.52,13.52,0,0,0,205.94,75.49Z"/><path class="af" d="M219.36,81.19c-.44-.39-6.52-2.28-11.52-2a16.85,16.85,0,0,0-3.42.56,9.53,9.53,0,0,0-1.94.78L206,77a9.25,9.25,0,0,1,3.1-1.65C216.16,74.28,219.36,81.19,219.36,81.19Z"/><path class="v" d="M220.53,81.12s-.15,2.38-.39,1.55-3.77-4.64-8-5.5a14.83,14.83,0,0,0-6.4.1,10.43,10.43,0,0,1,.44-3c.55-1.48,5-.64,7.3.3C215.26,75.31,220.12,79.65,220.53,81.12Z"/><path class="ak" d="M205.82,76.61a.32.32,0,0,0,.27-.06.13.13,0,0,0,0-.07,7.2,7.2,0,0,1,4-.25c.76.09,1.53.2,2.28.33l1.14.23c.2,0,.39,0,.58.07h0l0,.11a.48.48,0,0,0,.24.23l.1,0h0a.78.78,0,0,0,.24.27l.32.28a8.88,8.88,0,0,0,.7.55,6.75,6.75,0,0,0,.65.44,1,1,0,0,0,.66.22.44.44,0,0,0,.39-.53,1.39,1.39,0,0,0-.35-.67A3.47,3.47,0,0,0,216,77a6.29,6.29,0,0,0-.71-.3,3.17,3.17,0,0,0-.33-.11h0s0,0,0-.07a.58.58,0,0,0-.19-.31l0,0-.08,0-.1,0h0a.37.37,0,0,0-.15,0l-.06,0-.07.07-.08.13s0,0,0,0l-.18-.09a3.62,3.62,0,0,0-.62-.18c-.37-.1-.75-.2-1.13-.28a19.34,19.34,0,0,0-2.28-.37c-1.37-.15-3-.42-4.27.45A.36.36,0,0,0,205.82,76.61Zm9.24.47.11,0c.27.13.54.28.81.43a4.38,4.38,0,0,1,.7.45,2.23,2.23,0,0,1,.26.27.86.86,0,0,1,.1.16h0a1.15,1.15,0,0,1-.47-.23,6.62,6.62,0,0,1-.64-.44,7.84,7.84,0,0,1-.64-.5Z"/><path class="ak" d="M206,71.19c.19.14.48.38.41.71a.22.22,0,0,0,.13.25c.05,0,.3.08.27.16a.6.6,0,0,0,0,.4,3.36,3.36,0,0,0,.87.74c.31.12.6-.14.89-.45a.77.77,0,0,0,.14-.21,2.6,2.6,0,0,1,.1-.25s.39-.14.44-.18a.49.49,0,0,0,.07-.55c.2-.59.4-.61.39-.83s-.4-.11-.61-.06a6.56,6.56,0,0,1-.73.17c-.11,0-.59-.33-.71-.32s-.43.37-.5.41a1.32,1.32,0,0,0-1.15-.36A.21.21,0,0,0,206,71.19ZM208,73.06a2.3,2.3,0,0,0,.7-1.46.28.28,0,0,0-.07-.22h0c.11,0,.23,0,.34,0a2.82,2.82,0,0,1,.41-.06,1.45,1.45,0,0,1-.26.29.27.27,0,0,0,0,.34.14.14,0,0,1,0,.18s-.14,0-.18,0a.34.34,0,0,0-.14,0c-.18.12-.18.43-.35.58S208.1,73.09,208,73.06Zm-1.18-1.27a1,1,0,0,0-.21-.57,1.12,1.12,0,0,1,.53.29s0,0,0,.07a2.41,2.41,0,0,0,.64,1.43,5,5,0,0,1-.57-.43A1,1,0,0,0,206.77,71.79Z"/><path class="af" d="M249.37,300.15c.08,1.84,1.29,3.26,2.71,3.16s2.5-1.67,2.42-3.52-1.29-3.25-2.71-3.15S249.29,298.31,249.37,300.15Z"/><path class="af" d="M241.61,290.91c.08,1.84,1.29,3.26,2.71,3.16s2.5-1.67,2.43-3.51-1.3-3.26-2.72-3.16S241.53,289.07,241.61,290.91Z"/><path class="ao" d="M247.63,299.43S240.78,289.52,241,286s-3.35-53.2-1.75-53.3,14.28.14,18.75,8.76,3.25,57.07,3.25,57.07S247.76,298,247.63,299.43Z"/><path class="af" d="M237.74,199.82c-.07-1.11.47-1.81,1-1.64a22.47,22.47,0,0,1,2.21.87,3.42,3.42,0,0,1,1.61,1.86,10.68,10.68,0,0,1,.53,3.37c.06,1.55.1,3.1.16,4.64.2,6.19.37,12.4.49,18.59,0,1.69.08,3.38.1,5.07s.11,3.55,0,5.28c-.06.67-.84.85-.94.14-.2-1.39-.21-7.14-.27-8.55-.12-2.87-.31-26-1.14-27.54-.17-.32-2.31-2-2.59-1.27s1.2,28.13,1.45,34c.11,2.56-.73,2.89-1,1.92C239.16,236,238.15,205.82,237.74,199.82Z"/><path class="ap" d="M247.63,299.43c1.54.59,12.51.61,13.6-.94s1.08-49.79-3.48-56.19S245,236.83,245,236.83,246.1,298.84,247.63,299.43Z"/><path class="aq" d="M244.92,233.6a17.79,17.79,0,0,1,2.7,1.1c.79.36,1.58.7,2.36,1.09a7.39,7.39,0,0,1,3.45,3c1,1.78,1,4.15,1.06,6.25q.18,3.72.33,7.44.62,14.88.74,29.79c0,2.76,0,5.53,0,8.29s0,5.66-.09,8.47c0,.31-.37.35-.37,0-.1-4.88,0-9.77,0-14.64s-.11-9.77-.22-14.65-.25-9.7-.43-14.55c-.1-2.42-.2-4.85-.31-7.27,0-1.21-.11-2.42-.17-3.63a24.39,24.39,0,0,0-.3-3.33,5.84,5.84,0,0,0-1.31-2.79,7.27,7.27,0,0,0-2.05-1.53c-.83-.45-1.69-.81-2.55-1.19a19.25,19.25,0,0,1-2.95-1.46C244.65,233.88,244.74,233.56,244.92,233.6Z"/><path class="t" d="M238.65,200.28c0-.68.38-1.13.68-.7s2.25,3.12,1.8,3.36a1.83,1.83,0,0,1-1.79-.46A6.29,6.29,0,0,1,238.65,200.28Z"/><path class="t" d="M237.7,199.51c.13-.55.59-.84.77-.44s1.46,2.91,1,3a1.83,1.83,0,0,1-1.58-.69A4.45,4.45,0,0,1,237.7,199.51Z"/><path class="t" d="M237.31,199.09c.15-.32.33-.28.6-.07s.81,2.13.26,2.28c-.3.09-.77-.59-.89-.93A2.81,2.81,0,0,1,237.31,199.09Z"/><path class="aa" d="M237.79,200.9v-.23c0-.17,0-.34,0-.51a4.36,4.36,0,0,1,0-.51l0-.23a2.07,2.07,0,0,0,0-.22s0,0,0,0a1.66,1.66,0,0,0-.06.21c0,.09,0,.17,0,.26s0,.31,0,.47v.5a2.44,2.44,0,0,1,0,.27,1,1,0,0,0,0,.23h0A.59.59,0,0,0,237.79,200.9Z"/><path class="aa" d="M239.08,201.81c0-.09-.05-.18-.07-.27l-.12-.6a6.17,6.17,0,0,1-.09-.62l0-.29a2.62,2.62,0,0,0,0-.28h0a1.34,1.34,0,0,0,0,.28c0,.11,0,.22,0,.32a4.89,4.89,0,0,0,.08.57,5.31,5.31,0,0,0,.12.6,2.82,2.82,0,0,0,.07.31.72.72,0,0,0,.08.26s0,0,0,0A1.17,1.17,0,0,0,239.08,201.81Z"/><path class="t" d="M240.05,201.49c-.06-.59.25-1,.56-.62l.85,1,.3,1.9a3,3,0,0,1-.89-.42A5.63,5.63,0,0,1,240.05,201.49Z"/><path class="aa" d="M240.16,201.29c0,.16,0,.31,0,.47a2.49,2.49,0,0,0,.12.47,3.29,3.29,0,0,0,.16.44l.09.22a1,1,0,0,1,.09.22h0a.52.52,0,0,1-.1-.18c0-.08-.07-.16-.1-.23a4.68,4.68,0,0,1-.18-.48,2.46,2.46,0,0,1-.11-.45,1.3,1.3,0,0,1,0-.48Z"/><path class="t" d="M242,199.49c-.16.52-.13,1.11-.34,1.92a7.65,7.65,0,0,0-.56,2.12c.1,1.65.42,1.76.59,1.57.32-.36.71-1.59,1.63-2.85a4.24,4.24,0,0,0,.25-3.81C243,197.34,242.3,198.57,242,199.49Z"/><path class="v" d="M233.08,111.42s-1.75,2.32-2.62,1.9-4.72-5.36-4.8-5.92.73-2.86,1.23-2.88S233.2,110.7,233.08,111.42Z"/><path class="v" d="M201.89,104.75a12.69,12.69,0,0,1-.23,2.56c-.18.35-4.52,3.8-4.83,3.26a5.37,5.37,0,0,1,.12-3C197.27,107,201.84,103.92,201.89,104.75Z"/><path class="ak" d="M223,109.51a.82.82,0,0,0,.51.22c.33.08.67.15,1,.25a.26.26,0,0,0,.3-.3c0-.42,0-.85-.07-1.27a6,6,0,0,0-.17-1.27c-.07-.22-.31-.19-.33.06s0,.42,0,.63,0,.4,0,.61,0,.55,0,.82l-.47-.17-.4-.16a.38.38,0,0,0-.41,0l-.05,0a.69.69,0,0,0-.07.15A.48.48,0,0,0,223,109.51Z"/><path class="ak" d="M203.12,107.42a.22.22,0,0,1,.26.14c.08.25.13.55.19.82l.08.4,0,.16h.55a1.87,1.87,0,0,1,.32,0l.17,0,.08,0,.05,0a.13.13,0,0,1,0,.23l-.05.05a.25.25,0,0,1-.09,0,.55.55,0,0,1-.17,0l-.38.05-.37,0a.59.59,0,0,1-.37-.06.55.55,0,0,1-.2-.4l-.1-.44-.1-.44a1.81,1.81,0,0,1-.08-.51A.29.29,0,0,1,203.12,107.42Z"/><path class="ak" d="M229.64,109.12c.41,0,.82.1,1.23.17q.3,0,.6.12l.3.09a1,1,0,0,1,.35.26c.17.23.09.34.06.37s-1.33-.39-2.29-.42l.06,1,0,.62,0,.34v.17s.05.37,0,.46a.22.22,0,0,1-.36,0c-.15-.15-.12-.47-.13-.69l0-.73c0-.5,0-1-.05-1.48C229.41,109.26,229.52,109.1,229.64,109.12Z"/><path class="ak" d="M228.33,107.26l.86,0a2.22,2.22,0,0,1,.84.14c.07,0,.4.4.3.45a7.63,7.63,0,0,1-1.72,0c0,.4.06.8.08,1.2l0,.75a6.51,6.51,0,0,1,0,.77.35.35,0,0,1-.26.37.3.3,0,0,1-.33-.27c0-.27,0-.54,0-.81s0-.52,0-.77c0-.52,0-1,0-1.55C228.08,107.42,228.2,107.26,228.33,107.26Z"/><path class="ak" d="M197.63,106.9a3.62,3.62,0,0,1,.65.33.53.53,0,0,1,.22.28,1.17,1.17,0,0,1,0,.49c-.06.3-.11.6-.17.91A6.8,6.8,0,0,1,198,110c0,.12-.22.15-.22,0a9.73,9.73,0,0,1,.12-1.07c0-.27.08-.53.12-.8l.07-.38s0-.09,0-.09l-.06,0a5.55,5.55,0,0,0-.56-.24C197.25,107.34,197.36,106.81,197.63,106.9Z"/><path class="ak" d="M198.41,106.28c0-.13.16-.24.26-.19l.71.36a.71.71,0,0,1,.39.66c0,.31,0,.63,0,.94s0,.34,0,.51a1.12,1.12,0,0,1-.06.48.12.12,0,0,1-.21,0,1.08,1.08,0,0,1-.06-.4c0-.15,0-.29,0-.43s0-.57,0-.86a.79.79,0,0,0,0-.34c0-.06-.11-.08-.16-.1l-.63-.3A.29.29,0,0,1,198.41,106.28Z"/><path class="ak" d="M199.8,105.37a.74.74,0,0,1,.38.16,2.49,2.49,0,0,1,.3.19,1.73,1.73,0,0,1,.48.42,1.1,1.1,0,0,1,.06.78,6.56,6.56,0,0,0-.09.88.23.23,0,0,1-.11.18h-.08a.21.21,0,0,1-.11-.18,5.35,5.35,0,0,1,0-.8c0-.16.11-.44,0-.58s-.28-.17-.41-.21a2.39,2.39,0,0,1-.28-.13.85.85,0,0,1-.34-.21A.31.31,0,0,1,199.8,105.37Z"/><path class="ak" d="M226.8,107.72c0-.48,0-1,0-1.45s.13-.75.46-.86a1.37,1.37,0,0,1,.45,0,1.14,1.14,0,0,1,.54.14c.11.07.1.34,0,.37s-.55-.07-.82,0a.18.18,0,0,0-.15.21,5.44,5.44,0,0,0,0,.57c0,.4,0,.79,0,1.19,0,.2,0,.41,0,.61a1.51,1.51,0,0,1-.07.64.19.19,0,0,1-.35,0,2,2,0,0,1,0-.74Z"/><path class="ak" d="M230.23,110.16a4.56,4.56,0,0,0,.33,3c.18.19,1.79-.86,2.19-1.71C233.05,110.75,230.7,110,230.23,110.16Z"/><path class="ak" d="M197.86,107.92c0-.2-.69-.4-.89-.06-.08.13-.29,2.25,0,2.59S197.87,109.36,197.86,107.92Z"/><path class="k" d="M353.16,254.56c2.13-24.25,11.48-51.27,9.5-55.93-2.57-6-8.83-10-10.55-11-15.17-9.33-25.63,30.26-25.63,30.26s-36-3.38-38.22,2.55-1.84,35.46,1.41,35.52,1.52-23.07,5.59-20.2c.34.24,11.85,15.34,15,21.28,2.59,4.89-8.24,46.71-7.31,47.79,5.23,6.05,5.54-22.78,26.28-31.15,27-10.89,23.58,33.23,32.76,28.13C364.31,304.24,352.11,266.55,353.16,254.56Z"/><path class="k" d="M288.5,214.81a44.68,44.68,0,0,1,.66-5.68,8.29,8.29,0,0,1,1.89-4.18c1.27-1.28,2.87-1.45,4.47-1.62l5.32-.52c3.61-.33,7.22-.68,10.84-1,2-.15,4-.31,6-.39a25.84,25.84,0,0,1,6.09.06c.42.08.35.82,0,.94a23.65,23.65,0,0,1-5.09.71c-1.72.16-3.43.3-5.15.44-3.46.28-6.93.58-10.39.92-1.71.16-3.43.36-5.14.56l-2.57.31a8.7,8.7,0,0,0-2.12.44,3.89,3.89,0,0,0-2,2.92,26.9,26.9,0,0,0-.6,4.92q-.21,3.34-.14,6.71c0,1.14.07,2.28.15,3.41a6.68,6.68,0,0,1-.28,3.3.53.53,0,0,1-.9.12,5.39,5.39,0,0,1-.89-3c-.08-1-.13-2.06-.17-3.09A60,60,0,0,1,288.5,214.81Z"/><path class="ar" d="M352.72,228c-5.65,22.26-4.23,24.15-5.92,25.85-9,9.17-34.29,6.1-38.89,1.67-2.66-2.53-20.67-31.68-19.49-35.48,2-6.42,26.49-2.08,28.12-4.3s4.49-25.92,11.78-33c4.2-4.06,26.13.24,33.49,14.77C364.35,202.56,353.92,223.3,352.72,228Z"/><path class="k" d="M310.05,246.87a58.79,58.79,0,0,1,.82-7,10.28,10.28,0,0,1,2.36-5.17c1.58-1.59,3.57-1.8,5.56-2,2.21-.23,4.42-.44,6.63-.65,4.5-.41,9-.84,13.5-1.19,2.48-.19,5-.38,7.44-.48a32.57,32.57,0,0,1,7.58.07c.52.11.44,1,0,1.17a28.89,28.89,0,0,1-6.33.87c-2.14.2-4.28.39-6.42.55q-6.46.51-12.93,1.14c-2.14.2-4.27.45-6.4.7l-3.2.38a10.42,10.42,0,0,0-2.64.54c-1.41.54-2.16,2-2.56,3.62a34.36,34.36,0,0,0-.74,6.08c-.18,2.77-.24,5.55-.18,8.32,0,1.41.1,2.82.2,4.22a8.31,8.31,0,0,1-.36,4.09.66.66,0,0,1-1.12.15,6.7,6.7,0,0,1-1.1-3.76c-.1-1.27-.17-2.55-.22-3.82A77.83,77.83,0,0,1,310.05,246.87Z"/></svg>