<svg xmlns="http://www.w3.org/2000/svg" width="380px" height="322px"  xmlns:xlink="http://www.w3.org/1999/xlink" viewBox="0 0 380 322"><defs><style>.a,.dw,.fk,.fl,.h{fill:none;}.b{clip-path:url(#a);}.c{fill:url(#b);}.d{fill:url(#c);}.e{fill:url(#d);}.f{fill:url(#e);}.g{opacity:0.6;}.h{stroke:#fff;}.fk,.fl,.h{stroke-linecap:round;stroke-linejoin:round;}.dw,.h{stroke-width:3px;}.i{fill:url(#f);}.j{fill:#dbe4ff;}.k{fill:#b0bbdb;}.l{fill:url(#g);}.m{fill:#4f5785;}.n{fill:url(#h);}.o{fill:url(#i);}.p{fill:url(#j);}.q{fill:url(#k);}.r{fill:url(#l);}.s{fill:url(#m);}.t{fill:url(#n);}.u{fill:url(#o);}.v{fill:url(#p);}.w{fill:url(#q);}.x{fill:url(#r);}.y{fill:#b84949;}.z{fill:url(#s);}.aa{fill:url(#t);}.ab{fill:url(#u);}.ac{fill:url(#v);}.ad{fill:url(#w);}.ae{fill:url(#x);}.af{fill:url(#y);}.ag{fill:url(#z);}.ah{fill:url(#aa);}.ai{fill:url(#ab);}.aj{fill:url(#ac);}.ak{fill:url(#ad);}.al{fill:url(#ae);}.am{fill:url(#af);}.an{fill:url(#ag);}.ao{fill:url(#ah);}.ap{fill:url(#ai);}.aq{fill:url(#aj);}.ar{fill:url(#ak);}.as{fill:url(#al);}.at{fill:url(#am);}.au{fill:url(#an);}.av{fill:url(#ao);}.aw{fill:url(#ap);}.ax{fill:url(#aq);}.ay{fill:url(#ar);}.az{fill:url(#as);}.ba{fill:url(#at);}.bb{fill:url(#au);}.bc{fill:url(#av);}.bd{fill:url(#aw);}.be{fill:url(#ax);}.bf{fill:#ebf0ff;}.bg{fill:url(#ay);}.bh{fill:url(#az);}.bi{fill:url(#ba);}.bj{fill:url(#bb);}.bk{fill:url(#bc);}.bl{fill:url(#bd);}.bm{fill:url(#be);}.bn{fill:url(#bf);}.bo{fill:url(#bg);}.bp{fill:url(#bh);}.bq{fill:url(#bi);}.br{fill:url(#bj);}.bs{fill:url(#bk);}.bt{fill:url(#bl);}.bu{fill:url(#bm);}.bv{fill:#7aeb75;}.bw{fill:#c2f7a8;}.bx{fill:#64c471;}.by{fill:url(#bn);}.bz{fill:url(#bo);}.ca{fill:#73de6f;}.cb{fill:url(#bp);}.cc{fill:url(#bq);}.cd{fill:url(#br);}.ce{fill:#cdd2ed;}.cf{fill:url(#bs);}.cg{fill:url(#bt);}.ch{fill:url(#bu);}.ci{fill:url(#bv);}.cj{fill:url(#bw);}.ck{fill:url(#bx);}.cl{fill:url(#by);}.cm{fill:url(#bz);}.cn{fill:url(#ca);}.co{fill:url(#cb);}.cp{fill:url(#cc);}.cq{fill:url(#cd);}.cr{fill:url(#ce);}.cs{fill:url(#cf);}.ct{fill:url(#cg);}.cu{fill:url(#ch);}.cv{fill:url(#ci);}.cw{fill:url(#cj);}.cx{fill:url(#ck);}.cy{fill:url(#cl);}.cz{fill:url(#cm);}.da{opacity:0.5;fill:url(#cn);}.db{fill:#fff;}.dc{fill:url(#co);}.dd{fill:url(#cp);}.de{fill:url(#cq);}.df{fill:url(#cr);}.dg{fill:url(#cs);}.dh{fill:url(#ct);}.di{fill:url(#cu);}.dj{fill:url(#cv);}.dk{fill:url(#cw);}.dl{fill:url(#cx);}.dm{fill:url(#cy);}.dn{fill:url(#cz);}.do{fill:url(#da);}.dp{fill:url(#db);}.dq{fill:url(#dc);}.dr{fill:url(#dd);}.ds{fill:url(#de);}.dt{fill:url(#df);}.du{fill:#e6b66c;}.dv{fill:url(#dg);}.dw{stroke:#ff6369;stroke-miterlimit:10;}.dx{fill:url(#dh);}.dy{fill:url(#di);}.dz{fill:url(#dj);}.ea{fill:url(#dk);}.eb{fill:#ffa9a9;}.ec{fill:url(#dl);}.ed{fill:url(#dm);}.ee{fill:url(#dn);}.ef{fill:#eaba6e;}.eg{fill:url(#do);}.eh{fill:url(#dp);}.ei{fill:url(#dq);}.ej{fill:url(#dr);}.ek{fill:url(#ds);}.el{fill:#a9baff;}.em{fill:url(#dt);}.en{fill:url(#du);}.eo{fill:url(#dv);}.ep{fill:url(#dw);}.eq{fill:url(#dx);}.er{fill:url(#dy);}.es{fill:url(#dz);}.et{fill:url(#ea);}.eu{fill:url(#eb);}.ev{fill:url(#ec);}.ew{fill:url(#ed);}.ex{fill:#efab97;}.ey{fill:url(#ee);}.ez{fill:url(#ef);}.fa{fill:#312d63;}.fb{fill:#221f45;}.fc{fill:url(#eg);}.fd{fill:url(#eh);}.fe{fill:url(#ei);}.ff{fill:url(#ej);}.fg{fill:url(#ek);}.fh{fill:url(#el);}.fi{fill:url(#em);}.fj{fill:url(#en);}.fk{stroke:#3e397d;}.fl{stroke:#d8506b;}.fm{fill:url(#eo);}.fn{fill:url(#ep);}.fo{fill:url(#eq);}.fp{fill:url(#er);}.fq{fill:url(#es);}.fr{fill:url(#et);}.fs{fill:url(#eu);}.ft{fill:url(#ev);}.fu{fill:url(#ew);}.fv{fill:url(#ex);}.fw{fill:url(#ey);}.fx{fill:url(#ez);}.fy{fill:url(#fa);}.fz{fill:url(#fb);}.ga{fill:url(#fc);}.gb{fill:#d6d4eb;}.gc{fill:url(#fd);}.gd{fill:url(#fe);}.ge{fill:url(#ff);}.gf{fill:url(#fg);}.gg{fill:url(#fh);}.gh{fill:url(#fi);}.gi{fill:url(#fj);}.gj{fill:url(#fk);}.gk{fill:url(#fl);}.gl{fill:url(#fm);}.gm{fill:url(#fn);}.gn{fill:url(#fo);}.go{fill:url(#fp);}.gp{fill:url(#fq);}.gq{fill:url(#fr);}.gr{fill:url(#fs);}.gs{fill:url(#ft);}.gt{fill:url(#fu);}.gu{fill:url(#fv);}.gv{fill:url(#fw);}.gw{fill:url(#fx);}.gx{fill:url(#fy);}.gy{fill:url(#fz);}.gz{fill:url(#ga);}.ha{fill:url(#gb);}.hb{fill:url(#gc);}.hc{fill:url(#gd);}.hd{fill:url(#ge);}.he{fill:url(#gf);}.hf{fill:url(#gg);}.hg{fill:url(#gh);}.hh{fill:url(#gi);}.hi{fill:url(#gj);}.hj{fill:url(#gk);}.hk{fill:url(#gl);}.hl{fill:url(#gm);}.hm{fill:url(#gn);}.hn{fill:url(#go);}.ho{fill:url(#gp);}.hp{fill:url(#gq);}.hq{fill:url(#gr);}.hr{fill:url(#gs);}.hs{fill:url(#gt);}.ht{fill:url(#gu);}.hu{fill:url(#gv);}.hv{fill:url(#gw);}.hw{fill:url(#gx);}.hx{fill:url(#gy);}.hy{fill:url(#gz);}.hz{fill:url(#ha);}.ia{fill:url(#hb);}.ib{fill:url(#hc);}.ic{fill:url(#hd);}.id{fill:url(#he);}.ie{fill:url(#hf);}.if{fill:url(#hg);}.ig{fill:url(#hh);}.ih{fill:url(#hi);}.ii{fill:url(#hj);}.ij{fill:#e38677;}.ik{fill:url(#hk);}.il{fill:url(#hl);}.im{fill:url(#hm);}.in{fill:url(#hn);}.io{fill:url(#ho);}.ip{fill:url(#hp);}.iq{fill:url(#hq);}.ir{fill:url(#hr);}.is{fill:url(#hs);}.it{fill:url(#ht);}.iu{fill:url(#hu);}.iv{fill:#d8c9ed;}</style><clipPath id="a"><path class="a" d="M18.62,322H352c21.42-9.8,39.24-55.24,19.25-114.59C350.59,146,348.11,142.83,356,75.18c8.79-75.63-54.08-90.8-103.62-60.65-43.85,26.69-79,23.77-136.67-2.12C45.5-19.08-7.45,38.29,15.87,130.1,36.36,210.75-30.9,262.83,18.62,322Z"/></clipPath><linearGradient id="b" x1="-23.46" y1="302.49" x2="401.72" y2="302.49" gradientUnits="userSpaceOnUse"><stop offset="0" stop-color="#dde7ff"/><stop offset="1" stop-color="#d0ddff"/></linearGradient><linearGradient id="c" x1="-23.46" y1="302.49" x2="401.72" y2="302.49" gradientUnits="userSpaceOnUse"><stop offset="0" stop-color="#b5c7f5"/><stop offset="1" stop-color="#adbeeb"/></linearGradient><linearGradient id="d" x1="368.39" y1="283.64" x2="157.19" y2="283.64" gradientUnits="userSpaceOnUse"><stop offset="0" stop-color="#96a7d6"/><stop offset="1" stop-color="#9fafd9"/></linearGradient><linearGradient id="e" x1="-23.46" y1="259.68" x2="73.07" y2="259.68" xlink:href="#c"/><linearGradient id="f" x1="313.6" y1="-19.56" x2="313.6" y2="256.04" gradientUnits="userSpaceOnUse"><stop offset="0" stop-color="#fafcff"/><stop offset="1" stop-color="#edf2ff"/></linearGradient><linearGradient id="g" x1="331.41" y1="65.98" x2="331.41" y2="74.08" gradientUnits="userSpaceOnUse"><stop offset="0" stop-color="#6f7aba"/><stop offset="1" stop-color="#6772ad"/></linearGradient><linearGradient id="h" x1="331.41" y1="115.29" x2="331.41" y2="123.39" xlink:href="#g"/><linearGradient id="i" x1="331.41" y1="164.6" x2="331.41" y2="172.7" xlink:href="#g"/><linearGradient id="j" x1="331.41" y1="213.91" x2="331.41" y2="222.01" xlink:href="#g"/><linearGradient id="k" x1="331.41" y1="31.95" x2="331.41" y2="256.04" xlink:href="#g"/><linearGradient id="l" x1="457.35" y1="57.84" x2="457.35" y2="78.55" gradientTransform="translate(389.27 -394.48) rotate(90)" gradientUnits="userSpaceOnUse"><stop offset="0" stop-color="#8f9ef2"/><stop offset="1" stop-color="#7386ef"/></linearGradient><linearGradient id="m" x1="457.35" y1="57.84" x2="457.35" y2="78.55" gradientTransform="translate(389.27 -394.48) rotate(90)" gradientUnits="userSpaceOnUse"><stop offset="0" stop-color="#7386ef"/><stop offset="1" stop-color="#6278d1"/></linearGradient><linearGradient id="n" x1="453.91" y1="68.19" x2="460.78" y2="68.19" xlink:href="#m"/><linearGradient id="o" x1="440.3" y1="52.08" x2="440.3" y2="72.79" gradientTransform="translate(379.27 -384.48) rotate(90)" xlink:href="#g"/><linearGradient id="p" x1="440.3" y1="52.08" x2="440.3" y2="72.79" gradientTransform="translate(379.27 -384.48) rotate(90)" gradientUnits="userSpaceOnUse"><stop offset="0" stop-color="#6670ab"/><stop offset="1" stop-color="#5e689e"/></linearGradient><linearGradient id="q" x1="299.88" y1="41.66" x2="299.88" y2="65.76" gradientUnits="userSpaceOnUse"><stop offset="0" stop-color="#ff7d7d"/><stop offset="1" stop-color="#e37070"/></linearGradient><linearGradient id="r" x1="299.88" y1="41.66" x2="299.88" y2="65.76" gradientUnits="userSpaceOnUse"><stop offset="0" stop-color="#d66060"/><stop offset="1" stop-color="#c95a5a"/></linearGradient><linearGradient id="s" x1="293.82" y1="41.66" x2="293.82" y2="65.76" gradientTransform="matrix(1, 0, 0, 1, 0, 0)" xlink:href="#l"/><linearGradient id="t" x1="293.82" y1="41.66" x2="293.82" y2="65.76" gradientTransform="matrix(1, 0, 0, 1, 0, 0)" xlink:href="#m"/><linearGradient id="u" x1="290.87" y1="53.71" x2="296.78" y2="53.71" gradientTransform="matrix(1, 0, 0, 1, 0, 0)" xlink:href="#m"/><linearGradient id="v" x1="287.77" y1="41.66" x2="287.77" y2="65.76" xlink:href="#g"/><linearGradient id="w" x1="287.77" y1="41.66" x2="287.77" y2="65.76" gradientTransform="matrix(1, 0, 0, 1, 0, 0)" xlink:href="#p"/><linearGradient id="x" x1="281.71" y1="41.66" x2="281.71" y2="65.76" xlink:href="#q"/><linearGradient id="y" x1="281.71" y1="41.66" x2="281.71" y2="65.76" xlink:href="#r"/><linearGradient id="z" x1="297.46" y1="7.85" x2="297.46" y2="31.95" xlink:href="#g"/><linearGradient id="aa" x1="297.46" y1="7.85" x2="297.46" y2="31.95" gradientTransform="matrix(1, 0, 0, 1, 0, 0)" xlink:href="#p"/><linearGradient id="ab" x1="291.4" y1="7.85" x2="291.4" y2="31.95" gradientTransform="matrix(1, 0, 0, 1, 0, 0)" xlink:href="#l"/><linearGradient id="ac" x1="291.4" y1="7.85" x2="291.4" y2="31.95" gradientTransform="matrix(1, 0, 0, 1, 0, 0)" xlink:href="#m"/><linearGradient id="ad" x1="288.45" y1="19.9" x2="294.35" y2="19.9" gradientTransform="matrix(1, 0, 0, 1, 0, 0)" xlink:href="#m"/><linearGradient id="ae" x1="279.29" y1="7.85" x2="279.29" y2="31.95" xlink:href="#g"/><linearGradient id="af" x1="279.29" y1="7.85" x2="279.29" y2="31.95" gradientTransform="matrix(1, 0, 0, 1, 0, 0)" xlink:href="#p"/><linearGradient id="ag" x1="285.35" y1="7.85" x2="285.35" y2="31.95" xlink:href="#q"/><linearGradient id="ah" x1="285.35" y1="7.85" x2="285.35" y2="31.95" xlink:href="#r"/><linearGradient id="ai" x1="506.66" y1="39.67" x2="506.66" y2="60.39" xlink:href="#l"/><linearGradient id="aj" x1="506.66" y1="39.67" x2="506.66" y2="60.39" xlink:href="#m"/><linearGradient id="ak" x1="503.23" y1="50.03" x2="510.09" y2="50.03" xlink:href="#m"/><linearGradient id="al" x1="305.33" y1="90.97" x2="305.33" y2="115.07" xlink:href="#g"/><linearGradient id="am" x1="305.33" y1="90.97" x2="305.33" y2="115.07" gradientTransform="matrix(1, 0, 0, 1, 0, 0)" xlink:href="#p"/><linearGradient id="an" x1="299.27" y1="90.97" x2="299.27" y2="115.07" xlink:href="#q"/><linearGradient id="ao" x1="299.27" y1="90.97" x2="299.27" y2="115.07" xlink:href="#r"/><linearGradient id="ap" x1="323.5" y1="90.97" x2="323.5" y2="115.07" gradientTransform="matrix(1, 0, 0, 1, 0, 0)" xlink:href="#l"/><linearGradient id="aq" x1="323.5" y1="90.97" x2="323.5" y2="115.07" gradientTransform="matrix(1, 0, 0, 1, 0, 0)" xlink:href="#m"/><linearGradient id="ar" x1="320.55" y1="103.02" x2="326.45" y2="103.02" gradientTransform="matrix(1, 0, 0, 1, 0, 0)" xlink:href="#m"/><linearGradient id="as" x1="317.44" y1="90.97" x2="317.44" y2="115.07" xlink:href="#g"/><linearGradient id="at" x1="317.44" y1="90.97" x2="317.44" y2="115.07" gradientTransform="matrix(1, 0, 0, 1, 0, 0)" xlink:href="#p"/><linearGradient id="au" x1="311.39" y1="90.97" x2="311.39" y2="115.07" xlink:href="#q"/><linearGradient id="av" x1="311.39" y1="90.97" x2="311.39" y2="115.07" xlink:href="#r"/><linearGradient id="aw" x1="97.01" y1="-19.56" x2="97.01" y2="256.04" xlink:href="#f"/><linearGradient id="ax" x1="92.24" y1="245.81" x2="92.24" y2="-9.33" xlink:href="#b"/><linearGradient id="ay" x1="173.7" y1="10.29" x2="173.7" y2="245.81" gradientUnits="userSpaceOnUse"><stop offset="0" stop-color="#b5c7f5"/><stop offset="1" stop-color="#dde7ff"/></linearGradient><linearGradient id="az" x1="82.88" y1="31.95" x2="82.88" y2="245.81" xlink:href="#ay"/><linearGradient id="ba" x1="4.15" y1="29.48" x2="4.15" y2="245.81" xlink:href="#ay"/><linearGradient id="bb" x1="66.27" y1="-9.33" x2="66.27" y2="76.41" gradientUnits="userSpaceOnUse"><stop offset="0" stop-color="#fff"/><stop offset="1" stop-color="#fff" stop-opacity="0"/></linearGradient><linearGradient id="bc" x1="66.27" y1="25.89" x2="66.27" y2="111.63" xlink:href="#bb"/><linearGradient id="bd" x1="160.14" y1="-9.33" x2="160.14" y2="76.41" xlink:href="#bb"/><linearGradient id="be" x1="160.14" y1="25.89" x2="160.14" y2="111.63" xlink:href="#bb"/><linearGradient id="bf" x1="160.14" y1="96.33" x2="160.14" y2="182.08" xlink:href="#bb"/><linearGradient id="bg" x1="160.14" y1="131.56" x2="160.14" y2="217.3" xlink:href="#bb"/><linearGradient id="bh" x1="66.27" y1="96.33" x2="66.27" y2="182.08" xlink:href="#bb"/><linearGradient id="bi" x1="66.27" y1="131.56" x2="66.27" y2="217.3" xlink:href="#bb"/><linearGradient id="bj" x1="92.24" y1="210.25" x2="92.24" y2="221.36" xlink:href="#f"/><linearGradient id="bk" x1="92.24" y1="76.41" x2="92.24" y2="87.51" xlink:href="#f"/><linearGradient id="bl" x1="126.81" y1="-19.56" x2="126.81" y2="256.04" gradientTransform="translate(8.57 245.05) rotate(-90)" xlink:href="#f"/><linearGradient id="bm" x1="5.69" y1="-19.56" x2="5.69" y2="256.04" gradientTransform="translate(-112.55 123.93) rotate(-90)" xlink:href="#f"/><linearGradient id="bn" x1="-151.57" y1="199.68" x2="-151.57" y2="232.62" gradientTransform="matrix(-1, 0, 0, 1, -111.66, 0)" gradientUnits="userSpaceOnUse"><stop offset="0" stop-color="#5db878"/><stop offset="1" stop-color="#4d9e78"/></linearGradient><linearGradient id="bo" x1="-148.08" y1="218.29" x2="-148.08" y2="231.29" xlink:href="#bn"/><linearGradient id="bp" x1="-172.66" y1="208.92" x2="-153.91" y2="208.92" xlink:href="#bn"/><linearGradient id="bq" x1="38.99" y1="227.2" x2="38.99" y2="259.48" xlink:href="#f"/><linearGradient id="br" x1="38.99" y1="230.14" x2="38.99" y2="256.53" gradientUnits="userSpaceOnUse"><stop offset="0" stop-color="#fff"/><stop offset="1" stop-color="#d5dbf7"/></linearGradient><linearGradient id="bs" x1="13.97" y1="199.68" x2="13.97" y2="232.62" gradientTransform="matrix(1, 0, 0, 1, 0, 0)" xlink:href="#bn"/><linearGradient id="bt" x1="17.45" y1="218.29" x2="17.45" y2="231.29" gradientTransform="matrix(1, 0, 0, 1, 0, 0)" xlink:href="#bn"/><linearGradient id="bu" x1="-7.13" y1="208.92" x2="11.62" y2="208.92" gradientTransform="matrix(1, 0, 0, 1, 0, 0)" xlink:href="#bn"/><linearGradient id="bv" x1="14.16" y1="227.2" x2="14.16" y2="259.48" xlink:href="#f"/><linearGradient id="bw" x1="14.16" y1="230.14" x2="14.16" y2="256.53" xlink:href="#br"/><linearGradient id="bx" x1="212.25" y1="268.33" x2="212.25" y2="271.79" xlink:href="#g"/><linearGradient id="by" x1="212.69" y1="207.41" x2="212.69" y2="268.33" xlink:href="#g"/><linearGradient id="bz" x1="212.69" y1="110.77" x2="212.69" y2="216.38" xlink:href="#g"/><linearGradient id="ca" x1="212.69" y1="110.77" x2="212.69" y2="216.38" gradientTransform="matrix(1, 0, 0, 1, 0, 0)" xlink:href="#p"/><linearGradient id="cb" x1="197.9" y1="133.65" x2="203.25" y2="133.65" gradientTransform="matrix(1, 0, 0, 1, 0, 0)" xlink:href="#p"/><linearGradient id="cc" x1="210.02" y1="133.65" x2="215.36" y2="133.65" gradientTransform="matrix(1, 0, 0, 1, 0, 0)" xlink:href="#p"/><linearGradient id="cd" x1="222.13" y1="133.65" x2="227.47" y2="133.65" gradientTransform="matrix(1, 0, 0, 1, 0, 0)" xlink:href="#p"/><linearGradient id="ce" x1="197.9" y1="154.78" x2="203.25" y2="154.78" gradientTransform="matrix(1, 0, 0, 1, 0, 0)" xlink:href="#p"/><linearGradient id="cf" x1="210.02" y1="154.78" x2="215.36" y2="154.78" gradientTransform="matrix(1, 0, 0, 1, 0, 0)" xlink:href="#p"/><linearGradient id="cg" x1="222.13" y1="154.78" x2="227.47" y2="154.78" gradientTransform="matrix(1, 0, 0, 1, 0, 0)" xlink:href="#p"/><linearGradient id="ch" x1="210.22" y1="110.77" x2="210.22" y2="216.38" gradientUnits="userSpaceOnUse"><stop offset="0" stop-color="#919ff2"/><stop offset="1" stop-color="#6772ad"/></linearGradient><linearGradient id="ci" x1="212.69" y1="216.38" x2="212.69" y2="226.22" xlink:href="#g"/><linearGradient id="cj" x1="185.39" y1="188.6" x2="185.39" y2="226.22" xlink:href="#g"/><linearGradient id="ck" x1="185.41" y1="188.6" x2="185.41" y2="225.79" gradientTransform="matrix(1, 0, 0, 1, 0, 0)" xlink:href="#p"/><linearGradient id="cl" x1="239.9" y1="188.6" x2="239.9" y2="226.22" xlink:href="#g"/><linearGradient id="cm" x1="239.91" y1="188.6" x2="239.91" y2="225.79" gradientTransform="matrix(1, 0, 0, 1, 0, 0)" xlink:href="#p"/><linearGradient id="cn" x1="322.72" y1="150.66" x2="334.14" y2="150.66" xlink:href="#f"/><linearGradient id="co" x1="328.74" y1="141.92" x2="328.74" y2="160.8" gradientTransform="matrix(1, 0, 0, 1, 0, 0)" xlink:href="#l"/><linearGradient id="cp" x1="328.74" y1="141.92" x2="328.74" y2="160.8" gradientTransform="matrix(1, 0, 0, 1, 0, 0)" xlink:href="#m"/><linearGradient id="cq" x1="328.21" y1="138.47" x2="334.14" y2="138.47" xlink:href="#g"/><linearGradient id="cr" x1="325.54" y1="135.58" x2="334.14" y2="135.58" xlink:href="#g"/><linearGradient id="cs" x1="322.63" y1="135.58" x2="325.65" y2="135.58" xlink:href="#q"/><linearGradient id="ct" x1="322.63" y1="136.46" x2="325.65" y2="136.46" xlink:href="#r"/><linearGradient id="cu" x1="272.51" y1="161.72" x2="272.51" y2="170.65" gradientUnits="userSpaceOnUse"><stop offset="0" stop-color="#6fdea6"/><stop offset="1" stop-color="#69d1a2"/></linearGradient><linearGradient id="cv" x1="272.51" y1="170.65" x2="272.51" y2="289.38" xlink:href="#cu"/><linearGradient id="cw" x1="272.51" y1="170.65" x2="272.51" y2="289.38" gradientUnits="userSpaceOnUse"><stop offset="0" stop-color="#64c498"/><stop offset="1" stop-color="#61bf94"/></linearGradient><linearGradient id="cx" x1="173.87" y1="192.44" x2="244.92" y2="192.44" gradientUnits="userSpaceOnUse"><stop offset="0" stop-color="#5db88e"/><stop offset="1" stop-color="#4d9e78"/></linearGradient><linearGradient id="cy" x1="158.47" y1="230.02" x2="386.55" y2="230.02" xlink:href="#cx"/><linearGradient id="cz" x1="272.51" y1="161.72" x2="272.51" y2="170.65" xlink:href="#cw"/><linearGradient id="da" x1="344.65" y1="166.19" x2="393.06" y2="166.19" xlink:href="#cx"/><linearGradient id="db" x1="274.92" y1="262.83" x2="274.92" y2="322" gradientUnits="userSpaceOnUse"><stop offset="0" stop-color="#dbae67"/><stop offset="1" stop-color="#d9945f"/></linearGradient><linearGradient id="dc" x1="257.5" y1="262.83" x2="257.5" y2="322" gradientUnits="userSpaceOnUse"><stop offset="0" stop-color="#ffdc7d"/><stop offset="0.55" stop-color="#feda7c"/><stop offset="0.75" stop-color="#fad379"/><stop offset="0.9" stop-color="#f2c774"/><stop offset="1" stop-color="#eaba6e"/></linearGradient><linearGradient id="dd" x1="285.34" y1="262.83" x2="285.34" y2="322" xlink:href="#dc"/><linearGradient id="de" x1="293.1" y1="319.8" x2="301.17" y2="319.8" gradientUnits="userSpaceOnUse"><stop offset="0" stop-color="#fff2cf"/><stop offset="1" stop-color="#ffdc7d"/></linearGradient><linearGradient id="df" x1="264.5" y1="292.41" x2="297.84" y2="292.41" xlink:href="#de"/><linearGradient id="dg" x1="272.1" y1="285.76" x2="298.14" y2="285.76" xlink:href="#db"/><linearGradient id="dh" x1="10.79" y1="297.56" x2="48.79" y2="297.56" xlink:href="#q"/><linearGradient id="di" x1="10.79" y1="297.56" x2="48.79" y2="297.56" xlink:href="#r"/><linearGradient id="dj" x1="9.15" y1="274.35" x2="50.55" y2="274.35" xlink:href="#q"/><linearGradient id="dk" x1="9.15" y1="271.42" x2="50.55" y2="271.42" xlink:href="#r"/><linearGradient id="dl" x1="39.26" y1="282.72" x2="43.45" y2="282.72" xlink:href="#r"/><linearGradient id="dm" x1="13.93" y1="254.91" x2="27.53" y2="254.91" xlink:href="#r"/><linearGradient id="dn" x1="218.5" y1="148.82" x2="218.5" y2="161.77" gradientUnits="userSpaceOnUse"><stop offset="0" stop-color="#ffdc7d"/><stop offset="1" stop-color="#eaba6e"/></linearGradient><linearGradient id="do" x1="203.37" y1="155.5" x2="226.68" y2="155.5" xlink:href="#de"/><linearGradient id="dp" x1="218.76" y1="156.97" x2="218.76" y2="161.77" xlink:href="#dn"/><linearGradient id="dq" x1="223.75" y1="155.29" x2="233.63" y2="155.29" xlink:href="#db"/><linearGradient id="dr" x1="211.75" y1="159.47" x2="222.48" y2="159.47" xlink:href="#de"/><linearGradient id="ds" x1="243.95" y1="86.87" x2="243.95" y2="156.85" gradientUnits="userSpaceOnUse"><stop offset="0" stop-color="#7386ef"/><stop offset="1" stop-color="#6e80e6"/></linearGradient><linearGradient id="dt" x1="227.18" y1="121.86" x2="260.73" y2="121.86" gradientUnits="userSpaceOnUse"><stop offset="0" stop-color="#6e81e6"/><stop offset="1" stop-color="#5b6fc2"/></linearGradient><linearGradient id="du" x1="227.18" y1="142.78" x2="256.68" y2="142.78" gradientUnits="userSpaceOnUse"><stop offset="0" stop-color="#5c71c4"/><stop offset="1" stop-color="#4b62ad"/></linearGradient><linearGradient id="dv" x1="251.39" y1="111.37" x2="260.73" y2="111.37" xlink:href="#du"/><linearGradient id="dw" x1="267.92" y1="81.93" x2="267.92" y2="109.58" xlink:href="#ds"/><linearGradient id="dx" x1="267.92" y1="81.93" x2="267.92" y2="109.58" xlink:href="#dt"/><linearGradient id="dy" x1="269.81" y1="81.93" x2="269.81" y2="100.44" xlink:href="#du"/><linearGradient id="dz" x1="260.39" y1="86.37" x2="260.39" y2="109.37" xlink:href="#du"/><linearGradient id="ea" x1="265.55" y1="88.14" x2="265.55" y2="109.58" xlink:href="#dn"/><linearGradient id="eb" x1="265" y1="88.14" x2="265" y2="92.21" xlink:href="#db"/><linearGradient id="ec" x1="265.88" y1="69.75" x2="265.88" y2="88.51" gradientUnits="userSpaceOnUse"><stop offset="0" stop-color="#ffccb9"/><stop offset="0.33" stop-color="#fdc8b5"/><stop offset="0.7" stop-color="#f7bba7"/><stop offset="1" stop-color="#efab97"/></linearGradient><linearGradient id="ed" x1="259.67" y1="74.18" x2="259.67" y2="84.38" gradientUnits="userSpaceOnUse"><stop offset="0" stop-color="#ffeee8"/><stop offset="1" stop-color="#ffccb9"/></linearGradient><linearGradient id="ee" x1="265.88" y1="69.75" x2="265.88" y2="82.84" gradientUnits="userSpaceOnUse"><stop offset="0" stop-color="#efab97"/><stop offset="1" stop-color="#e38677"/></linearGradient><linearGradient id="ef" x1="277.42" y1="49.15" x2="277.42" y2="81.92" gradientUnits="userSpaceOnUse"><stop offset="0" stop-color="#3e397d"/><stop offset="1" stop-color="#312d63"/></linearGradient><linearGradient id="eg" x1="262.1" y1="45.21" x2="262.1" y2="70.91" xlink:href="#ef"/><linearGradient id="eh" x1="249.97" y1="54.45" x2="266.01" y2="54.45" gradientUnits="userSpaceOnUse"><stop offset="0" stop-color="#6d66bd"/><stop offset="1" stop-color="#3e397d"/></linearGradient><linearGradient id="ei" x1="261.25" y1="54.42" x2="261.25" y2="79.22" xlink:href="#ec"/><linearGradient id="ej" x1="254.11" y1="52.08" x2="254.11" y2="76.46" xlink:href="#ed"/><linearGradient id="ek" x1="258.31" y1="51.67" x2="258.31" y2="64.82" xlink:href="#ee"/><linearGradient id="el" x1="268.66" y1="65.69" x2="268.66" y2="70.91" xlink:href="#ee"/><linearGradient id="em" x1="256.05" y1="70.09" x2="256.05" y2="72.67" xlink:href="#ee"/><linearGradient id="en" x1="255.21" y1="65.34" x2="255.21" y2="72.48" xlink:href="#ed"/><linearGradient id="eo" x1="269.85" y1="81.13" x2="269.85" y2="92.31" gradientUnits="userSpaceOnUse"><stop offset="0" stop-color="#ffdc7d"/><stop offset="0.32" stop-color="#f4c975"/><stop offset="0.65" stop-color="#ecbe70"/><stop offset="1" stop-color="#eaba6e"/></linearGradient><linearGradient id="ep" x1="272.96" y1="81.13" x2="272.96" y2="92.31" xlink:href="#db"/><linearGradient id="eq" x1="260.84" y1="84.37" x2="260.84" y2="94.73" xlink:href="#eo"/><linearGradient id="er" x1="262.26" y1="87.52" x2="262.26" y2="94.73" xlink:href="#db"/><linearGradient id="es" x1="280.26" y1="82.24" x2="280.26" y2="161.72" xlink:href="#dn"/><linearGradient id="et" x1="259.61" y1="87.4" x2="259.61" y2="152.21" xlink:href="#de"/><linearGradient id="eu" x1="291.21" y1="82.46" x2="291.21" y2="161.72" xlink:href="#db"/><linearGradient id="ev" x1="295.01" y1="82.52" x2="295.01" y2="153.22" xlink:href="#ds"/><linearGradient id="ew" x1="280.26" y1="117.87" x2="309.75" y2="117.87" xlink:href="#dt"/><linearGradient id="ex" x1="280.26" y1="149.04" x2="289.93" y2="149.04" xlink:href="#du"/><linearGradient id="ey" x1="305.29" y1="119.08" x2="309.75" y2="119.08" xlink:href="#du"/><linearGradient id="ez" x1="273.36" y1="146.76" x2="273.36" y2="161.72" xlink:href="#dn"/><linearGradient id="fa" x1="258.39" y1="154.24" x2="281.16" y2="154.24" xlink:href="#de"/><linearGradient id="fb" x1="276.18" y1="154.24" x2="288.33" y2="154.24" xlink:href="#db"/><linearGradient id="fc" x1="254.75" y1="160.7" x2="270.06" y2="160.7" gradientUnits="userSpaceOnUse"><stop offset="0" stop-color="#fff"/><stop offset="1" stop-color="#e9e6ff"/></linearGradient><linearGradient id="fd" x1="266.51" y1="160.11" x2="279.87" y2="160.11" xlink:href="#fc"/><linearGradient id="fe" x1="281.39" y1="160.12" x2="292.38" y2="160.12" xlink:href="#fc"/><linearGradient id="ff" x1="128.11" y1="84.25" x2="128.11" y2="178.82" xlink:href="#ds"/><linearGradient id="fg" x1="125.89" y1="92.97" x2="125.89" y2="178.82" xlink:href="#dt"/><linearGradient id="fh" x1="125.38" y1="114.43" x2="125.38" y2="178.82" xlink:href="#du"/><linearGradient id="fi" x1="133.6" y1="298.23" x2="133.6" y2="322" xlink:href="#ef"/><linearGradient id="fj" x1="116.34" y1="298.23" x2="116.34" y2="322" xlink:href="#eh"/><linearGradient id="fk" x1="115.01" y1="319.9" x2="152.2" y2="319.9" xlink:href="#ds"/><linearGradient id="fl" x1="115.01" y1="320.52" x2="152.2" y2="320.52" xlink:href="#dt"/><linearGradient id="fm" x1="150.25" y1="319.58" x2="150.25" y2="322" xlink:href="#du"/><linearGradient id="fn" x1="86.97" y1="298.23" x2="86.97" y2="322" xlink:href="#ef"/><linearGradient id="fo" x1="69.71" y1="298.23" x2="69.71" y2="322" xlink:href="#eh"/><linearGradient id="fp" x1="68.38" y1="319.9" x2="105.57" y2="319.9" xlink:href="#ds"/><linearGradient id="fq" x1="68.38" y1="320.52" x2="105.57" y2="320.52" xlink:href="#dt"/><linearGradient id="fr" x1="103.62" y1="319.58" x2="103.62" y2="322" xlink:href="#du"/><linearGradient id="fs" x1="98.3" y1="79.17" x2="98.3" y2="298.23" xlink:href="#eo"/><linearGradient id="ft" x1="91.26" y1="181.63" x2="91.26" y2="298.23" xlink:href="#db"/><linearGradient id="fu" x1="109.31" y1="177.03" x2="109.31" y2="298.23" xlink:href="#db"/><linearGradient id="fv" x1="73.79" y1="155.29" x2="73.79" y2="298.23" xlink:href="#de"/><linearGradient id="fw" x1="77.33" y1="126.76" x2="123.67" y2="126.76" xlink:href="#db"/><linearGradient id="fx" x1="126.54" y1="195.36" x2="126.54" y2="298.23" xlink:href="#de"/><linearGradient id="fy" x1="87.44" y1="79.17" x2="87.44" y2="103.45" xlink:href="#de"/><linearGradient id="fz" x1="121.15" y1="83.27" x2="121.15" y2="153.59" xlink:href="#de"/><linearGradient id="ga" x1="83.06" y1="81.7" x2="83.06" y2="151.14" xlink:href="#ds"/><linearGradient id="gb" x1="83.52" y1="134.53" x2="83.52" y2="151.14" xlink:href="#dt"/><linearGradient id="gc" x1="83.9" y1="134.53" x2="83.9" y2="151.14" xlink:href="#du"/><linearGradient id="gd" x1="77.94" y1="81.7" x2="77.94" y2="141.53" xlink:href="#dt"/><linearGradient id="ge" x1="76.78" y1="130.29" x2="76.78" y2="141.53" xlink:href="#du"/><linearGradient id="gf" x1="82.31" y1="81.7" x2="82.31" y2="110.33" xlink:href="#du"/><linearGradient id="gg" x1="101.03" y1="74.52" x2="101.03" y2="109.79" xlink:href="#ds"/><linearGradient id="gh" x1="102.82" y1="74.52" x2="102.82" y2="94.04" xlink:href="#dt"/><linearGradient id="gi" x1="101.03" y1="78.29" x2="101.03" y2="109.79" xlink:href="#dt"/><linearGradient id="gj" x1="100.64" y1="78.63" x2="100.64" y2="109.79" xlink:href="#du"/><linearGradient id="gk" x1="105.85" y1="83.15" x2="105.85" y2="108.98" xlink:href="#dn"/><linearGradient id="gl" x1="103.74" y1="62.77" x2="103.74" y2="84.25" gradientUnits="userSpaceOnUse"><stop offset="0" stop-color="#ffccb9"/><stop offset="1" stop-color="#efab97"/></linearGradient><linearGradient id="gm" x1="103.74" y1="62.77" x2="103.74" y2="76.71" xlink:href="#ee"/><linearGradient id="gn" x1="111.3" y1="73.51" x2="111.3" y2="79.57" xlink:href="#ed"/><linearGradient id="go" x1="98.88" y1="46.36" x2="98.88" y2="67.39" xlink:href="#ef"/><linearGradient id="gp" x1="95.17" y1="46.36" x2="95.17" y2="66.34" xlink:href="#eh"/><linearGradient id="gq" x1="107.73" y1="49.43" x2="107.73" y2="74.58" xlink:href="#ec"/><linearGradient id="gr" x1="96.92" y1="59.15" x2="100.12" y2="59.15" xlink:href="#ee"/><linearGradient id="gs" x1="111.67" y1="49.43" x2="111.67" y2="55.44" xlink:href="#ee"/><linearGradient id="gt" x1="115.09" y1="53.33" x2="115.09" y2="74.58" xlink:href="#ed"/><linearGradient id="gu" x1="113.38" y1="62.77" x2="113.38" y2="65.65" xlink:href="#ee"/><linearGradient id="gv" x1="114.36" y1="56.81" x2="114.36" y2="65.14" xlink:href="#ed"/><linearGradient id="gw" x1="97.28" y1="54.53" x2="97.28" y2="63.41" xlink:href="#ed"/><linearGradient id="gx" x1="108.53" y1="35.82" x2="108.53" y2="52.23" xlink:href="#dn"/><linearGradient id="gy" x1="108.53" y1="35.82" x2="108.53" y2="52.23" xlink:href="#de"/><linearGradient id="gz" x1="108.53" y1="50.86" x2="108.53" y2="40.53" gradientUnits="userSpaceOnUse"><stop offset="0" stop-color="#eaba6e"/><stop offset="1" stop-color="#d9a25f"/></linearGradient><linearGradient id="ha" x1="112.15" y1="44.95" x2="112.15" y2="56.17" xlink:href="#dn"/><linearGradient id="hb" x1="112.15" y1="56.16" x2="112.15" y2="44.95" xlink:href="#gz"/><linearGradient id="hc" x1="92.24" y1="81.85" x2="106.54" y2="81.85" xlink:href="#dn"/><linearGradient id="hd" x1="95.23" y1="81.85" x2="106.54" y2="81.85" xlink:href="#db"/><linearGradient id="he" x1="92.24" y1="74.83" x2="96.01" y2="74.83" xlink:href="#de"/><linearGradient id="hf" x1="106.54" y1="84.16" x2="114.4" y2="84.16" xlink:href="#dn"/><linearGradient id="hg" x1="106.54" y1="82.03" x2="111.54" y2="82.03" xlink:href="#db"/><linearGradient id="hh" x1="111.28" y1="80.31" x2="114.4" y2="80.31" xlink:href="#de"/><linearGradient id="hi" x1="106.83" y1="128.17" x2="106.83" y2="136.69" xlink:href="#gl"/><linearGradient id="hj" x1="137.22" y1="172.5" x2="137.22" y2="197.51" xlink:href="#gl"/><linearGradient id="hk" x1="147.88" y1="126.17" x2="147.88" y2="298.23" xlink:href="#q"/><linearGradient id="hl" x1="146.82" y1="126.17" x2="146.82" y2="298.23" xlink:href="#r"/><linearGradient id="hm" x1="188.31" y1="288.74" x2="188.31" y2="302.49" xlink:href="#r"/><linearGradient id="hn" x1="109.31" y1="130.83" x2="109.31" y2="147.4" xlink:href="#gl"/><linearGradient id="ho" x1="106.67" y1="130.83" x2="106.67" y2="137.18" xlink:href="#ed"/><linearGradient id="hp" x1="113.75" y1="137.37" x2="113.75" y2="138.12" xlink:href="#ee"/><linearGradient id="hq" x1="115.03" y1="140.89" x2="115.03" y2="141.66" xlink:href="#ee"/><linearGradient id="hr" x1="101.29" y1="135.87" x2="101.29" y2="147.4" xlink:href="#ee"/><linearGradient id="hs" x1="133.83" y1="174.36" x2="133.83" y2="190.53" xlink:href="#gl"/><linearGradient id="ht" x1="132.31" y1="180.13" x2="132.31" y2="190.23" xlink:href="#ed"/><linearGradient id="hu" x1="182.97" y1="302.49" x2="182.97" y2="322" xlink:href="#fc"/></defs><g class="b"><rect class="c" x="-23.46" y="256.04" width="425.17" height="92.9"/><polygon class="d" points="401.72 256.04 401.72 348.94 -23.45 348.94 -23.45 311.12 332.81 311.12 288.32 298.23 176.91 298.23 156.93 288.74 156.93 262.83 166.17 262.83 142.75 256.04 401.72 256.04"/><polygon class="e" points="401.72 256.04 401.72 311.24 379.91 311.24 331.17 288.74 156.93 288.74 156.93 262.83 166.17 262.83 142.75 256.04 401.72 256.04"/><polygon class="f" points="73.07 254.61 56.66 264.75 -23.45 264.75 -23.45 256.04 73.07 254.61"/><g class="g"><line class="h" x1="-23.46" y1="264.75" x2="401.72" y2="264.75"/><line class="h" x1="-23.46" y1="289.4" x2="401.72" y2="289.4"/><line class="h" x1="401.72" y1="311.24" x2="-23.46" y2="311.24"/><line class="h" x1="156.92" y1="257.35" x2="141.11" y2="348.94"/><line class="h" x1="211.5" y1="257.35" x2="227.32" y2="348.94"/><line class="h" x1="47.77" y1="257.35" x2="-31.3" y2="348.94"/><line class="h" x1="102.35" y1="257.35" x2="54.9" y2="348.94"/><line class="h" x1="266.08" y1="257.35" x2="313.52" y2="348.94"/><line class="h" x1="320.66" y1="257.35" x2="399.73" y2="348.94"/></g><rect class="i" x="225.49" y="-19.56" width="176.23" height="275.6"/><polygon class="j" points="225.49 -19.56 225.49 35.64 375.2 132.09 375.2 256.04 401.72 256.04 401.72 150.14 401.72 102.67 401.72 -19.56 225.49 -19.56"/><polygon class="k" points="401.72 -19.56 401.72 115.68 225.49 13.04 225.49 -19.56 401.72 -19.56"/><rect class="j" x="274.07" y="37.86" width="112.64" height="216.75"/><rect class="k" x="278.15" y="123.39" width="106.28" height="15.81"/><rect class="k" x="278.15" y="172.7" width="106.28" height="15.81"/><rect class="k" x="278.15" y="222.01" width="106.28" height="15.81"/><polygon class="k" points="331.75 103.02 331.75 87.51 296.17 87.51 296.17 117.52 320.39 117.52 331.75 117.52 355.97 117.52 355.97 103.02 331.75 103.02"/><polygon class="k" points="386.71 70.9 290.27 70.9 273.73 70.9 273.73 83.15 273.73 247.85 290.27 247.85 290.27 83.15 386.71 83.15 386.71 70.9"/><path class="k" d="M386.71,37.86v7.63c-23.73.26-77.37-.5-77.37-.5v2.73h22.09V57h5.16V66.3H274.07V37.86Z"/><rect class="l" x="276.11" y="65.98" width="110.6" height="8.1"/><polygon class="m" points="386.71 65.98 386.71 69.5 290.04 69.5 290.04 74.08 276.11 74.08 276.11 65.98 386.71 65.98"/><rect class="n" x="276.11" y="115.29" width="110.6" height="8.1"/><polygon class="m" points="386.71 115.29 386.71 118.81 290.04 118.81 290.04 123.39 276.11 123.39 276.11 115.29 386.71 115.29"/><rect class="o" x="276.11" y="164.6" width="110.6" height="8.1"/><polygon class="m" points="386.71 164.6 386.71 168.12 290.04 168.12 290.04 172.7 276.11 172.7 276.11 164.6 386.71 164.6"/><rect class="p" x="276.11" y="213.91" width="110.6" height="8.1"/><polygon class="m" points="386.71 213.91 386.71 217.43 290.04 217.43 290.04 222.01 276.11 222.01 276.11 213.91 386.71 213.91"/><path class="q" d="M391.25,32H271.56a2,2,0,0,0-1.81,2.11V253.93a2,2,0,0,0,1.81,2.11H391.25a2,2,0,0,0,1.81-2.11V34.06A2,2,0,0,0,391.25,32Zm-6.81,213.53a2,2,0,0,1-1.82,2.11H280.2a2,2,0,0,1-1.82-2.11v-203a2,2,0,0,1,1.82-2.11H382.62a2,2,0,0,1,1.82,2.11Z"/><path class="m" d="M387.28,37.33H275.54a2,2,0,0,0-1.81,2.11V248.55a2,2,0,0,0,1.81,2.11H387.28a2,2,0,0,0,1.81-2.11V39.44A2,2,0,0,0,387.28,37.33Zm-2.84,208.15a2,2,0,0,1-1.82,2.11H280.2a2,2,0,0,1-1.82-2.11v-203a2,2,0,0,1,1.82-2.11H382.62a2,2,0,0,1,1.82,2.11Z"/><rect class="r" x="310.72" y="59.43" width="20.72" height="6.87"/><polygon class="s" points="331.43 66.3 310.72 66.3 310.72 59.44 312.38 59.44 312.38 62.87 331.43 62.87 331.43 66.3"/><polygon class="t" points="331.43 66.3 310.72 66.3 310.72 59.44 311.39 59.44 311.39 64.5 331.43 64.5 331.43 66.3"/><rect class="j" x="327.51" y="60.53" width="1.06" height="4.67"/><rect class="j" x="325.69" y="60.53" width="1.06" height="4.67"/><rect class="j" x="313.58" y="60.53" width="1.06" height="4.67"/><rect class="k" x="327.51" y="62.87" width="1.06" height="2.33"/><rect class="k" x="325.69" y="62.87" width="1.06" height="2.33"/><rect class="k" x="313.58" y="62.87" width="1.06" height="2.33"/><rect class="u" x="306.48" y="52.39" width="20.72" height="6.87"/><polygon class="v" points="327.19 59.26 306.48 59.26 306.48 52.39 308.14 52.39 308.14 55.83 327.19 55.83 327.19 59.26"/><polygon class="m" points="327.19 59.26 306.48 59.26 306.48 52.39 307.16 52.39 307.16 57.45 327.19 57.45 327.19 59.26"/><rect class="j" x="323.27" y="53.49" width="1.06" height="4.67"/><rect class="j" x="321.45" y="53.49" width="1.06" height="4.67"/><rect class="j" x="309.34" y="53.49" width="1.06" height="4.67"/><rect class="k" x="323.27" y="55.83" width="1.06" height="2.33"/><rect class="k" x="321.45" y="55.83" width="1.06" height="2.33"/><rect class="k" x="309.34" y="55.83" width="1.06" height="2.33"/><rect class="w" x="296.93" y="41.66" width="5.9" height="24.1"/><polygon class="x" points="302.83 41.66 302.83 65.76 296.93 65.76 296.93 63.82 299.88 63.82 299.88 41.66 302.83 41.66"/><polygon class="y" points="302.83 41.66 302.83 65.76 296.93 65.76 296.93 64.97 301.28 64.97 301.28 41.66 302.83 41.66"/><rect class="j" x="297.87" y="44.99" width="4.02" height="1.23"/><rect class="j" x="297.87" y="47.11" width="4.02" height="1.23"/><rect class="j" x="297.87" y="61.2" width="4.02" height="1.23"/><rect class="k" x="299.88" y="44.99" width="2" height="1.23"/><rect class="k" x="299.88" y="47.11" width="2" height="1.23"/><rect class="k" x="299.88" y="61.2" width="2" height="1.23"/><rect class="z" x="290.87" y="41.66" width="5.9" height="24.1"/><polygon class="aa" points="296.78 41.66 296.78 65.76 290.87 65.76 290.87 63.82 293.83 63.82 293.83 41.66 296.78 41.66"/><polygon class="ab" points="296.78 41.66 296.78 65.76 290.87 65.76 290.87 64.97 295.23 64.97 295.23 41.66 296.78 41.66"/><rect class="j" x="291.82" y="44.99" width="4.02" height="1.23"/><rect class="j" x="291.82" y="47.11" width="4.02" height="1.23"/><rect class="j" x="291.82" y="61.2" width="4.02" height="1.23"/><rect class="k" x="293.83" y="44.99" width="2" height="1.23"/><rect class="k" x="293.83" y="47.11" width="2" height="1.23"/><rect class="k" x="293.83" y="61.2" width="2" height="1.23"/><rect class="ac" x="284.82" y="41.66" width="5.9" height="24.1"/><polygon class="ad" points="290.72 41.66 290.72 65.76 284.81 65.76 284.81 63.82 287.77 63.82 287.77 41.66 290.72 41.66"/><polygon class="m" points="290.72 41.66 290.72 65.76 284.81 65.76 284.81 64.97 289.17 64.97 289.17 41.66 290.72 41.66"/><rect class="j" x="285.76" y="44.99" width="4.02" height="1.23"/><rect class="j" x="285.76" y="47.11" width="4.02" height="1.23"/><rect class="j" x="285.76" y="61.2" width="4.02" height="1.23"/><rect class="k" x="287.77" y="44.99" width="2" height="1.23"/><rect class="k" x="287.77" y="47.11" width="2" height="1.23"/><rect class="k" x="287.77" y="61.2" width="2" height="1.23"/><rect class="ae" x="278.76" y="41.66" width="5.9" height="24.1"/><polygon class="af" points="284.66 41.66 284.66 65.76 278.76 65.76 278.76 63.82 281.71 63.82 281.71 41.66 284.66 41.66"/><polygon class="y" points="284.66 41.66 284.66 65.76 278.76 65.76 278.76 64.97 283.11 64.97 283.11 41.66 284.66 41.66"/><rect class="j" x="279.7" y="44.99" width="4.02" height="1.23"/><rect class="j" x="279.7" y="47.11" width="4.02" height="1.23"/><rect class="j" x="279.7" y="61.2" width="4.02" height="1.23"/><rect class="k" x="281.71" y="44.99" width="2" height="1.23"/><rect class="k" x="281.71" y="47.11" width="2" height="1.23"/><rect class="k" x="281.71" y="61.2" width="2" height="1.23"/><rect class="ag" x="294.5" y="7.85" width="5.9" height="24.1"/><polygon class="ah" points="300.41 7.85 300.41 31.95 294.5 31.95 294.5 30.01 297.46 30.01 297.46 7.85 300.41 7.85"/><polygon class="m" points="300.41 7.85 300.41 31.95 294.5 31.95 294.5 31.16 298.86 31.16 298.86 7.85 300.41 7.85"/><rect class="j" x="295.45" y="11.18" width="4.02" height="1.23"/><rect class="j" x="295.45" y="13.29" width="4.02" height="1.23"/><rect class="j" x="295.45" y="27.38" width="4.02" height="1.23"/><rect class="k" x="297.46" y="11.18" width="2" height="1.23"/><rect class="k" x="297.46" y="13.29" width="2" height="1.23"/><rect class="k" x="297.46" y="27.38" width="2" height="1.23"/><rect class="ai" x="288.45" y="7.85" width="5.9" height="24.1"/><polygon class="aj" points="294.35 7.85 294.35 31.95 288.45 31.95 288.45 30.01 291.4 30.01 291.4 7.85 294.35 7.85"/><polygon class="ak" points="294.35 7.85 294.35 31.95 288.45 31.95 288.45 31.16 292.8 31.16 292.8 7.85 294.35 7.85"/><rect class="j" x="289.39" y="11.18" width="4.02" height="1.23"/><rect class="j" x="289.39" y="13.29" width="4.02" height="1.23"/><rect class="j" x="289.39" y="27.38" width="4.02" height="1.23"/><rect class="k" x="291.4" y="11.18" width="2" height="1.23"/><rect class="k" x="291.4" y="13.29" width="2" height="1.23"/><rect class="k" x="291.4" y="27.38" width="2" height="1.23"/><rect class="al" x="276.34" y="7.85" width="5.9" height="24.1"/><polygon class="am" points="282.24 7.85 282.24 31.95 276.34 31.95 276.34 30.01 279.29 30.01 279.29 7.85 282.24 7.85"/><polygon class="m" points="282.24 7.85 282.24 31.95 276.34 31.95 276.34 31.16 280.69 31.16 280.69 7.85 282.24 7.85"/><rect class="j" x="277.28" y="11.18" width="4.02" height="1.23"/><rect class="j" x="277.28" y="13.29" width="4.02" height="1.23"/><rect class="j" x="277.28" y="27.38" width="4.02" height="1.23"/><rect class="k" x="279.29" y="11.18" width="2" height="1.23"/><rect class="k" x="279.29" y="13.29" width="2" height="1.23"/><rect class="k" x="279.29" y="27.38" width="2" height="1.23"/><rect class="an" x="282.39" y="7.85" width="5.9" height="24.1"/><polygon class="ao" points="288.3 7.85 288.3 31.95 282.39 31.95 282.39 30.01 285.35 30.01 285.35 7.85 288.3 7.85"/><polygon class="y" points="288.3 7.85 288.3 31.95 282.39 31.95 282.39 31.16 286.75 31.16 286.75 7.85 288.3 7.85"/><rect class="j" x="283.34" y="11.18" width="4.02" height="1.23"/><rect class="j" x="283.34" y="13.29" width="4.02" height="1.23"/><rect class="j" x="283.34" y="27.38" width="4.02" height="1.23"/><rect class="k" x="285.35" y="11.18" width="2" height="1.23"/><rect class="k" x="285.35" y="13.29" width="2" height="1.23"/><rect class="k" x="285.35" y="27.38" width="2" height="1.23"/><rect class="ap" x="328.88" y="108.75" width="20.72" height="6.87"/><polygon class="aq" points="349.6 115.61 328.88 115.61 328.88 108.75 330.55 108.75 330.55 112.18 349.6 112.18 349.6 115.61"/><polygon class="ar" points="349.6 115.61 328.88 115.61 328.88 108.75 329.56 108.75 329.56 113.81 349.6 113.81 349.6 115.61"/><rect class="j" x="345.68" y="109.84" width="1.06" height="4.67"/><rect class="j" x="343.86" y="109.84" width="1.06" height="4.67"/><rect class="j" x="331.75" y="109.84" width="1.06" height="4.67"/><rect class="k" x="345.68" y="112.18" width="1.06" height="2.33"/><rect class="k" x="343.86" y="112.18" width="1.06" height="2.33"/><rect class="k" x="331.75" y="112.18" width="1.06" height="2.33"/><rect class="as" x="302.38" y="90.97" width="5.9" height="24.1"/><polygon class="at" points="308.28 90.97 308.28 115.07 302.38 115.07 302.38 113.13 305.33 113.13 305.33 90.97 308.28 90.97"/><polygon class="m" points="308.28 90.97 308.28 115.07 302.38 115.07 302.38 114.28 306.73 114.28 306.73 90.97 308.28 90.97"/><rect class="j" x="303.32" y="94.3" width="4.02" height="1.23"/><rect class="j" x="303.32" y="96.42" width="4.02" height="1.23"/><rect class="j" x="303.32" y="110.51" width="4.02" height="1.23"/><rect class="k" x="305.33" y="94.3" width="2" height="1.23"/><rect class="k" x="305.33" y="96.42" width="2" height="1.23"/><rect class="k" x="305.33" y="110.51" width="2" height="1.23"/><rect class="au" x="296.32" y="90.97" width="5.9" height="24.1"/><polygon class="av" points="302.23 90.97 302.23 115.07 296.32 115.07 296.32 113.13 299.28 113.13 299.28 90.97 302.23 90.97"/><polygon class="y" points="302.23 90.97 302.23 115.07 296.32 115.07 296.32 114.28 300.68 114.28 300.68 90.97 302.23 90.97"/><rect class="j" x="297.27" y="94.3" width="4.02" height="1.23"/><rect class="j" x="297.27" y="96.42" width="4.02" height="1.23"/><rect class="j" x="297.27" y="110.51" width="4.02" height="1.23"/><rect class="k" x="299.28" y="94.3" width="2" height="1.23"/><rect class="k" x="299.28" y="96.42" width="2" height="1.23"/><rect class="k" x="299.28" y="110.51" width="2" height="1.23"/><rect class="aw" x="320.55" y="90.97" width="5.9" height="24.1"/><polygon class="ax" points="326.45 90.97 326.45 115.07 320.55 115.07 320.55 113.13 323.5 113.13 323.5 90.97 326.45 90.97"/><polygon class="ay" points="326.45 90.97 326.45 115.07 320.55 115.07 320.55 114.28 324.9 114.28 324.9 90.97 326.45 90.97"/><rect class="j" x="321.49" y="94.3" width="4.02" height="1.23"/><rect class="j" x="321.49" y="96.42" width="4.02" height="1.23"/><rect class="j" x="321.49" y="110.51" width="4.02" height="1.23"/><rect class="k" x="323.5" y="94.3" width="2" height="1.23"/><rect class="k" x="323.5" y="96.42" width="2" height="1.23"/><rect class="k" x="323.5" y="110.51" width="2" height="1.23"/><rect class="az" x="314.49" y="90.97" width="5.9" height="24.1"/><polygon class="ba" points="320.39 90.97 320.39 115.07 314.49 115.07 314.49 113.13 317.44 113.13 317.44 90.97 320.39 90.97"/><polygon class="m" points="320.39 90.97 320.39 115.07 314.49 115.07 314.49 114.28 318.84 114.28 318.84 90.97 320.39 90.97"/><rect class="j" x="315.43" y="94.3" width="4.02" height="1.23"/><rect class="j" x="315.43" y="96.42" width="4.02" height="1.23"/><rect class="j" x="315.43" y="110.51" width="4.02" height="1.23"/><rect class="k" x="317.44" y="94.3" width="2" height="1.23"/><rect class="k" x="317.44" y="96.42" width="2" height="1.23"/><rect class="k" x="317.44" y="110.51" width="2" height="1.23"/><rect class="bb" x="308.43" y="90.97" width="5.9" height="24.1"/><polygon class="bc" points="314.34 90.97 314.34 115.07 308.43 115.07 308.43 113.13 311.39 113.13 311.39 90.97 314.34 90.97"/><polygon class="y" points="314.34 90.97 314.34 115.07 308.43 115.07 308.43 114.28 312.79 114.28 312.79 90.97 314.34 90.97"/><rect class="j" x="309.38" y="94.3" width="4.02" height="1.23"/><rect class="j" x="309.38" y="96.42" width="4.02" height="1.23"/><rect class="j" x="309.38" y="110.51" width="4.02" height="1.23"/><rect class="k" x="311.39" y="94.3" width="2" height="1.23"/><rect class="k" x="311.39" y="96.42" width="2" height="1.23"/><rect class="k" x="311.39" y="110.51" width="2" height="1.23"/><rect class="bd" x="-31.46" y="-19.56" width="256.95" height="275.6"/><rect class="be" x="-31.46" y="-9.33" width="247.41" height="255.15"/><path class="bf" d="M-3.5-9.33H20.88S53.49,18.48,79.54,24A180.39,180.39,0,0,0,126.17,28S61.86,47,26.85,28-3.5-9.33-3.5-9.33Z"/><path class="bf" d="M216-9.33S151.66,40,99.47,49.43s-102.75,3-102.75,3,60.51,14.19,113.64,12.7S216,24.87,216,24.87Z"/><polygon class="bg" points="207.02 62.63 207.02 31.95 204.19 31.95 204.19 23.49 197.35 23.49 197.35 10.29 193.24 10.29 193.24 23.49 190.51 23.49 190.51 31.95 187.34 31.95 187.34 62.63 182.38 62.63 182.38 54.45 179.22 54.45 179.22 46.7 167.55 46.7 167.55 54.45 159.18 54.45 159.18 62.63 152.37 62.63 152.37 58.06 143.96 58.06 143.96 62.63 138.28 62.63 138.28 245.81 209.11 245.81 209.11 62.63 207.02 62.63"/><polygon class="bh" points="118.49 52.44 118.49 245.81 47.27 245.81 47.27 52.44 50.47 52.44 50.47 37.87 55.16 37.87 55.16 52.44 57.28 52.44 57.28 31.95 75.45 39.8 75.45 52.44 79.44 52.44 79.44 49.14 93.93 49.14 93.93 52.44 106.94 52.44 106.94 37.87 114.21 37.87 114.21 52.44 118.49 52.44"/><polygon class="bi" points="39.76 52.44 39.76 245.81 -31.46 245.81 -31.46 52.44 -21.44 52.44 -21.44 29.48 -3.27 29.48 -3.27 52.44 14.89 52.44 14.89 46.45 33.06 46.45 33.06 52.44 39.76 52.44"/><polygon class="bj" points="122.08 -9.33 122.08 14.06 40.91 76.41 10.46 76.41 122.08 -9.33"/><polygon class="bk" points="122.08 25.89 122.08 49.28 40.91 111.63 10.46 111.63 122.08 25.89"/><polygon class="bl" points="215.95 -9.33 215.95 14.06 134.78 76.41 104.33 76.41 215.95 -9.33"/><polygon class="bm" points="215.95 25.89 215.95 49.28 134.78 111.63 104.33 111.63 215.95 25.89"/><polygon class="bn" points="215.95 96.33 215.95 119.73 134.78 182.08 104.33 182.08 215.95 96.33"/><polygon class="bo" points="215.95 131.56 215.95 154.95 134.78 217.3 104.33 217.3 215.95 131.56"/><polygon class="bp" points="122.08 96.33 122.08 119.73 40.91 182.08 10.46 182.08 122.08 96.33"/><polygon class="bq" points="122.08 131.56 122.08 154.95 40.91 217.3 10.46 217.3 122.08 131.56"/><rect class="br" x="-31.46" y="210.25" width="247.41" height="11.1"/><rect class="bs" x="-31.46" y="76.41" width="247.41" height="11.1"/><rect class="bt" x="-10.99" y="113.47" width="275.6" height="9.54" transform="translate(245.05 -8.57) rotate(90)"/><rect class="k" x="129.22" y="-9.33" width="2.36" height="85.74"/><rect class="k" x="129.22" y="87.51" width="2.36" height="122.74"/><rect class="k" x="129.22" y="221.36" width="2.36" height="24.46"/><rect class="bu" x="-132.11" y="113.47" width="275.6" height="9.54" transform="translate(123.93 112.55) rotate(90)"/><rect class="k" x="-31.46" y="218.43" width="32.38" height="2.92"/><rect class="k" x="8.1" y="218.43" width="113.94" height="2.92"/><rect class="k" x="129.22" y="218.43" width="86.73" height="2.93"/><rect class="k" x="-31.46" y="84.59" width="32.38" height="2.92"/><rect class="k" x="8.1" y="84.59" width="113.94" height="2.92"/><rect class="k" x="129.22" y="84.59" width="86.73" height="2.92"/><rect class="k" x="8.1" y="-9.33" width="2.36" height="85.74"/><rect class="k" x="8.1" y="87.51" width="2.36" height="122.74"/><rect class="k" x="8.1" y="221.36" width="2.36" height="24.46"/><polygon class="k" points="225.49 -19.56 220.69 -13.49 220.69 247.59 226.72 254.61 225.49 -19.56"/><path class="bv" d="M15.88,166.57h0a.42.42,0,0,0,0,.07c.25,1.88,4.45,32.39,12.88,51.6,0,.08.07.15.1.22C31.24,223.84,34,228.3,37,231l.36.3c.27.22.54.44.82.63a9.36,9.36,0,0,0,1.11.7s6.77-24-2.31-42.53C28,171.89,16.25,166.73,15.88,166.57Z"/><path class="bw" d="M15.89,166.66c.25,1.88,4.45,32.39,12.88,51.6.84-1.33.81-3.76-.92-7.94C22,196.26,16.22,168.24,15.89,166.66Z"/><path class="bx" d="M15.88,166.57h0c.43.69,12.14,19.95,16.15,37.59,1.53,6.69,2.65,12.5,3.46,17.15.74,4.26,1.23,7.55,1.5,9.66l.36.3c0-2.7-.13-7.43-.67-13a97.65,97.65,0,0,0-4.49-22.21C27,181.18,21.84,173.14,21,171.81c1.47,1.95,13.48,18.23,15.9,30.79a84.57,84.57,0,0,1,1.23,10.78c.4,6.91.25,13.94.06,18.54a9.36,9.36,0,0,0,1.11.7s4.7-16.68,1-32.94A43.49,43.49,0,0,0,37,190.09C28,171.89,16.25,166.73,15.88,166.57Z"/><path class="by" d="M38.11,213.38c.4,6.91.25,13.94.06,18.54a9.36,9.36,0,0,0,1.11.7s4.7-16.68,1-32.94A95.94,95.94,0,0,1,38.11,213.38Z"/><path class="bz" d="M35.49,221.33c.74,4.26,1.23,7.55,1.5,9.66l.36.3c0-2.7-.13-7.43-.67-13C36.32,219.34,35.92,220.36,35.49,221.33Z"/><path class="ca" d="M39.28,232.62V235a16.76,16.76,0,0,0,3-2.81C52.64,220.07,60.8,186.48,61,185.65c0,0,0,0,0,0s-7.23,1.82-14.21,14c-2.71,4.72-4.45,10.75-5.55,16.37a111,111,0,0,0-1.8,13.57C39.31,231.47,39.28,232.62,39.28,232.62Z"/><path class="bx" d="M44.53,224.79c-.85,2.72-1.67,5.35-2.28,7.4C52.64,220.07,60.8,186.48,61,185.65c0,0-9.28,9.37-12.84,20.12L47.1,209c-3,9-5.23,16.17-5.39,16.66.23-.46,3-6.45,6.45-14.24,2.23-5.08-.88,4.65-3.62,13.38Z"/><path class="cb" d="M42.25,232.19C52.64,220.07,60.8,186.48,61,185.65c0,0-9.28,9.37-12.84,20.12L47.1,209c2.9-4.86,6.55-11,8.4-14.13,3.33-5.64-6.63,25.68-11,29.93h0C43.68,227.51,42.86,230.14,42.25,232.19Z"/><path class="bw" d="M41.25,216c1.39-1.46,3.59-4.62,5.32-11.08C49.29,194.67,61,185.65,61,185.65s0,0,0,0-7.23,1.82-14.21,14C44.09,204.32,42.35,210.35,41.25,216Z"/><rect class="cc" x="27.38" y="227.2" width="23.22" height="32.28"/><path class="cd" d="M48.48,250.2v6.33H32.73a3.52,3.52,0,0,1-3.23-3.75V230.14h5.94V244.2c0,3.31,2.31,6,5.16,6Z"/><path class="ce" d="M48.48,252.49v4H33a3.76,3.76,0,0,1-3.46-4V230.14h2.65v17.53c0,2.66,1.85,4.82,4.14,4.82Z"/><path class="bv" d="M38,166.57h0a.42.42,0,0,1,0,.07c-.25,1.88-4.45,32.39-12.88,51.6,0,.08-.07.15-.1.22-2.37,5.36-5.08,9.82-8.12,12.51l-.35.3c-.28.22-.55.44-.83.63a9.36,9.36,0,0,1-1.11.7s-6.77-24,2.31-42.53C25.85,171.89,37.62,166.73,38,166.57Z"/><path class="bw" d="M38,166.66c-.25,1.88-4.45,32.39-12.88,51.6-.84-1.33-.81-3.76.92-7.94C31.85,196.26,37.65,168.24,38,166.66Z"/><path class="bx" d="M38,166.57h0c-.43.69-12.14,19.95-16.15,37.59-1.53,6.69-2.65,12.5-3.46,17.15-.74,4.26-1.22,7.55-1.5,9.66l-.35.3c0-2.7.12-7.43.66-13a97.14,97.14,0,0,1,4.5-22.21c5.23-14.9,10.34-22.94,11.2-24.27C31.42,173.76,19.41,190,17,202.6a84.57,84.57,0,0,0-1.23,10.78c-.4,6.91-.25,13.94-.06,18.54a9.36,9.36,0,0,1-1.11.7s-4.7-16.68-1-32.94a43,43,0,0,1,3.32-9.59C25.85,171.89,37.62,166.73,38,166.57Z"/><path class="cf" d="M15.76,213.38c-.4,6.91-.25,13.94-.06,18.54a9.36,9.36,0,0,1-1.11.7s-4.7-16.68-1-32.94A94.48,94.48,0,0,0,15.76,213.38Z"/><path class="cg" d="M18.38,221.33c-.74,4.26-1.22,7.55-1.5,9.66l-.35.3c0-2.7.12-7.43.66-13C17.56,219.34,18,220.36,18.38,221.33Z"/><path class="ca" d="M14.59,232.62V235a17.1,17.1,0,0,1-3-2.81C1.23,220.07-6.93,186.48-7.13,185.65v0s7.23,1.82,14.2,14c2.71,4.72,4.45,10.75,5.56,16.37a110.57,110.57,0,0,1,1.79,13.57C14.56,231.47,14.59,232.62,14.59,232.62Z"/><path class="bx" d="M9.34,224.79c.85,2.72,1.67,5.35,2.28,7.4C1.23,220.07-6.93,186.48-7.13,185.65c0,0,9.28,9.37,12.84,20.12L6.77,209c3,9,5.23,16.17,5.39,16.66-.22-.46-3-6.45-6.45-14.24-2.23-5.08.88,4.65,3.62,13.38Z"/><path class="ch" d="M11.62,232.19C1.23,220.07-6.93,186.48-7.13,185.65c0,0,9.28,9.37,12.84,20.12L6.77,209c-2.9-4.86-6.55-11-8.4-14.13C-5,189.21,5,220.53,9.33,224.78h0C10.19,227.51,11,230.14,11.62,232.19Z"/><path class="bw" d="M12.63,216c-1.4-1.46-3.6-4.62-5.33-11.08C4.58,194.67-7.13,185.65-7.13,185.65v0s7.23,1.82,14.2,14C9.78,204.32,11.52,210.35,12.63,216Z"/><rect class="ci" x="2.55" y="227.2" width="23.22" height="32.28"/><path class="cj" d="M23.65,250.2v6.33H7.9a3.52,3.52,0,0,1-3.23-3.75V230.14h5.94V244.2c0,3.31,2.31,6,5.16,6Z"/><path class="ce" d="M23.65,252.49v4H8.13a3.76,3.76,0,0,1-3.46-4V230.14H7.32v17.53c0,2.66,1.85,4.82,4.14,4.82Z"/><polygon class="ck" points="219.9 271.79 204.59 271.79 210.76 268.33 214.62 268.33 219.9 271.79"/><polygon class="m" points="219.9 271.79 213.85 271.79 212.8 268.33 214.62 268.33 219.9 271.79"/><rect class="cl" x="210.76" y="207.41" width="3.86" height="60.92"/><path class="m" d="M214.62,213.75v54.58h-1.93V242.49l-1.93-2.13V213.85C211.82,213.81,213.19,213.78,214.62,213.75Z"/><path class="cm" d="M239.84,134.93v81.45h-54.3V134.93c0-13.34,9.3-24.16,20.77-24.16h12.76C230.54,110.77,239.84,121.59,239.84,134.93Z"/><path class="cn" d="M219.07,110.77H206.31v.13c8.85,2.76,15.37,12.15,15.37,23.32v23.29c0,7.19-5,13-11.19,13H185.54v45.86h54.3V134.93C239.84,121.59,230.54,110.77,219.07,110.77Z"/><ellipse class="co" cx="200.58" cy="133.65" rx="2.67" ry="3.11"/><ellipse class="cp" cx="212.69" cy="133.65" rx="2.67" ry="3.11"/><ellipse class="cq" cx="224.8" cy="133.65" rx="2.67" ry="3.11"/><ellipse class="cr" cx="200.58" cy="154.78" rx="2.67" ry="3.11"/><ellipse class="cs" cx="212.69" cy="154.78" rx="2.67" ry="3.11"/><ellipse class="ct" cx="224.8" cy="154.78" rx="2.67" ry="3.11"/><path class="m" d="M239.84,134.93v81.45h-54.3V193.84h41.58V126.48a26.49,26.49,0,0,0-4.77-15.4C232.27,112.91,239.84,122.89,239.84,134.93Z"/><path class="cu" d="M234.9,119.3a19.05,19.05,0,0,0-13.41-5.71H208.73c-11.47,0-20.77,10.81-20.77,24.16v78.63h-2.42V134.93c0-13.34,9.3-24.16,20.77-24.16h12.76C225.41,110.77,231.09,114.08,234.9,119.3Z"/><path class="cv" d="M185.54,216.38h54.3a0,0,0,0,1,0,0v2.15a7.69,7.69,0,0,1-7.69,7.69H193.23a7.69,7.69,0,0,1-7.69-7.69v-2.15A0,0,0,0,1,185.54,216.38Z"/><rect class="cw" x="177.97" y="188.6" width="14.84" height="37.62" rx="6.42"/><path class="cx" d="M192.81,196.93v21a8.32,8.32,0,0,1-4.88,7.9c0-.28,0-.57,0-.85V204c0-4.6-3.2-8.34-7.16-8.34h-.51a6,6,0,0,0-2.28.44c.37-4.2,3.42-7.48,7.12-7.48h.52C189.6,188.6,192.81,192.33,192.81,196.93Z"/><path class="m" d="M192.81,196.93v21a8.49,8.49,0,0,1-4.14,7.55A9,9,0,0,0,191,219.3v-21c0-4.6-3.2-8.33-7.16-8.33h-.51a6.3,6.3,0,0,0-3,.76,6.59,6.59,0,0,1,4.81-2.17h.52C189.6,188.6,192.81,192.33,192.81,196.93Z"/><rect class="cy" x="232.48" y="188.6" width="14.84" height="37.62" rx="6.42"/><path class="cz" d="M247.31,196.93v21a8.32,8.32,0,0,1-4.88,7.9c0-.28,0-.57,0-.85V204c0-4.6-3.21-8.34-7.16-8.34h-.52a6,6,0,0,0-2.27.44c.37-4.2,3.41-7.48,7.12-7.48h.51C244.11,188.6,247.31,192.33,247.31,196.93Z"/><path class="m" d="M247.31,196.93v21a8.47,8.47,0,0,1-4.14,7.55,8.93,8.93,0,0,0,2.32-6.14v-21c0-4.6-3.2-8.33-7.15-8.33h-.52a6.3,6.3,0,0,0-3,.76,6.63,6.63,0,0,1,4.82-2.17h.51C244.11,188.6,247.31,192.33,247.31,196.93Z"/><path class="da" d="M334.14,139.59v22.13H322.72v-7.46a8,8,0,0,1,1.91-5.27l.38-.44a13.28,13.28,0,0,0,3.2-8.79v-.17Z"/><path class="db" d="M333.81,139.59c0,1.5,0,5.61,0,13.15a84.24,84.24,0,0,1-.2,9h.53V139.59Zm-5.6.17a13.28,13.28,0,0,1-3.2,8.79l-.38.44a8,8,0,0,0-1.91,5.27v7.46h.67c-.08-2.28-.26-8.38,0-9.64.34-1.46,2.39-3.9,3.92-6.21,1.08-1.64,1.33-4.64,1.39-6.28h-.52Z"/><path class="dc" d="M333.21,141.92V160.8h-8.95v-6.36a7.48,7.48,0,0,1,1.4-4.5l.28-.37c1.48-2,3.45-4.67,3.45-7.5v-.15Z"/><path class="dd" d="M333.21,141.92V160.8h-8.95V157a2.53,2.53,0,0,1,.6.18c3.18,1.41,7.34-.17,3.87-1s-3.79-5-1.15-3,5.63-3.19,2.64-2.57-4-2.29,0-3.26,2.59-3.7,1.19-3.39-2-1.93-2-1.93v-.15Z"/><rect class="de" x="328.21" y="137.35" width="5.93" height="2.25"/><rect class="m" x="328.21" y="137.35" width="5.93" height="1.13"/><rect class="df" x="325.54" y="133.81" width="8.61" height="3.54"/><polygon class="m" points="334.14 133.81 334.14 137.35 325.54 137.35 325.54 136.12 331.75 136.12 331.75 133.81 334.14 133.81"/><polygon class="dg" points="325.65 133.81 325.65 137.35 322.63 136.55 322.63 134.65 325.65 133.81"/><polygon class="dh" points="325.65 135.58 325.65 137.35 322.63 136.55 322.63 135.58 325.65 135.58"/><rect class="di" x="151.96" y="161.72" width="241.1" height="8.93"/><polygon class="dj" points="386.55 170.65 386.55 289.38 244.99 289.38 244.99 194.65 173.87 194.65 173.87 289.38 158.47 289.38 158.47 170.65 386.55 170.65"/><polygon class="dk" points="386.55 170.65 386.55 289.38 253.57 289.38 253.57 208.73 244.99 194.65 173.87 194.65 173.87 289.38 166.14 289.38 166.14 179.53 158.47 179.53 158.47 170.65 386.55 170.65"/><rect class="dl" x="173.87" y="190.23" width="71.05" height="4.41"/><polygon class="dm" points="376.12 170.65 158.47 170.65 158.47 174.43 321.07 174.43 256.23 289.38 386.55 289.38 386.55 174.43 386.55 170.65 376.12 170.65"/><polygon class="dn" points="393.06 161.72 393.06 170.65 151.96 170.65 151.96 166.37 307.78 166.37 307.78 161.72 393.06 161.72"/><rect class="do" x="344.65" y="161.72" width="48.41" height="8.93"/><polygon class="dp" points="297.53 262.83 285.34 322 278.97 322 273.82 317.6 265.64 317.6 258.68 322 252.31 322 264.5 262.83 297.53 262.83"/><polygon class="dq" points="262.69 262.83 264.5 262.83 252.31 322 250.5 322 262.69 262.83"/><polygon class="dr" points="297.53 262.83 306.18 322 299.8 322 293.11 317.6 284.93 317.6 279.52 322 273.15 322 264.5 262.83 297.53 262.83"/><polygon class="ds" points="293.11 317.6 295.56 317.6 301.17 321.47 299.8 322 293.11 317.6"/><polygon class="dt" points="297.84 264.94 266.93 264.94 275.26 322 273.15 322 264.5 262.83 297.53 262.83 297.84 264.94"/><polygon class="du" points="298.14 303.2 277 303.2 272.1 268.33 293.24 268.33 298.14 303.2"/><polygon class="dv" points="293.24 268.33 291.42 268.33 272.1 268.33 272.49 271.15 291.82 271.15 296.32 303.2 297.75 303.2 298.14 303.2 293.24 268.33"/><path class="dw" d="M282.5,279.57l-3.21,9.12c-.61,1.74.41,3.57,2,3.57h8.47c1.89,0,3.09-2.48,2.07-4.25l-5.27-9.12C285.56,277.14,283.21,277.54,282.5,279.57Z"/><path class="dx" d="M48.79,273.18l-3.61,42.3c-.32,3.71-2.84,6.52-5.85,6.52H20.26c-3,0-5.52-2.81-5.84-6.52l-3.63-42.36c3.15,1.56,10.5,2.66,19.06,2.66S45.58,274.71,48.79,273.18Z"/><path class="dy" d="M35.16,281.68c-1.7,0-3.33-.06-4.85-.17-4.7-.33-8.53,4.34-8.06,9.79l1.65,19.33c.24,2.7,2.08,4.75,4.26,4.75H42.07a4,4,0,0,0,3.28-1.9l-.17,2c-.32,3.71-2.84,6.53-5.85,6.53H20.26c-3,0-5.52-2.82-5.84-6.53l-3.63-42.35c3.15,1.56,10.5,2.66,19.06,2.66s15.73-1.07,18.94-2.6l-.59,6.92C45.59,281,40.73,281.68,35.16,281.68Z"/><path class="y" d="M48.79,273.18l-.46,5.52A72.41,72.41,0,0,1,33,280.12a81.53,81.53,0,0,1-12.3-.86c-3.42-.53-6.36,2.81-6,6.81l2.89,33.74a9.9,9.9,0,0,0,.28,1.57,7.37,7.37,0,0,1-3.47-5.91l-3.63-42.35c3.15,1.56,10.5,2.66,19.06,2.66S45.58,274.71,48.79,273.18Z"/><path class="dz" d="M47.75,271.07H9.15v2.19c0,.61.59,1.19,1.64,1.71,3.15,1.57,10.5,2.67,19.06,2.67s15.73-1.08,18.94-2.61c1.13-.54,1.76-1.14,1.76-1.77v-2.19Z"/><path class="ea" d="M50.55,271.41c0,.64-.63,1.22-1.76,1.77a15.1,15.1,0,0,1-1.92.72c-3.73,1.14-10,1.88-17,1.88s-13.29-.74-17-1.88a14.66,14.66,0,0,1-2-.78c-1-.52-1.64-1.1-1.64-1.71,0-2.41,9.27-4.36,20.7-4.36S50.55,269,50.55,271.41Z"/><path class="y" d="M46.87,273.9c-3.73,1.14-10,1.88-17,1.88s-13.29-.74-17-1.88c2.15-1.81,9-3.14,17-3.14S44.71,272.09,46.87,273.9Z"/><path class="eb" d="M39.29,287.79h3.4A1.76,1.76,0,0,1,44.2,290l-2.62,12.71a1.53,1.53,0,0,1-3-.29l-.79-12.71A1.7,1.7,0,0,1,39.29,287.79Z"/><ellipse class="ec" cx="41.36" cy="282.72" rx="2.09" ry="2.44"/><path class="eb" d="M27.76,241.17l-.23,0c-7.64.4-13.6,8-13.6,16.92v10.52c.51-.13,1-.26,1.6-.36V258.09c0-7.59,4.92-14.09,11.24-15a9.9,9.9,0,0,1,1.64-.11c6.89.14,12.45,6.7,12.45,14.73v23.16a2.78,2.78,0,0,0,1.39,2.51c.13.06.21.07.21,0V257.75C42.46,248.44,35.82,240.89,27.76,241.17Z"/><path class="ed" d="M27.53,241.19a10.56,10.56,0,0,0-.76,1.94c-6.32.87-11.24,7.37-11.24,15v10.18c-.56.1-1.09.23-1.6.36V258.11C13.93,249.17,19.89,241.59,27.53,241.19Z"/><ellipse class="db" cx="186.65" cy="147.57" rx="6.87" ry="7.99"/><ellipse class="db" cx="191.3" cy="138.64" rx="3.44" ry="4"/><ellipse class="db" cx="231.47" cy="289.87" rx="6.87" ry="7.99"/><ellipse class="db" cx="237.93" cy="280.94" rx="3.44" ry="4"/><ellipse class="db" cx="346.53" cy="289.87" rx="6.87" ry="7.99"/><ellipse class="db" cx="31.62" cy="104.6" rx="6.87" ry="7.99"/><ellipse class="db" cx="339.06" cy="280.94" rx="3.44" ry="4"/><ellipse class="db" cx="308.78" cy="238.67" rx="3.44" ry="4"/><ellipse class="db" cx="54.43" cy="259.81" rx="3.44" ry="4"/><ellipse class="db" cx="42.32" cy="62.56" rx="3.44" ry="4"/><ellipse class="db" cx="308.78" cy="30.16" rx="3.44" ry="4"/><ellipse class="db" cx="300.31" cy="152.73" rx="3.44" ry="4"/><ellipse class="db" cx="254.28" cy="151.32" rx="3.44" ry="4"/><ellipse class="db" cx="324.53" cy="124.55" rx="3.44" ry="4"/><polygon class="ee" points="233.63 156.85 227.18 161.77 203.37 161.77 205.15 158.18 210.27 156.07 220.5 154.24 224.94 150.64 226.69 149.22 227.18 148.82 233.63 156.85"/><path class="ef" d="M233.63,156.85l-6.45,4.92H207.4l.35-1.09s7.27-.17,10.75-.71,9.84-4.48,9.84-4.48l-3.4-4.85,1-.8.76-.62.5-.4Z"/><polygon class="eg" points="226.69 149.22 220.77 155.29 208.66 158.18 206.39 159.31 205.31 161.77 203.37 161.77 205.15 158.18 210.27 156.07 220.5 154.24 226.69 149.22"/><path class="eh" d="M225.55,161.77h-13.8s1.78-3.71,5.49-3.59a11.48,11.48,0,0,0,4.56-.72h0c.21-.09.39-.16.55-.24l.13-.05a2.12,2.12,0,0,1,1.76,0C226.57,158.26,225.55,161.77,225.55,161.77Z"/><path class="ef" d="M225.55,161.77H213.49c2.2-1.94,5.52-1.8,7-1.8s1.42-1.6,1.29-2.51c.21-.09.39-.16.55-.24a2.2,2.2,0,0,1,1.89-.06C226.57,158.26,225.55,161.77,225.55,161.77Z"/><polygon class="ei" points="233.63 156.85 227.18 161.77 223.75 161.77 230.92 155.49 225.92 149.84 226.69 149.22 227.18 148.82 233.63 156.85"/><path class="ej" d="M222.48,157.17c-.28.55-1.15,1.62-3.72,1.49a6.75,6.75,0,0,0-6.23,3.11h-.78s1.78-3.71,5.49-3.59a11.48,11.48,0,0,0,4.56-.72h0c.21-.09.39-.16.55-.24Z"/><path class="ek" d="M260.37,115.69,255.73,136l-22.1,20.89-6.45-8,2.11-2.37h0l15-16.77s2.45-10.87,5.67-27.44c1.32-6.83,2.73-10.64,3.93-12.75,1.71-3,3-2.59,3-2.59C262.38,89.94,260.37,115.69,260.37,115.69Z"/><path class="el" d="M252.1,102c-2.41,10.74.56,18.66-2.13,16.2s-3,10.92-3,10.92,1.63,4.23-.76,3.52-15.14,16.14-15.14,16.14l-1.76-2.38,15-16.77s2.45-10.87,5.67-27.44,6.92-15.34,6.92-15.34S254.51,91.3,252.1,102Z"/><path class="em" d="M260.37,115.69l-3.08,13.46-.61,2.68-1,4.13-22.1,20.89-6.45-8,1.16-1.3.95-1.07,5,6.77s11.67-11.7,15.77-17.9c1.12-1.7,1.68-3,1.28-3.52-.13-.16-.24-.32-.35-.48,0,0,0,0,0,0a1.32,1.32,0,0,0-.19-.29l0,0c-1.11-1.79-1.12-3.13.83-1.76l0,0a14,14,0,0,1,1.18,1l.22.18c3.31,2.56,3.16-7.33.92-12.16-1.82-3.91-3-12.94-2.52-15.62.12-.69.35-1,.71-.58,1.58,1.68,3.87,8.22,3.59,5.88,0-.2-.07-.45-.13-.77-.79-4.23-2.54-14.84-2.54-14.84.3-1.06.6-2,.89-2.83,1.71-3,3-2.59,3-2.59,1.51.84,2.46,3.41,3,6.7C261.42,102.19,260.37,115.69,260.37,115.69Z"/><path class="en" d="M256.68,131.83l-1,4.13-22.1,20.89-6.45-8,1.16-1.3,6.06,7.77s4.67-5,9.07-10.49a28.71,28.71,0,0,1,3.3-3.48c3.47-3.08,7.2-7,6.25-9.12a11.22,11.22,0,0,0-2.44-3.5,3.74,3.74,0,0,1,1,.53l0,0c.36.28.75.6,1.18,1l.22.18C255,132.05,256.1,132.31,256.68,131.83Z"/><path class="eo" d="M260.37,115.69l-3.08,13.46c0-1-.12-2.08-.15-3-.09-3.26-1.39-12.16-3.19-15.4a38.33,38.33,0,0,1-2.56-8.15c.12-.69.35-1,.71-.58,1.58,1.68,3.87,8.22,3.59,5.88.51,1.37.87,1.69,1.21-.25.86-4.75-.86-14.08-.86-14.08h3.89C261.42,102.19,260.37,115.69,260.37,115.69Z"/><path class="ep" d="M278.36,98.52s-7.57,8.8-12.17,10.7a3.43,3.43,0,0,1-1.81.34,1.47,1.47,0,0,1-.55-.17c-3.57-1.9-6.09-3.62-6.61-9.84a120.31,120.31,0,0,1-.12-12.76l.12-.07,1.36-.35,2.18-.59,14.49-3.85,3.6.31C277.33,88.14,278.36,98.52,278.36,98.52Z"/><path class="eq" d="M278.36,98.52s-.67.78-1.73,1.92c-2.52,2.71-7.21,7.45-10.44,8.78a3.43,3.43,0,0,1-1.81.34,1.47,1.47,0,0,1-.55-.17l-.05,0c-3.53-1.89-6-3.63-6.56-9.82a120.31,120.31,0,0,1-.12-12.76l.12-.07,1.36-.35.7.8.06.06.24.28s-.06.49-.13,1.29h0a52.3,52.3,0,0,0-.15,8.66c.38,4.58,3.53,5.28,8.62,4.4s-1.56,3-4.37,3.17,0,4.58,5.11.71,7.47-6.18,6.59-11-3.49,1-3.49,1l-9.66-2.17-.64-3.76-.7-4,14.49-3.85,3.6.31C277.33,88.14,278.36,98.52,278.36,98.52Z"/><path class="er" d="M278.36,98.52s-.67.78-1.73,1.92c.16-1.83.28-3.63.26-4.68-.05-2.77-.4-9-1.64-6.21s-2.73,4.79-5.41,4a69.14,69.14,0,0,1-8.38-3.76l-.7-4,14.49-3.85,3.6.31C277.33,88.14,278.36,98.52,278.36,98.52Z"/><path class="es" d="M263.78,109.37c-3.53-1.89-6-3.63-6.56-9.82a120.31,120.31,0,0,1-.12-12.76l.12-.07,1.36-.35.7.8c-.54,3.28-1.58,10.63-.65,14.52A13.68,13.68,0,0,0,263.78,109.37Z"/><path class="et" d="M267.45,101.94a11.77,11.77,0,0,1-.31,2,7,7,0,0,1-.4,1.17,6.64,6.64,0,0,0-.46,2,18.5,18.5,0,0,0-.09,2.17,3.43,3.43,0,0,1-1.81.34,20.45,20.45,0,0,1,.06-2.24,10.56,10.56,0,0,1,.45-2.55h0a5.66,5.66,0,0,1,.24-.66,7.05,7.05,0,0,0,.48-2,28.11,28.11,0,0,0-.66-7.93,52.66,52.66,0,0,0-1.35-5.35l1.7-.74a57.2,57.2,0,0,1,1.6,6.52A29.65,29.65,0,0,1,267.45,101.94Z"/><path class="ef" d="M266.9,94.66,265,94.23c-.21-1.09-.45-2.11-.69-3s-.47-1.75-.66-2.34l1.7-.74c.06.18.57,1.82,1.09,4.07C266.57,93,266.74,93.8,266.9,94.66Z"/><path class="eu" d="M266.39,92.21c-.69-.31-1.42-.65-2.13-1-.24-1-.47-1.75-.66-2.34l1.7-.74C265.36,88.32,265.87,90,266.39,92.21Z"/><path class="ef" d="M266.28,107.05a18.5,18.5,0,0,0-.09,2.17,3.43,3.43,0,0,1-1.81.34,20.45,20.45,0,0,1,.06-2.24A4.58,4.58,0,0,0,266.28,107.05Z"/><path class="ef" d="M267.45,101.94a11.77,11.77,0,0,1-.31,2,16.43,16.43,0,0,1-2.25.86,5.66,5.66,0,0,1,.24-.66,7.05,7.05,0,0,0,.48-2C266.19,102.12,266.8,102.05,267.45,101.94Z"/><path class="ev" d="M273.13,81.13l-8,6.79-.7.59-3.75-3-1.41-1.14-.19-2.1-.48-5.53.62-.43,9.54-6.56s1.59,7.58,3,9.48Z"/><path class="ew" d="M260.71,85.51l-1.41-1.14-.19-2.1-.48-5.53.62-.43s0,.07.05.1Z"/><path class="ex" d="M273.13,81.13l-2,1.71-6,5.08,4-5.16-2-5.73s-2.42,4.5-4.69,5.49a4.21,4.21,0,0,1-3.3-.25L259,81l-.37-4.24,10.16-7s1.59,7.58,3,9.48Z"/><path class="ey" d="M273.13,81.13l-2,1.71-3.65-8.76s-3.47,6.56-5.37,7A7.14,7.14,0,0,1,259,81l-.37-4.24,10.16-7s1.59,7.58,3,9.48Z"/><path class="ez" d="M288,77c-1.07,3.26-2.94,5.55-5.61,4.8-7.35-2.07-7.57-8.07-9.24-16.07s-1-12.66-5-13.95-2.05-2.67,0-2.6c0,0,6.89-.62,8.9,5.26.19.56.38,1.07.57,1.55,1.87,4.56,4.12,5.63,8.55,6.24C289.27,62.64,289.86,71.29,288,77Z"/><path class="fa" d="M288,77c-1.07,3.26-2.94,5.55-5.61,4.8A11.19,11.19,0,0,1,279,80.24c-4.09-2.81-4.49-8-5.85-14.53-1.67-8-1-12.66-5-13.95s-2.05-2.67,0-2.6a10.4,10.4,0,0,1,6.19,1.6A7.1,7.1,0,0,1,277,54.42c.19.56.38,1.07.57,1.55-.43-.45-.91-1-1.41-1.55-2.43-2.66-1.74,5,2.27,7.5s6.05,1.92,7.19,2.17-2.18,3.18-6.8,0,.06,4.53,4.83,4.82,2.63,5.54-3.42,2.47-1,7.24,5.09,5.74A6.66,6.66,0,0,1,288,77Z"/><path class="fb" d="M279,80.24c-4.09-2.81-4.49-8-5.85-14.53-1.67-8-1-12.66-5-13.95s-2.05-2.67,0-2.6a10.4,10.4,0,0,1,6.19,1.6c-.41.23-.74.86-.48,2.41.53,3.17.91,6.94,2,8s.41,1-.63.79.11,3.86,2.67,5.92-1.64-.12-2.67,0-1.06,6.29,2.17,8.92A3.71,3.71,0,0,1,279,80.24Z"/><path class="fc" d="M274.13,63c-.55,7.77-4.67,7.9-4.67,7.9s-17.36-3.82-17.73-6.82c0-.13,0-.27-.06-.39-.42-2.1-1.86-3.46-1.69-6.67v0a14.61,14.61,0,0,1,.66-3.44c1.78-5.82,9.71-9.82,15.36-7.85a7.81,7.81,0,0,1,1.12.47,10.89,10.89,0,0,1,1.44.89C273.12,50.28,274.64,56,274.13,63Z"/><path class="fd" d="M266,45.72a22.69,22.69,0,0,0-8.53,1.64c-4.31,2.07-6.37,5.47-6,8.36s1,7.4,1.33,7.75c.12.13-.4.21-1.1.23-.42-2.1-1.86-3.46-1.69-6.67v0a14.61,14.61,0,0,1,.66-3.44C252.43,47.75,260.36,43.75,266,45.72Z"/><path class="fa" d="M274.13,63c-.55,7.77-4.67,7.9-4.67,7.9s-2.24-.49-5.13-1.26h0C259.17,68.27,252,66,251.73,64.09c-.29-2.33-1.93-3.65-1.75-7.06v0c.87-3.84,3.21-3.92,6.44-4.72,4.23-1.06,9.36,4,6.74.61s-7.13-4.67-1.5-3.75c5.25.85,8.46,5.52,5.8,2.08s-4.76-5.63-1.67-4,4.86,5.11,3.32,1.06a10.42,10.42,0,0,0-.55-1.25,11.82,11.82,0,0,1,2.66,2.57C273.71,53,274.53,57.57,274.13,63Z"/><path class="fb" d="M274.13,63c-.55,7.77-4.67,7.9-4.67,7.9s-2.24-.49-5.13-1.26h0q-.54-.7-1.08-1.47c-4.39-6.3-5.12-9.58-.6-6.26s4-1.4,3.16-2.76.7.87,4.05,2.13c2.94,1.11-1.35-3.23,2.85-3.23.43,0-.63-6.24-1.47-8.41C273.71,53,274.53,57.57,274.13,63Z"/><path class="fe" d="M268.27,72c-3.11-.69-2.67,6-8.16,7.07a9,9,0,0,1-2.63.16c-4.56-.39-5.63-5-6.39-11a31.14,31.14,0,0,1-.21-7.59,9.93,9.93,0,0,1,1-3.38A4.54,4.54,0,0,1,254,55c3.12-1.38,4.6,0,4.6,0s.45,6.21,3,9,4.59,2.24,4.59,2.24,2.53-3.28,4.61-1S271.39,72.64,268.27,72Z"/><path class="ff" d="M257.48,79.18c-4.56-.39-5.63-5-6.39-11a31.14,31.14,0,0,1-.21-7.59,9.93,9.93,0,0,1,1-3.38c-.25,3.82-.48,10.06.26,13.74A12.76,12.76,0,0,0,257.48,79.18Z"/><path class="ex" d="M266.19,66.25s-1.06,2.68-4.52,1.08S257.22,57,257.22,57s-.79-.26-3.27.79a8.27,8.27,0,0,0-3.07,2.81c0-.26.07-.5.12-.75.42-2.42,1.39-4,3-4.77,3.12-1.38,4.6,0,4.6,0s.45,6.21,3,9a5.9,5.9,0,0,0,4,2.27h.06a1.74,1.74,0,0,0,.49,0Z"/><path class="fg" d="M265.61,66.28c-1.33,0-4.58-.13-5.64-2.72a43.09,43.09,0,0,1-2.1-8.19,5.75,5.75,0,0,0-5.77,2.68c-.4.67-.77,1.25-1.1,1.75.42-2.42,1.39-4,3-4.77,3.12-1.38,4.6,0,4.6,0s.45,6.21,3,9A5.9,5.9,0,0,0,265.61,66.28Z"/><path class="ex" d="M268.56,70.72a6.21,6.21,0,0,1-.64.19s-1-4.1,0-4.93a1.37,1.37,0,0,1,1.92.24,3.46,3.46,0,0,1,.91,2C271,69.65,269.46,70.4,268.56,70.72Z"/><path class="fh" d="M269.45,68.91c-.89.32-1.52.72-.89,1.81a6.21,6.21,0,0,1-.64.19s-1-4.1,0-4.93a1.37,1.37,0,0,1,1.92.24,2.44,2.44,0,0,0-.72.87C268.62,68.14,270.51,68.54,269.45,68.91Z"/><ellipse class="fb" cx="252.77" cy="67.09" rx="0.67" ry="1.62"/><ellipse class="fb" cx="259.3" cy="65.71" rx="0.67" ry="1.62"/><path class="ex" d="M257.22,72.46l-.77.18a1.13,1.13,0,0,1-.89-.16,1.48,1.48,0,0,1-.67-1,1.88,1.88,0,0,1,0-.67l.28-5.44v-.25l.11.38,1.27,4.62Z"/><path class="fi" d="M257.22,72.46l-.77.18a1.35,1.35,0,0,1-1.56-1.19.92.92,0,0,1,.74-.54,1.12,1.12,0,0,0,.93-.82Z"/><path class="fj" d="M255.56,72.48a1.48,1.48,0,0,1-.67-1,1.88,1.88,0,0,1,0-.67l.28-5.44a.51.51,0,0,1,.12.13A38.49,38.49,0,0,0,255.56,72.48Z"/><path class="fk" d="M257.22,61.46s2.45-3.1,4.45-.65"/><path class="fk" d="M254,61.64s-1.21-1.47-3.22,1"/><path class="fl" d="M258.63,75.18s2.9.16,3.47-2.51"/><polygon class="fm" points="275.25 81.93 271.76 92.31 268.08 90.39 264.45 88.51 271.18 82.79 273.13 81.13 275.25 81.93"/><polygon class="ef" points="275.25 81.93 271.76 92.31 270.67 91.75 268.08 90.39 272.42 83.46 271.18 82.79 272.38 81.78 273.13 81.13 275.25 81.93"/><polygon class="fn" points="275.25 81.93 271.76 92.31 270.67 91.75 274.22 82.52 272.38 81.78 273.13 81.13 275.25 81.93"/><polygon class="fo" points="264.45 88.51 260.37 94.73 257.22 86.72 257.88 85.97 259.3 84.37 261.83 86.41 264.45 88.51"/><polygon class="ef" points="264.45 88.51 260.37 94.73 260.07 93.97 257.22 86.72 257.88 85.97 260.71 90.18 261.83 86.41 263.22 87.52 264.45 88.51"/><polygon class="fp" points="264.45 88.51 260.37 94.73 260.07 93.97 263.22 87.52 264.45 88.51"/><path class="fq" d="M262.72,152.21c.42-9,.51-21.8-1.88-26.94-3.84-8.28-9.4-13.21-7.4-20.19,1.23-4.29,1.14-9.56.9-13a5.67,5.67,0,0,1,1.43-4.3,2.59,2.59,0,0,1,.41-.4,5,5,0,0,1,.72-.51l.2-.1a120.31,120.31,0,0,0,.12,12.76c.52,6.22,3,7.94,6.61,9.84a1.47,1.47,0,0,0,.47.17,3.52,3.52,0,0,0,1.87-.33h0c4.6-1.9,12.17-10.7,12.17-10.7a76.59,76.59,0,0,1-.11-12.68,24.33,24.33,0,0,1,.6-3.6l4.71.41a62.47,62.47,0,0,1,16.38,25.27c5.13,15.53,7.57,53.8,7.57,53.8H262.1S262.47,157.68,262.72,152.21Z"/><path class="fr" d="M266.19,142.78c-.08,4.87-1.81,7.77-3.47,9.43.42-9,.51-21.8-1.88-26.94-3.84-8.28-9.4-13.21-7.4-20.19,1.23-4.29,1.14-9.56.9-13a5.67,5.67,0,0,1,1.43-4.3,2.59,2.59,0,0,1,.41-.4c.25,4.11.62,13.72-1,16-2,2.86.86,12.59,4.86,17.35S266.34,133.32,266.19,142.78Z"/><path class="ef" d="M264.3,109.56c-2.34.22-6.2-.06-7.62-4s-1.2-12.54-.91-17.76a4.52,4.52,0,0,1,1.13-.91l.2-.1a120.31,120.31,0,0,0,.12,12.76c.52,6.22,3,7.94,6.61,9.84A1.47,1.47,0,0,0,264.3,109.56Z"/><path class="ef" d="M307.51,161.72H267c1.19-12.79,2.37-26.89,2.08-29.92-.55-5.81-6.71-10.39-3.24-9.94s3.19,4.31,8.34,2.37,12-12,8.63-17.18-2.58-21.52-2.58-21.52l-2,.31a24.33,24.33,0,0,1,.6-3.6l2.55.22,2.16.19a62.47,62.47,0,0,1,16.38,25.27C305.07,123.45,307.51,161.72,307.51,161.72Z"/><path class="fs" d="M307.51,161.72h-5.62l-1.18-8.5-8.43,8.5h-16.4L286.17,146s-1.58-12.06-5.9-12.16-9.53-.69,0-6.24,9.32-14.26,3.64-22.8c-4.39-6.59-3.26-17.63-2.51-22.31l2.16.19a62.47,62.47,0,0,1,16.38,25.27C305.07,123.45,307.51,161.72,307.51,161.72Z"/><path class="ft" d="M309.52,124c-2.67,8.53-21.19,29.24-21.19,29.24l-5.62-4.5-2.45-2,1.58-2.72,14.55-25s-8.9-9.06-12.83-20.45c-2.2-6.35-1.95-10.58-1.29-13.08a12.58,12.58,0,0,1,.38-1.21,6,6,0,0,1,.91-1.67C291.42,80.15,312.19,115.43,309.52,124Z"/><path class="fu" d="M309.52,124a29.28,29.28,0,0,1-3.15,6.17c-4.71,7.52-13,17.25-16.44,21.25-1,1.15-1.6,1.82-1.6,1.82l-5.62-4.5-2.45-2,1.1-1.9.48-.82,8.2,4.78s14.08-21.25,13.76-22.65-5.85-4.29-2.63-5.46,6.12,3.69,6.34,1.15S300,102,293.67,92.31c-4.06-6.16-8.41-7.69-11-8a6,6,0,0,1,.91-1.67C288.67,81,299.26,95.4,305.29,108,308.52,114.75,310.45,121,309.52,124Z"/><path class="fv" d="M288.33,150.66l1.6.74c-1,1.15-1.6,1.82-1.6,1.82l-5.62-4.5-2.45-2,1.1-1.9Z"/><path class="fw" d="M309.52,124a29.28,29.28,0,0,1-3.15,6.17,8.35,8.35,0,0,0-.36-3.28c-1.36-3.52-.5-2.39,1.5-2.64s1.07-5.83-1.5-12.86a10.3,10.3,0,0,1-.72-3.37C308.52,114.75,310.45,121,309.52,124Z"/><path class="el" d="M299.8,119.34c-1.26.77-10.24,16.91-15.58,26.63-.77-.73-1.55-1.47-2.27-2.12l14.44-24.79s-8.9-9.06-12.83-20.45c-2.2-6.35-1.95-10.58-1.29-13.08.12,2.5,0,7,1.64,10.23,3.18,6.17.22-1.46.22-4.64s.91,4.75,2.8,10.74,5.23,12.31,9.54,13.89S301.62,118.23,299.8,119.34Z"/><path class="fx" d="M288.33,153.22s-4.18,4.67-6.41,5.44a5.73,5.73,0,0,0-3.11,3.06H258.63s-1.19-1.51,1.74-1.76,4.09-4.14,4.09-4.14l8.67-1.3,5.38-5.85,1.75-1.91.9.72Z"/><path class="fy" d="M281.16,147.48l-7.8,8.62-8.11.75-3.85,4.87h-2.77s-1.19-1.51,1.74-1.76,4.09-4.14,4.09-4.14l8.67-1.3,5.38-5.85,1.75-1.91Z"/><path class="ef" d="M288.33,153.22s-4.18,4.67-6.41,5.44a5.73,5.73,0,0,0-3.11,3.06H264.44l1.5-3.32a28.15,28.15,0,0,0,7-.22c3-.62,9.43-5,9.43-5l-3.88-4.55.82-.9.93-1Z"/><path class="fz" d="M288.33,153.22s-4.18,4.67-6.41,5.44a5.73,5.73,0,0,0-3.11,3.06h-2.63l8.91-8.5-5.76-5.45.93-1Z"/><path class="db" d="M292.38,161.77H270.06l-15.31,0H252.1s6.31-4.35,13.84-3.32l.57.07a73.91,73.91,0,0,0,9.22.5c2,0,3.94-.08,5.66-.18,1.37-.09,2.6-.19,3.65-.31.68-.08,1.28-.16,1.78-.24a4.87,4.87,0,0,1,4.69,2.12A7.53,7.53,0,0,1,292.38,161.77Z"/><path class="ga" d="M270.06,161.74H254.75c1.72-1.42,4.15-2.64,6.9-1.75A52.54,52.54,0,0,0,270.06,161.74Z"/><path class="gb" d="M263.7,161.73h-4.61C260,160.08,260.62,160.1,263.7,161.73Z"/><path class="gc" d="M279.87,161.75h-6.49c.21-.24-.74-.8-3.61-1.78a12.18,12.18,0,0,1-3.26-1.5,70.5,70.5,0,0,0,7.5.49h1.72c.23.15.44.32.66.49A16.85,16.85,0,0,0,279.87,161.75Z"/><path class="gb" d="M274.74,161.75a2.31,2.31,0,0,0-.22-1.63c-.22-.47-.39-.86-.51-1.16h.89a36.57,36.57,0,0,0,3,2.79Z"/><path class="gd" d="M292.38,161.77h-7.67a12.36,12.36,0,0,0-2.46-2.3c-.31-.23-.6-.46-.86-.67,1.37-.09,2.6-.19,3.65-.31.39.31.77.64,1.13,1,1.55,1.52,3.52,1.49,5.34.9.15.2.29.39.4.56A7.37,7.37,0,0,1,292.38,161.77Z"/><path class="gb" d="M292.38,161.77h-2.11a6.83,6.83,0,0,0,1.64-.85A7.37,7.37,0,0,1,292.38,161.77Z"/><path class="gb" d="M287.54,161.56a2.16,2.16,0,0,0,.36.2h-2.42C284.55,159.42,285.26,160.11,287.54,161.56Z"/><path class="ge" d="M138.26,172.5,136.35,174l-2.54,2L130,178.82,118,151.32l2.26-55.21.48-11.86s6.66,6.52,6.66,21.66S130,147.83,130,147.83Z"/><path class="gf" d="M133.81,175.93l-1,.77L130,178.82,118,151.32l1.47-36,.79-19.21A8.82,8.82,0,0,1,121.41,94c2.33-2.89,4.24.09,1.65,8.63a77.35,77.35,0,0,0-2.43,11.76c-.95,7.31-.77,14,2.43,12.33a3.34,3.34,0,0,1,2.56-.55c1.74.65.39,4.94-2,8.32S129.44,163,133.81,175.93Z"/><path class="gg" d="M132.81,176.7,130,178.82,118,151.32l1.47-36,1.2-.89c-.95,7.31-.77,14,2.43,12.33a3.34,3.34,0,0,1,2.56-.55,19.4,19.4,0,0,0-5.36,9.71C118.57,142.69,128.11,165.9,132.81,176.7Z"/><path class="el" d="M138.26,172.5,136.35,174c-2.6-8-9.45-29.42-9.81-33.57-.44-5.15,1.11-24.23-.73-21.43s-1.55-2.22-.19-13.15-4.92-21.57-4.92-21.57,6.66,6.52,6.66,21.66S130,147.83,130,147.83Z"/><path class="gh" d="M152.19,322H115l.12-2.47.09-1.72.78-15.32.22-4.26h12.61S132,311.81,144,311.81c6.1,0,7.68,5,8.07,8A13.35,13.35,0,0,1,152.19,322Z"/><polygon class="gi" points="117.68 298.23 116.85 322 115.01 322 115.13 319.53 116 302.49 116.22 298.23 117.68 298.23"/><path class="fa" d="M152.19,322H115l.12-2.47h22.68s3.78-3.69-4.21-4.22-12.29-12.82-12.29-12.82H116l.15-2.86.07-1.4h12.61S132,311.81,144,311.81C152.74,311.81,152.19,322,152.19,322Z"/><path class="fb" d="M152.19,322H148.3a15.75,15.75,0,0,0-.5-5.46c-1.21-3.7-9.24-2.82-14.2-5.3s-7-11.61-7-11.61H116.15l.07-1.4h12.61S132,311.81,144,311.81C152.74,311.81,152.19,322,152.19,322Z"/><path class="gj" d="M152.19,322H115l.12-2.47.09-1.72,23,1.23,13.86.74a2.43,2.43,0,0,0,0,.3q0,.45.06.81C152.21,321.57,152.19,322,152.19,322Z"/><path class="gk" d="M152.19,322H115l.12-2.47h22.68a4,4,0,0,0,.4-.49l10.1.54,3.76.2c0,.22.05.43.07.64s0,.2,0,.3C152.21,321.5,152.19,322,152.19,322Z"/><path class="gl" d="M152.19,322H148.3a19.5,19.5,0,0,0,0-2.42l3.76.2c0,.22.05.43.07.64s0,.2,0,.3C152.21,321.5,152.19,322,152.19,322Z"/><path class="gm" d="M105.56,322H68.38l.12-2.47.09-1.72.78-15.32.22-4.26H82.2s3.21,13.58,15.17,13.58c6.1,0,7.68,5,8.07,8A13.35,13.35,0,0,1,105.56,322Z"/><polygon class="gn" points="71.05 298.23 70.22 322 68.38 322 68.5 319.53 69.37 302.49 69.59 298.23 71.05 298.23"/><path class="fa" d="M105.56,322H68.38l.12-2.47H91.18S95,315.84,87,315.31s-12.3-12.82-12.3-12.82h-5.3l.15-2.86.07-1.4H82.2s3.21,13.58,15.17,13.58C106.11,311.81,105.56,322,105.56,322Z"/><path class="fb" d="M105.56,322h-3.89a15.75,15.75,0,0,0-.5-5.46c-1.21-3.7-9.24-2.82-14.2-5.3s-7-11.61-7-11.61H69.52l.07-1.4H82.2s3.21,13.58,15.17,13.58C106.11,311.81,105.56,322,105.56,322Z"/><path class="go" d="M105.56,322H68.38l.12-2.47.09-1.72,23,1.23,13.86.74a2.43,2.43,0,0,0,0,.3q0,.45.06.81C105.58,321.57,105.56,322,105.56,322Z"/><path class="gp" d="M105.56,322H68.38l.12-2.47H91.18a4,4,0,0,0,.4-.49l10.1.54,3.76.2c0,.22,0,.43.07.64s0,.2,0,.3C105.58,321.5,105.56,322,105.56,322Z"/><path class="gq" d="M105.56,322h-3.89a21.65,21.65,0,0,0,0-2.42l3.76.2c0,.22,0,.43.07.64s0,.2,0,.3C105.58,321.5,105.56,322,105.56,322Z"/><path class="gr" d="M130.05,298.23H114.4L101.29,185,85,298.23H66.55l7.35-96.31,2.92-38.28.13-1.76L77,161l.44-5.75,2.36-31.06-.3-42.12V82l2.2-1.28.93-.54,1.65-1a26.75,26.75,0,0,1,5.21,10.72c2.12,9,2.73,13.56,2.73,13.56l17.28,6.34,7.17-6.69,1.07-20.82,1.48,1,1.46,1s2.42,27.3,1.36,48.78l1,20.56.44,9.1.07,1.37.48,10.13.13,2.64,1.09,22.63L130,297.94Z"/><path class="ef" d="M118.36,112.25a22.14,22.14,0,0,1-5.6,9.61C108.15,126.74,119.6,129.92,118.36,112.25Z"/><path class="du" d="M92.24,174.36c-2.75-.46-.72,3.35,1.33,7.51a28.75,28.75,0,0,1,2.61,6.58,4.07,4.07,0,0,1,0,1.78c-.49,1.71-3.56,21.11-7,43.3-1,1.22-2.8,1.93-6.12.84-8.08-2.64-6.7,4.14-1.49,9.44,2.09,2.12,4.08,3.22,5.64,2.55-3.31,21.57-6.57,43.12-7.86,51.87H85l16-110.86.34-2.37S97.08,175.19,92.24,174.36Z"/><path class="gs" d="M101,187.37,85,298.23h-3.4c3.5-20.09,17.9-104.44,14.61-109.78a28.75,28.75,0,0,0-2.61-6.58c.33-.58,1.51-.12,3.66,1.73A22.22,22.22,0,0,1,101,187.37Z"/><path class="du" d="M119.24,243c2.25-4.75,4.34-12.15,0-8.64a5,5,0,0,1-6.46.06c-2.61-23.18-4.65-44.72-4-50.63a4.07,4.07,0,0,1,.32-1.36l.79-1.45c3.29-6.18,7.65-15.93-.79-6.63-.88,1-1.68,1.87-2.37,2.67-3.64,4.19-4.93,6.18-5.35,7.13-.34.75-.13.84-.13.84L114.4,298.23h6.25c-1-7.59-3-23.08-5.11-40.35C115.54,257.87,117,247.77,119.24,243Z"/><path class="gt" d="M117.34,298.23H114.4L101.29,185a4.3,4.3,0,0,1,.13-.84c.42-.95,1.71-2.94,5.35-7.13a55.46,55.46,0,0,1-2.19,6.57c-1.49,3.51,2.14-.1,5.35-2.61l-.79,1.45a4.07,4.07,0,0,0-.32,1.36c-1.88,2.37-4,5.19-4.24,6.72C104.11,193.45,114.64,276.91,117.34,298.23Z"/><polygon class="gu" points="81.03 155.29 69.71 298.23 66.56 298.23 77.46 155.29 81.03 155.29"/><path class="ef" d="M124.18,176.83l-.13-2.64-.38-7.82-.1-2.31L114.74,144s-4.12-.61-7.93-1.15c3.66,0,6.07-1.09,6.51-2.41s-.83-2.61-4.25-3.54c-8.33-2.27-22.51-17.73-21.63-35.16.58-11.52-3.14-18-5.72-21L79.52,82v.15l0,5,.26,37.08-2.36,31.06-.13,1.59-.38,5-.13,1.76L73.9,201.92c1.25-1.29,4.49-4.23,4.37-11.69S78.75,184.7,81,177c.8-2.66,1.83-4.86,1.62-8.07-.35-5.15,4.82-7.92,9.12-9.2,2-.61,4-1.3,5.8-2,7.11-2.74,14.93.19,19.3,7.26Z"/><path class="gv" d="M123.67,166.37,111.09,149s-22.65,6.24-33.76,7.91l.13-1.59,2.36-31.06-.26-37.08c2.5,5.7,6,15.25,6.09,25.1.23,15.59,2.61,23.35,7.78,26.86,3.88,2.65,14.74,1.84,19.89,1.28-.44,1.32-2.85,2.4-6.51,2.41,3.81.54,7.93,1.15,7.93,1.15l8.83,20.11Z"/><path class="gw" d="M130,297.94c-1.09.19-1.8.29-1.8.29l-5.17-102.87,2.21,4.1Z"/><path class="gx" d="M92.24,103.45S88.37,102,87.7,92.16a18.78,18.78,0,0,0-5-12l1.65-1a26.75,26.75,0,0,1,5.21,10.72C91.63,98.87,92.24,103.45,92.24,103.45Z"/><path class="gy" d="M120.26,126.17c.79-12.76-.46-34.31-1-42.9l1.46,1s2.42,27.3,1.36,48.78l1,20.56C121.54,146.94,119.64,136.25,120.26,126.17Z"/><path class="gz" d="M100.25,134.53V148s-20.31,3.77-29.44,3.05l-.88-.08c-1.48-.18-2.49-1.85-3.13-4.54-3.1-12.94,2.35-49.5,4.61-56.72,1.08-3.44,2.57-5.4,4-6.51a5.84,5.84,0,0,1,4.13-1.41,1.62,1.62,0,0,1,.37-.07c1-.11,3.71.36,4.63,8C85.65,99.13,82,134.53,82,134.53Z"/><path class="ha" d="M100.25,134.53V148s-20.31,3.77-29.44,3.05l-.88-.08c-1-.12-1.77-.92-2.38-2.24a12.94,12.94,0,0,1-.75-2.3c9.25.45,29.63-3.18,29.63-3.18l1.37-8.72Z"/><path class="hb" d="M100.25,134.53V148s-20.31,3.77-29.44,3.05l-.88-.08c-1-.12-1.77-.92-2.38-2.24,9.46-.3,30.72-3.19,30.72-3.19l1.26-11Z"/><path class="hc" d="M84.07,110.33c-.51,7.64-1.2,15.36-1.64,20-.25,2.63-.42,4.24-.42,4.24h.14l-.14.18s-12.63,10.41-10.67,5.51c.06-.16.13-.3.19-.44h0c2.63-5.81,7.92-2.95,5-6.13s-3-9.07,1.36-4.54,3.49-16.15,3.08-22S77.4,88,79.57,89.89s3,7.39,3.07,1.41a18.5,18.5,0,0,0-2.75-9.58c1-.11,3.71.36,4.63,8C85,93.6,84.64,101.91,84.07,110.33Z"/><path class="hd" d="M82,134.53h.14l-.14.18s-12.63,10.41-10.67,5.51c.06-.16.13-.3.19-.44h0c3.71-2.21,9.92-6,8.36-6.13-2.19-.14-3.55-2.2,0-2.11a3.14,3.14,0,0,0,2.54-1.25C82.18,132.92,82,134.53,82,134.53Z"/><path class="he" d="M84.07,110.33a8.27,8.27,0,0,1-.55-2.66c-.34-5.62-3.24-13.91-.88-10.56s1.27-1.23.88-7.36-3.63-8-3.63-8c1-.11,3.71.36,4.63,8C85,93.6,84.64,101.91,84.07,110.33Z"/><path class="el" d="M73.8,102.67c1,6.68,1.27,10.32-2,6.31s-3.41,23.89-3,31.42a65.25,65.25,0,0,0,2,10.83l-.88-.08c-8.63-1.06-1.24-52.55,1.48-61.26,1.08-3.45,2.57-5.41,4-6.52C74.57,88.06,73.09,97.73,73.8,102.67Z"/><path class="hf" d="M117.76,82.28l-1.07,20.82-7.18,6.69-2.2-.81-1.8-.66-13.27-4.87s-.61-4.58-2.73-13.56a27.52,27.52,0,0,0-3.07-7.65,26.39,26.39,0,0,0-2.14-3.07l1.51-.88,6.09-3.58.34-.19,1.52.38,20,5,.66.17,2.09,1.4Z"/><path class="hg" d="M113.74,79.86,112.22,91.3s-1.66-2.29-3.69-1.55a9.34,9.34,0,0,1-4.79,0L98.87,94l-7-19.33.34-.19,1.52.38Z"/><path class="hh" d="M117.76,82.28,117,97.56l-.29,5.54-7.18,6.69-2.2-.81-1.8-.66-13.27-4.87s-.61-4.58-2.73-13.56a27.52,27.52,0,0,0-3.07-7.65,26.39,26.39,0,0,0-2.14-3.07l.92-.54.59-.34a28.53,28.53,0,0,1,6.43,13c1.51,9,12.18,12.71,17.07,11.37s7.08-10.67,7.12-19.3c0-.7,0-1.34.06-1.94Z"/><path class="hi" d="M117,97.56l-.29,5.54-7.18,6.69-2.2-.81-1.8-.66-13.27-4.87s-.61-4.58-2.73-13.56a27.52,27.52,0,0,0-3.07-7.65,26.39,26.39,0,0,0-2.14-3.07l.92-.54a19,19,0,0,1,5.2,11.12c1,9.14,3.15,12.11,6.5,13.7S108,107,111.09,105C112.91,103.9,115.3,100.33,117,97.56Z"/><path class="el" d="M93.76,74.9a16.24,16.24,0,0,1-7.32,7.34,26.39,26.39,0,0,0-2.14-3.07l7.94-4.65Z"/><path class="hj" d="M107.31,109l-1.8-.66a19.81,19.81,0,0,0-.46-5.48l0-.17c-.8-2.76-.7-8.4-.45-12.92.2-3.51.49-6.34.52-6.6l1.8.25c-.1,1-.23,2.42-.34,4.06-.36,5-.61,12,.23,14.64a9.56,9.56,0,0,1,.35,1.67A33.84,33.84,0,0,1,107.31,109Z"/><path class="ef" d="M106.87,83.4c-.1,1-.23,2.42-.34,4.06l-2,2.29c.2-3.51.49-6.34.52-6.6Z"/><path class="ef" d="M107.31,109l-1.8-.66a19.81,19.81,0,0,0-.46-5.48l0-.17,2.11,1.1A33.84,33.84,0,0,1,107.31,109Z"/><polygon class="hk" points="112.22 72.23 112.04 73.92 111.56 78.36 111.54 78.44 110.56 79.58 106.54 84.25 98.78 77.07 95.26 73.82 100.41 62.77 112.22 72.23"/><path class="ex" d="M112.22,72.23l-.34,3.12-.32,3c-1.41.89-3.6,1.28-6.54-1.24a14.38,14.38,0,0,1-4-7l-2.26,6.95-2-1.83-1.54-1.42,5.15-11Z"/><path class="hl" d="M112.22,72.23l-.34,3.12c-1.19,1.05-2.67,1.81-4.13,1.06-3.25-1.67-7.23-8.68-7.23-8.68L96.8,75.24l-1.54-1.42,5.15-11Z"/><path class="hm" d="M112,73.92l-.48,4.44,0,.08-1,1.13.45-6.06Z"/><path class="hn" d="M104.33,47.62v8.55S100.65,68.33,98,67.33a5.09,5.09,0,0,1-1.63-1,7.25,7.25,0,0,1-1.74-2.41,19.12,19.12,0,0,1-1.1-9.39,23.94,23.94,0,0,1,1.15-4.63c.69-2,1.41-3.55,1.41-3.55l.79.11Z"/><path class="ho" d="M96.41,66.34a7.25,7.25,0,0,1-1.74-2.41,19.12,19.12,0,0,1-1.1-9.39,23.94,23.94,0,0,1,1.15-4.63c.69-2,1.41-3.55,1.41-3.55l.79.11a30,30,0,0,0-2.71,10.4C94.09,60.31,95.69,64,96.41,66.34Z"/><path class="fa" d="M104.33,47.62v8.55S100.65,68.33,98,67.33a4.59,4.59,0,0,1-1-.54,6.83,6.83,0,0,1-2.34-2.86c.8-.31.89-.94.53-3.39-.5-3.37,1.79-.48.71-4.25s.93-5.73.93-5.73l-2.12-.65.53-1.45c.49-1.25.88-2.1.88-2.1Z"/><path class="fb" d="M104.33,47.62v8.55S100.65,68.33,98,67.33a4.59,4.59,0,0,1-1-.54,3,3,0,0,0,.15-2.58c-.87-3.12.74-1.52,1.9-2.48S98,56.92,97.89,54a3.83,3.83,0,0,1,2.23-3.87l-4.87-1.63c.49-1.25.88-2.1.88-2.1Z"/><path class="hp" d="M120.26,53.71s-.05,1.68-.35,4.14c-.45,3.76-1.5,9.36-3.9,13.65-1.58,2.83-3.83,3.45-6.08,2.91h0c-3.36-.83-6.73-4.24-7.92-6.7l-2-4.12a4.12,4.12,0,0,1-.66-.18,6.43,6.43,0,0,1-4-3.93c-.74-2.09,1.42-5.24,3.33-4.92.66.09,1.28.6,1.75,1.69.39.9.75,1.12,1.07.91,1.21-.81,1.92-7.73,1.92-7.73a76.65,76.65,0,0,1,15.9,3.9Z"/><path class="ex" d="M99.87,62a5.06,5.06,0,0,1-1.06-.39,4,4,0,0,1-2.36-3.07,2.2,2.2,0,0,1,.47-1.69,1.53,1.53,0,0,1,.74-.5,1.62,1.62,0,0,1,1.61.46C100.73,58.16,99.87,62,99.87,62Z"/><path class="hq" d="M99.87,62a5.06,5.06,0,0,1-1.06-.39c.06-.28-.14-.72-.54-1.55-.79-1.68.55-.18.6-1.78,0-1-1.11-1.33-2-1.43a1.53,1.53,0,0,1,.74-.5,1.62,1.62,0,0,1,1.61.46C100.73,58.16,99.87,62,99.87,62Z"/><path class="ex" d="M120.26,53.71s0,.65-.11,1.73c0,.66-.12,1.48-.24,2.41a22.43,22.43,0,0,0-7.76-3.31c-6.82-1.61-7.61,1.38-8.66,3.59-.64,1.38-1.38.53-2-1,.71-.48,1.25-3.09,1.58-5.15.22-1.42.34-2.58.34-2.58A74.39,74.39,0,0,1,120.26,53.71Z"/><path class="hr" d="M120.26,53.71s0,.65-.11,1.73c-2.33-1.21-7.32-3.52-11.62-3.46-2.43,0-4.2,0-5.45,0,.22-1.42.34-2.58.34-2.58A74.39,74.39,0,0,1,120.26,53.71Z"/><path class="hs" d="M120.26,53.71s-.05,1.68-.35,4.14c-.45,3.76-1.5,9.36-3.9,13.65-1.58,2.83-3.83,3.45-6.08,2.91,1.34-.21,3,.08,5.16-2.75C117.76,68.1,119,57,119.32,53.33Z"/><ellipse class="fb" cx="109.07" cy="56.81" rx="2.17" ry="0.89" transform="translate(35.54 155.39) rotate(-80.8)"/><ellipse class="fb" cx="116.43" cy="58.13" rx="2.17" ry="0.89" transform="translate(40.43 163.76) rotate(-80.8)"/><path class="ex" d="M114.16,65.14h0l-2.43.5.43-1.93,1.54-6.91,1.22,5.95h0l.17.81A1.4,1.4,0,0,1,114.16,65.14Z"/><path class="ht" d="M114.12,65.15l-2.43.5.43-1.93a1.28,1.28,0,0,1,1-.13,1.47,1.47,0,0,0,1.78-.82l.17.81A1.41,1.41,0,0,1,114.12,65.15Z"/><path class="hu" d="M114.16,65.14c0-3.1-.5-8.33-.5-8.33l1.22,5.95h0l.17.81A1.4,1.4,0,0,1,114.16,65.14Z"/><path class="fk" d="M115.23,53.79s2.69-1.32,3.76.75"/><path class="fk" d="M111.7,53.05s-2.26-2.71-4.82-.82"/><path class="fl" d="M107.47,67.33s1.82,4.86,5.63,1.9"/><path class="hv" d="M99.36,63.41a6.43,6.43,0,0,1-4-3.93c-.74-2.09,1.42-5.24,3.33-4.92a5.49,5.49,0,0,0-3,3.06c-.52,1.79,1.57,4.92,2.86,5.15A1.08,1.08,0,0,1,99.36,63.41Z"/><path class="hw" d="M121.53,52.23,121,52.1,96.1,46.35l-.9-.21a20.88,20.88,0,0,1,5.67-7.9,9.66,9.66,0,0,1,3.35-1.74c4.63-1.46,11.21-.73,14.62,3.88a15.52,15.52,0,0,1,1.7,2.87A14.14,14.14,0,0,1,121.53,52.23Z"/><path class="hx" d="M121.53,52.23,121,52.1c0-4.93-2.85-11.24-5.25-12.75-2.6-1.65-9.76-3.28-14.23-.25-2.47,1.67-4.28,4.79-5.4,7.25l-.9-.21a20.88,20.88,0,0,1,5.67-7.9,9.66,9.66,0,0,1,3.35-1.74c4.63-1.46,11.21-.73,14.62,3.88a15.52,15.52,0,0,1,1.7,2.87A14.14,14.14,0,0,1,121.53,52.23Z"/><path class="ef" d="M119.27,50.86l-21.75-5a17.54,17.54,0,0,1,3.39-5.3,13.78,13.78,0,0,1,1.29-1.23A8.23,8.23,0,0,1,105,37.87a9.27,9.27,0,0,0,1.26,4.59c1.52,2.37,9.12,2.7,12.22,1a12.61,12.61,0,0,1,.81,2.46A11,11,0,0,1,119.27,50.86Z"/><path class="hy" d="M119.27,50.86l-21.75-5a17.54,17.54,0,0,1,3.39-5.3,22.4,22.4,0,0,0,6.56,4.71c4.3,2,9.62,1.16,11.79.66A11,11,0,0,1,119.27,50.86Z"/><path class="hz" d="M129.26,56.17c-1.71,0-5.78-1.15-9-2.46-4.5-1.83-12.47-3.45-15.57-4l-1.27-.24-9.21-2.3c.15-1.16-.14-3,6.94-1.81s20.1,4.28,26.57,8.39C130.51,55.49,130.56,56.16,129.26,56.17Z"/><path class="ef" d="M129.37,56.16h-.11c-3.17-1.58-11.79-5.67-19.75-7.57-4-1-5-.19-4.82,1.07l-1.27-.24-4.07-1-5.14-1.28c.15-1.16-.14-3,6.94-1.81s20.1,4.28,26.57,8.39C130.43,55.44,130.56,56.12,129.37,56.16Z"/><path class="ia" d="M129.37,56.16a30.24,30.24,0,0,0-12.94-6.73c-8.88-2.18-13.54-4-16.56-1.44l-.52.42-5.14-1.28c.15-1.16-.14-3,6.94-1.81s20.1,4.28,26.57,8.39C130.43,55.44,130.56,56.12,129.37,56.16Z"/><polygon class="ib" points="106.54 84.25 100.25 89.89 98.83 87.17 92.92 75.84 92.24 74.52 94.47 74 95.26 73.82 96.01 74.52 106.54 84.25"/><polygon class="ef" points="106.54 84.25 100.25 89.89 99.9 89.21 98.83 87.17 101.5 84.16 94.47 74 95.23 73.83 95.26 73.82 106.54 84.25"/><polygon class="ic" points="106.54 84.25 100.25 89.89 99.9 89.21 103.74 84.16 95.23 73.83 95.26 73.82 106.54 84.25"/><path class="id" d="M96,74.52a4,4,0,0,1-1.79,1c-.35.07-.8.18-1.3.3l-.68-1.32L94.47,74l.79-.18Z"/><polygon class="ie" points="114.4 80.03 114.18 82.17 113.66 87.3 113.39 89.89 106.54 84.25 111.28 78.74 111.54 78.44 112.77 79.12 114.4 80.03"/><polygon class="ef" points="113.66 87.3 113.39 89.89 108.21 85.63 106.54 84.25 111.54 78.44 112.77 79.12 110.28 84.16 113.66 87.3"/><polygon class="if" points="111.54 78.44 108.21 85.63 106.54 84.25 111.54 78.44"/><polygon class="ig" points="114.4 80.03 114.18 82.17 111.28 78.74 111.54 78.44 112.77 79.12 114.4 80.03"/><path class="ih" d="M110.63,132.92c-.3,1.19-2.67,2.2-4.75,2.88-1.75.56-3.31.89-3.31.89l1.26-3.56a3.28,3.28,0,0,1,1.85-2,9.09,9.09,0,0,0,3.14-2c1.35-1.38,2-1.15,2.18-.3A10.29,10.29,0,0,1,110.63,132.92Z"/><path class="ex" d="M110.63,132.92c-.3,1.19-2.67,2.2-4.75,2.88l-1.3,0s1.1-4.65,2.46-4.23c1,.3,2.95-1.61,4-2.68A10.29,10.29,0,0,1,110.63,132.92Z"/><path class="ii" d="M139.4,193.44a10.62,10.62,0,0,1-4.58,4.05c-.26.18-.69-.7-1-2.13a20.48,20.48,0,0,1-.53-4.83v-.42c0-1.46,0-3.64,0-5.84,0-1.26,0-2.51,0-3.64v-1.14c0-1.84,0-3.13,0-3.13l2.59-2h0l2.42-1.86s.1.84.29,2.12c.06.38.12.81.2,1.26a63.07,63.07,0,0,0,1.78,8.23C141.9,188.33,141,190.65,139.4,193.44Z"/><polygon class="ex" points="138.55 192.38 138.55 187.8 135 179.53 135.3 182.32 138.55 192.38"/><path class="ij" d="M135.89,192.19a5.79,5.79,0,0,0-2.11,3.17,20.48,20.48,0,0,1-.53-4.83c0-1.45,0-3.85,0-6.26l1.44-.67,2.51,5A3.09,3.09,0,0,1,135.89,192.19Z"/><path class="ik" d="M190.42,298.23h-4.1L105.63,128.55c-.61-1.26-.25-2.3.78-2.38h.14a4.15,4.15,0,0,1,3.19,2.38l5.82,12.24,3.55,7.47L134,179.64l5.51,11.59Z"/><path class="il" d="M188.31,298.23h-2l-50.1-105.35L132.48,185l-26.85-56.46c-.61-1.26-.25-2.3.78-2.38l6.91,14.22,2.24.4,3.55,7.47-1.43.56,15.58,31.81.77-1,.2.42,3.29,6.92,2,4.25-1,1.15Z"/><polygon class="y" points="137.52 186.98 136.22 192.88 132.48 185.01 134.23 180.06 137.52 186.98"/><path class="im" d="M195.18,302.49H187l-5-9c-1.24-2.62-.43-4.74,1.83-4.74a5.35,5.35,0,0,1,2.45.7,7.1,7.1,0,0,1,1.09.69,9.24,9.24,0,0,1,2.79,3.35l2.7,4.88Z"/><path class="y" d="M195.18,302.49H187l-5-9c-1.24-2.62-.43-4.74,1.83-4.74a5.35,5.35,0,0,1,2.45.7c-.64,1.2-.85,2.95.25,5.44a5.52,5.52,0,0,0,6.33,3.48Z"/><path class="in" d="M118,144.84c-.87.94-3.28,1.3-5.69,1.89-3.3.79-12.09.66-12.09.66v-11l1.28-.69c2.63-1.42,8.55-4.55,10.12-4.85a1.84,1.84,0,0,1,1.44.23,1.76,1.76,0,0,1,.74,1.54h0a1.68,1.68,0,0,1-.36,1l-.8,1,0,0c.16-.1,2.06-1.17,3-.33a1.34,1.34,0,0,1,.46,1.27,5.25,5.25,0,0,1-1.77,2.54l0,0,.2-.09.14-.06a3.17,3.17,0,0,1,2.19.18.84.84,0,0,1,.51,1,6.46,6.46,0,0,1-1.42,2.54,2.46,2.46,0,0,1,2.31,1.91A1.2,1.2,0,0,1,118,144.84Z"/><path class="io" d="M113.09,131.11c-3.45,1.43-9.68,4.52-12.84,6.07v-.76l1.28-.69c2.63-1.42,8.55-4.55,10.12-4.85A1.84,1.84,0,0,1,113.09,131.11Z"/><path class="ex" d="M113.83,132.66a1.68,1.68,0,0,1-.36,1l-.8,1,0,0h-1.94Z"/><path class="ex" d="M116.08,135.58a4.37,4.37,0,0,1-1.34,2.14c-.21.21-.37.35-.43.4h-1.56l1-.75Z"/><path class="ip" d="M114.74,137.72c-.21.21-.37.35-.43.4h-1.56l1-.75Z"/><path class="ex" d="M117.39,139.12a6.18,6.18,0,0,1-1.29,2.4l-.13.14-2-.09.94-.68Z"/><path class="iq" d="M116.1,141.52l-.13.14-2-.09.94-.68Z"/><path class="ex" d="M118,144.84c-.87.94-3.28,1.3-5.69,1.89s-7.2.65-10,.67h-2.08v-11l1-.55.28-.14,2.21,9.63s7.8,1.5,11.66,0A6.42,6.42,0,0,1,118,144.84Z"/><path class="ir" d="M102.33,147.4h-2.08v-11l1-.55Z"/><path class="is" d="M136.26,178a2.62,2.62,0,0,1-.42.79s-1.9,5-1,9c.53,2.43-.45,3.22-1.43,2.43a.75.75,0,0,1-.14-.12,5.41,5.41,0,0,1-1.35-3.19l-.62-4.42-.07-.09s.09-.52.23-1.25l.2-1c.32-1.45.75-3.11,1.14-3.41l.47-.36,2.59-2h0a6.53,6.53,0,0,1,.59,2.2A3.66,3.66,0,0,1,136.26,178Z"/><path class="it" d="M133.39,190.23a.75.75,0,0,1-.14-.12,5.41,5.41,0,0,1-1.35-3.19l-.62-4.42-.07-.09s.09-.52.23-1.25l.2-1a34.31,34.31,0,0,0,.94,5.82A13.92,13.92,0,0,1,133.39,190.23Z"/><path class="ex" d="M138.55,174.62l-2.12,1.95-3.17,2.92-1.82,1.67c.3-1.56.85-4.06,1.34-4.44l.47-.36,2.59-2,2.42-1.86S138.36,173.34,138.55,174.62Z"/><path class="db" d="M212.6,322H153.78s2-5.28,6.59-5.54a16,16,0,0,0,3.33-.62,24.69,24.69,0,0,0,11.2-7c2.71-3.15,8.14-5.11,10.71-5.89.87-.27,1.41-.41,1.41-.41h8.16s7,6.3,13.33,9.76A8,8,0,0,1,212.6,322Z"/><path class="iu" d="M206.09,315.66c-2.42,3.41-11.21,1.41-7,0s5.61-4.05,3-5.54-5-2-7-5.38a6.21,6.21,0,0,0-1.35-1.58c2,4.7,2.27,7.22,5.75,7.92s-1.06,2.82-1.06,2.82a17.75,17.75,0,0,1-5.15,3.91c-3,1.44-8.93-2-3-2.85s4-.88,2.65-4.84.25-4.16,2.11,1.12.92-.86-1.35-4.39a10.44,10.44,0,0,1-1.57-4.36H187s-.54.14-1.41.41c-5.14,3.07-1.44,6.84-4.81,7.22-3.93.43-4.54.79-7.26,4.59s-6.06,4.65-12.72,5.81a10.27,10.27,0,0,0-4,1.48h51.5l.09-.26h0C210.07,317.05,208.46,312.31,206.09,315.66Zm-16.81-4.4c2-.53,1.7-4.05-.51-4.93s0-2.07,1.65,0c0,0,2.61,1.33,1.78,4.91s-2.31,1-5.34,4.13S187.31,311.79,189.28,311.26Z"/><path class="iv" d="M196,318.29a2.86,2.86,0,0,1,.45-.48C197.07,317.23,196.79,317.63,196,318.29Z"/><path class="gb" d="M206.85,319c-1.37,1.73-2.61,2.54-2.12,0s-3.94-.7-6.67.86c-2.41,1.4-3.1-.27-2.12-1.6a11.29,11.29,0,0,1-5.52,2.5c-3.86.32-1.09-5.6-4.75-3s-2.75,0-1.23-2.33,3.83-9,1.23-5.36c-.31.43-.52.74-.68,1a6.34,6.34,0,0,0,.68-4.42c-1-3.16-.31,2.22-2.29,4s-2.73-1.86-5.3,1.55-3.48,4-1.21,4-.15,2.69-3.48,2.83c-1.68.07-3.85,1.53-5.59,3h40.54l.09-.26h0C208.38,319.52,207.87,317.74,206.85,319ZM177.78,315c-.69.35.68-2.43,2.34-2.72s2.74.86,3.26.43a3.67,3.67,0,0,1-2.58,1.18A6.1,6.1,0,0,0,177.78,315Z"/></g></svg>