<svg id="Capa_1" data-name="Capa 1" xmlns="http://www.w3.org/2000/svg" viewBox="0 0 172.29 49.47"><defs><style>.cls-1{font-size:21.51px;font-family:Cabin-Bold, Cabin;font-weight:700;}.cls-1,.cls-5,.cls-8{fill:#fff;}.cls-2{letter-spacing:-0.01em;}.cls-3{letter-spacing:-0.01em;}.cls-4{letter-spacing:0em;}.cls-5{font-size:13.32px;font-family:Cabin-Regular, Cabin;}.cls-6{letter-spacing:-0.01em;}.cls-7{letter-spacing:-0.01em;}.cls-9{fill:#da121a;}</style></defs><title>Logo Aeronautical Fondo Oscuro</title><text class="cls-1" transform="translate(55.75 20.04)"><tspan class="cls-2">A</tspan><tspan x="13.19" y="0">e</tspan><tspan class="cls-3" x="24.27" y="0">r</tspan><tspan x="31.17" y="0">on</tspan><tspan class="cls-4" x="55.31" y="0">a</tspan><tspan x="65.94" y="0">utical</tspan></text><text class="cls-5" transform="translate(55.75 33.87)">Solutions <tspan class="cls-6" x="55.82" y="0">G</tspan><tspan class="cls-7" x="64.69" y="0">r</tspan><tspan x="68.73" y="0">oup</tspan></text><path class="cls-8" d="M47.16,40.66c1.25-7.52,1.88-15.61.09-23.1C46.18,13.06,43.76,7.9,38.71,7s-9.29,3-12,6.77c-3.74,5.06-6.44,11-8.81,16.74a130.64,130.64,0,0,0-7.1,22.83c-.44,2.1,5.39,1.18,5.79-.75A129.2,129.2,0,0,1,22,34a98,98,0,0,1,7.77-16.72,34.84,34.84,0,0,1,4.07-5.63c.11-.12.59-.58.86-.82l.51-.44c.2-.15.57-.37.13-.1l.51-.31c.46-.3-.23.11-.09,0,.47-.25.27-.11-.13,0,.66-.21-.45.06-.09,0-.27,0-.64,0-.2,0-.41,0-.42-.08,0,0l.21.05c.24.09.48.19.71.3A6.25,6.25,0,0,1,38.15,12a14.67,14.67,0,0,1,3,6c2.15,7.56,1.49,15.83.23,23.47-.36,2.16,5.47,1.17,5.78-.76Z" transform="translate(-6.21 -5.05)"/><path class="cls-9" d="M51.91,13.25a40.31,40.31,0,0,1-7,6.05,53.89,53.89,0,0,1-20,8.87A52.37,52.37,0,0,1,8.56,29c-.74-.08-2,0-2.29.84s.67,1.35,1.32,1.42a58.07,58.07,0,0,0,45-14.3,29.1,29.1,0,0,0,2.57-2.52c1.28-1.46-2.29-2.24-3.25-1.14Z" transform="translate(-6.21 -5.05)"/><path class="cls-9" d="M57.32,10.28,59,8.76l-3-1.31L56.37,7c.07-.07.14,0,.21,0,1.22.12,2.45.23,3.67.36a.42.42,0,0,0,.35-.13c.57-.54,1.16-1.08,1.76-1.58a2,2,0,0,1,1.29-.57l.21,0q.28.06.21.36a1.57,1.57,0,0,1-.29.54,10.14,10.14,0,0,1-1.14,1.13q-2.13,2-4.28,4l-.18.15a7,7,0,0,0-1,.18.32.32,0,0,1-.4-.39c0-.1,0-.2,0-.29a.34.34,0,0,1,.3-.15c.26,0,.26,0,.21-.27A.34.34,0,0,0,57.32,10.28Z" transform="translate(-6.21 -5.05)"/><path class="cls-9" d="M57.32,10.28a.34.34,0,0,1,.11.32c0,.16-.19.12-.28.12-.25,0-.35.07-.3.31s0,.19,0,.31.12.12.22.1c.31-.06.61-.15.92-.19.07,0,.11,0,.14.05s-.25.26-.38.38a.63.63,0,0,1-.88,0l-1.41-1.07s-.17-.07-.13-.16a.29.29,0,0,1,.26-.18l.12,0,1,.29c0,.06,0,.05,0,.05s.15,0,.21-.07Z" transform="translate(-6.21 -5.05)"/></svg>