<svg xmlns="http://www.w3.org/2000/svg" viewBox="0 0 293.34 87.96"><defs><style>.a,.b,.c{isolation:isolate;}.b,.c{font-size:38.25px;font-family:CabinCondensed-Bold, Cabin Condensed;font-weight:700;}.b,.c,.d{fill:#072451;}.b{letter-spacing:-0.01em;}.e{fill:#da121a;}</style></defs><g class="a"><text class="b" transform="translate(99.14 35.59)">A</text><text class="c" transform="translate(122.59 35.59)">e</text><text class="b" transform="translate(142.3 35.59)">r</text><text class="c" transform="translate(154.57 35.59)">on</text><text class="c" transform="translate(197.5 35.59)">a</text><text class="c" transform="translate(216.41 35.59)">utical</text></g><g class="a"><g class="a"><path class="d" d="M109.11,63.76a14.41,14.41,0,0,1-2.07-.15,18.07,18.07,0,0,1-1.9-.4,8.35,8.35,0,0,1-1.46-.52L104,60.3a16.48,16.48,0,0,0,1.54.64,14.77,14.77,0,0,0,2,.56,10.13,10.13,0,0,0,2.13.22,4.8,4.8,0,0,0,2.54-.58,2,2,0,0,0,.94-1.83,2.38,2.38,0,0,0-.48-1.54,3.62,3.62,0,0,0-1.42-1,18.27,18.27,0,0,0-2.39-.85,16.8,16.8,0,0,1-2.51-1,4.75,4.75,0,0,1-1.84-1.48,4.53,4.53,0,0,1,0-4.79,4.42,4.42,0,0,1,2-1.59,8.17,8.17,0,0,1,3.24-.57,11.75,11.75,0,0,1,3,.36,13.63,13.63,0,0,1,2.26.78L114.72,50a10.57,10.57,0,0,0-2.58-1.14,9.27,9.27,0,0,0-2.54-.35,4.75,4.75,0,0,0-2.41.55,1.88,1.88,0,0,0-1,1.77,2.05,2.05,0,0,0,.43,1.36,3.3,3.3,0,0,0,1.26.9,17.48,17.48,0,0,0,2.1.75,16.82,16.82,0,0,1,3,1.19,5.29,5.29,0,0,1,1.91,1.65,4.23,4.23,0,0,1,.66,2.42,4.43,4.43,0,0,1-.4,1.92A3.92,3.92,0,0,1,114,62.52a5.8,5.8,0,0,1-2,.92A11.31,11.31,0,0,1,109.11,63.76Z" transform="translate(-3.34 -3.25)"/><path class="d" d="M122.82,63.67a5.66,5.66,0,0,1-3.11-.82,5.3,5.3,0,0,1-2-2.18,7.06,7.06,0,0,1,0-6.09,5.3,5.3,0,0,1,2-2.18,6.29,6.29,0,0,1,6.21,0,5.28,5.28,0,0,1,2,2.18,7.16,7.16,0,0,1,0,6.09,5.28,5.28,0,0,1-2,2.18A5.62,5.62,0,0,1,122.82,63.67Zm0-1.9a3.24,3.24,0,0,0,2.65-1.1,5.45,5.45,0,0,0,0-6.09,3.74,3.74,0,0,0-5.3,0,5.45,5.45,0,0,0,0,6.09A3.27,3.27,0,0,0,122.82,61.77Z" transform="translate(-3.34 -3.25)"/><path class="d" d="M133.77,63.67a3.41,3.41,0,0,1-1.79-.41,2.42,2.42,0,0,1-.94-1,3.25,3.25,0,0,1-.28-1.34V45.66h2.13v14a6.16,6.16,0,0,0,.13,1.49.91.91,0,0,0,.53.66,3.1,3.1,0,0,0,1.21.17l-.31,1.71Z" transform="translate(-3.34 -3.25)"/><path class="d" d="M140.54,63.67a4.66,4.66,0,0,1-2.32-.55,3.51,3.51,0,0,1-1.46-1.68,7,7,0,0,1-.51-2.87V51.82h2.13V58A5.21,5.21,0,0,0,139,60.8a2.27,2.27,0,0,0,2.06,1,3.72,3.72,0,0,0,1.83-.47,2.49,2.49,0,0,0,1.16-1.52l-.31,1.16V51.82h2.13V63.43H144l-.43-2.28.57.38a4.25,4.25,0,0,1-1.41,1.61A4.08,4.08,0,0,1,140.54,63.67Z" transform="translate(-3.34 -3.25)"/><path class="d" d="M152.79,63.67a3.38,3.38,0,0,1-1.77-.41,2.43,2.43,0,0,1-1-1,3.13,3.13,0,0,1-.31-1.34V53.48h-2l.19-1.66h1.79V49l2.14-.22v3.08h3.05v1.66h-3.05v6.11A6.87,6.87,0,0,0,152,61.2a.84.84,0,0,0,.64.63,7.41,7.41,0,0,0,1.67.13h.54l-.16,1.71Z" transform="translate(-3.34 -3.25)"/><path class="d" d="M156.77,49.22V46.85h2.13v2.37Zm0,14.21V51.82h2.13V63.43Z" transform="translate(-3.34 -3.25)"/><path class="d" d="M166.86,63.67a5.63,5.63,0,0,1-3.11-.82,5.32,5.32,0,0,1-2-2.18,7.16,7.16,0,0,1,0-6.09,5.32,5.32,0,0,1,2-2.18,6.29,6.29,0,0,1,6.21,0,5.25,5.25,0,0,1,2,2.18,7.16,7.16,0,0,1,0,6.09,5.25,5.25,0,0,1-2,2.18A5.62,5.62,0,0,1,166.86,63.67Zm0-1.9a3.24,3.24,0,0,0,2.65-1.1,5.45,5.45,0,0,0,0-6.09,3.74,3.74,0,0,0-5.3,0,5.45,5.45,0,0,0,0,6.09A3.25,3.25,0,0,0,166.86,61.77Z" transform="translate(-3.34 -3.25)"/><path class="d" d="M174.82,63.43V51.82h1.66l.42,2.23-.83-.36a6,6,0,0,1,2.29-1.7,6.46,6.46,0,0,1,2.19-.41,4.24,4.24,0,0,1,3.64,1.47,6.53,6.53,0,0,1,1.1,4v6.4h-2.13V57a4.28,4.28,0,0,0-.69-2.7,2.85,2.85,0,0,0-2.35-.85A4.61,4.61,0,0,0,178,54a2.51,2.51,0,0,0-1.28,1.64l.26-1.3v9.1Z" transform="translate(-3.34 -3.25)"/><path class="d" d="M191.35,63.67a7.72,7.72,0,0,1-2.55-.37,7.18,7.18,0,0,1-1.43-.65l.26-2.06a5.74,5.74,0,0,0,1.34.75,5.51,5.51,0,0,0,2.29.43,3.25,3.25,0,0,0,1.72-.38,1.19,1.19,0,0,0,.6-1.06,1.29,1.29,0,0,0-.39-1,2.65,2.65,0,0,0-.92-.59,7.64,7.64,0,0,0-1-.35c-.53-.15-1.08-.33-1.64-.54a3.59,3.59,0,0,1-1.43-1,2.62,2.62,0,0,1-.58-1.82,3.45,3.45,0,0,1,.43-1.69,3.12,3.12,0,0,1,1.38-1.3,5.58,5.58,0,0,1,2.55-.5,6.18,6.18,0,0,1,1.89.25,9.67,9.67,0,0,1,1.26.51l-.26,1.95a4.86,4.86,0,0,0-1.19-.73,4.24,4.24,0,0,0-1.65-.29,3.15,3.15,0,0,0-1.63.37,1.28,1.28,0,0,0-.62,1.19,1.2,1.2,0,0,0,.67,1.16,13,13,0,0,0,2,.76,9.74,9.74,0,0,1,1,.34,5,5,0,0,1,1.1.61,2.88,2.88,0,0,1,1.23,2.51,3.84,3.84,0,0,1-.36,1.57,3.06,3.06,0,0,1-1.33,1.34A5.64,5.64,0,0,1,191.35,63.67Z" transform="translate(-3.34 -3.25)"/></g><g class="a"><path class="d" d="M210.79,63.76a8.13,8.13,0,0,1-4.14-1.06,7.78,7.78,0,0,1-2.91-3,9.41,9.41,0,0,1-1.07-4.59,8.93,8.93,0,0,1,1.11-4.54,7.67,7.67,0,0,1,3-3,9,9,0,0,1,4.42-1.07,11.74,11.74,0,0,1,2.56.28,12.52,12.52,0,0,1,2.11.67l-.21,2a16,16,0,0,0-2.06-.63,10.19,10.19,0,0,0-2.32-.25,6.38,6.38,0,0,0-3.49.88,5.35,5.35,0,0,0-2,2.38,8,8,0,0,0-.67,3.33,8.1,8.1,0,0,0,.68,3.38,5.22,5.22,0,0,0,2.07,2.34,6.62,6.62,0,0,0,3.55.86,12.13,12.13,0,0,0,1.33-.09,5.41,5.41,0,0,0,1.45-.36V57.15H211.6v-2h4.86V62.5a10.07,10.07,0,0,1-2.42.9A13.47,13.47,0,0,1,210.79,63.76Z" transform="translate(-3.34 -3.25)"/></g><g class="a"><path class="d" d="M219,63.43V51.82h1.75l.26,1.92a7.69,7.69,0,0,1,1.7-1.63,3.14,3.14,0,0,1,1.73-.53,1.92,1.92,0,0,1,.55.08L224.75,54l-.33,0-.38,0a3.59,3.59,0,0,0-1.7.41,2.86,2.86,0,0,0-1.1.89v8.2Z" transform="translate(-3.34 -3.25)"/></g><g class="a"><path class="d" d="M231.22,63.67a5.66,5.66,0,0,1-3.11-.82,5.3,5.3,0,0,1-2-2.18,7.06,7.06,0,0,1,0-6.09,5.3,5.3,0,0,1,2-2.18,6.29,6.29,0,0,1,6.21,0,5.28,5.28,0,0,1,2,2.18,7.16,7.16,0,0,1,0,6.09,5.28,5.28,0,0,1-2,2.18A5.62,5.62,0,0,1,231.22,63.67Zm0-1.9a3.24,3.24,0,0,0,2.65-1.1,5.45,5.45,0,0,0,0-6.09,3.74,3.74,0,0,0-5.3,0,5.45,5.45,0,0,0,0,6.09A3.27,3.27,0,0,0,231.22,61.77Z" transform="translate(-3.34 -3.25)"/><path class="d" d="M243.35,63.67a4.66,4.66,0,0,1-2.32-.55,3.58,3.58,0,0,1-1.47-1.68,7.17,7.17,0,0,1-.5-2.87V51.82h2.13V58a5.12,5.12,0,0,0,.64,2.82,2.27,2.27,0,0,0,2.06,1,3.72,3.72,0,0,0,1.83-.47,2.49,2.49,0,0,0,1.16-1.52l-.31,1.16V51.82h2.13V63.43h-1.89l-.43-2.28.57.38a4.18,4.18,0,0,1-1.42,1.61A4,4,0,0,1,243.35,63.67Z" transform="translate(-3.34 -3.25)"/><path class="d" d="M251.59,69.16V51.82h1.66l.38,2.65-.59-.42a5.65,5.65,0,0,1,1.81-1.8,5,5,0,0,1,2.64-.67,4.59,4.59,0,0,1,2.73.81A5.28,5.28,0,0,1,262,54.56a7.59,7.59,0,0,1,.6,3.06,8,8,0,0,1-.57,3.07,5,5,0,0,1-1.69,2.17,4.69,4.69,0,0,1-2.81.81,5.42,5.42,0,0,1-2.5-.58,3.39,3.39,0,0,1-1.62-1.72l.36-.43v8.22Zm5.5-7.39a2.9,2.9,0,0,0,2.42-1.1,5.76,5.76,0,0,0,0-6.09,2.9,2.9,0,0,0-2.42-1.1,3.39,3.39,0,0,0-1.75.46,3.3,3.3,0,0,0-1.26,1.37,5,5,0,0,0-.47,2.31,5,5,0,0,0,.47,2.37,3.18,3.18,0,0,0,1.26,1.35A3.57,3.57,0,0,0,257.09,61.77Z" transform="translate(-3.34 -3.25)"/></g></g><path class="d" d="M76.15,66.52c2.22-13.37,3.34-27.76.16-41.08-1.9-8-6.21-17.18-15.19-18.78S44.6,12,39.78,18.7c-6.65,9-11.45,19.56-15.67,29.77a232.52,232.52,0,0,0-12.62,40.6c-.79,3.74,9.58,2.1,10.29-1.33a230,230,0,0,1,9.63-33.06A174.16,174.16,0,0,1,45.22,24.94a62.49,62.49,0,0,1,7.24-10c.2-.21,1-1,1.53-1.46l.91-.78c.35-.27,1-.66.23-.18L56,12c.82-.53-.41.2-.16,0,.83-.44.48-.2-.23,0,1.17-.37-.8.11-.16,0h-.36c-.73,0-.75-.14,0,0l.37.09c.43.16.86.34,1.27.53a11.11,11.11,0,0,1,3.36,3,26.08,26.08,0,0,1,5.33,10.67c3.83,13.45,2.65,28.16.41,41.74C65.23,71.8,75.6,70,76.15,66.61Z" transform="translate(-3.34 -3.25)"/><path class="e" d="M84.6,17.78A71.79,71.79,0,0,1,72.15,28.54,95.88,95.88,0,0,1,36.58,44.31,93.41,93.41,0,0,1,7.5,45.79c-1.31-.15-3.55,0-4.07,1.49s1.19,2.4,2.35,2.53a103.29,103.29,0,0,0,80-25.44,50.83,50.83,0,0,0,4.57-4.48c2.28-2.59-4.07-4-5.78-2Z" transform="translate(-3.34 -3.25)"/><path class="e" d="M94.22,12.49l3-2.7L91.87,7.46l.66-.8c.13-.12.25,0,.37,0,2.17.21,4.36.41,6.53.64a.76.76,0,0,0,.62-.23c1-1,2.07-1.92,3.13-2.81a3.52,3.52,0,0,1,2.3-1h.37c.33.07.46.28.37.64a2.78,2.78,0,0,1-.51,1,18.35,18.35,0,0,1-2,2Q99.9,10.42,96.07,14l-.32.27a12.08,12.08,0,0,0-1.78.32.58.58,0,0,1-.71-.39.55.55,0,0,1,0-.31v-.51a.6.6,0,0,1,.53-.27c.47,0,.47,0,.38-.48A.37.37,0,0,0,94.22,12.49Z" transform="translate(-3.34 -3.25)"/><path class="e" d="M94.22,12.49a.62.62,0,0,1,.2.57c0,.29-.34.22-.5.22-.45,0-.62.12-.54.55s0,.34,0,.55.22.21.4.18c.55-.11,1.08-.27,1.63-.34.13,0,.2,0,.25.09s-.44.46-.67.67a1.12,1.12,0,0,1-1.57,0l-2.51-1.9s-.3-.12-.23-.28a.51.51,0,0,1,.46-.32h.22l1.78.51v.09a.6.6,0,0,0,.37-.12Z" transform="translate(-3.34 -3.25)"/></svg>